SplineFontDB: 3.0
FontName: DessineTaVille
FullName: Dessine ta ville
FamilyName: Dessine ta ville
Weight: Regular
Copyright: Copyright (c) 2016, Camille Bissuel,,,,
UComments: "2016-6-22: Created with FontForge (http://fontforge.org)"
Version: 001.000
ItalicAngle: 0
UnderlinePosition: -100
UnderlineWidth: 50
Ascent: 800
Descent: 200
InvalidEm: 0
LayerCount: 2
Layer: 0 0 "Back" 1
Layer: 1 0 "Fore" 0
XUID: [1021 740 713474846 11093919]
StyleMap: 0x0000
FSType: 0
OS2Version: 0
OS2_WeightWidthSlopeOnly: 0
OS2_UseTypoMetrics: 1
CreationTime: 1466585854
ModificationTime: 1466588303
OS2TypoAscent: 0
OS2TypoAOffset: 1
OS2TypoDescent: 0
OS2TypoDOffset: 1
OS2TypoLinegap: 90
OS2WinAscent: 0
OS2WinAOffset: 1
OS2WinDescent: 0
OS2WinDOffset: 1
HheadAscent: 0
HheadAOffset: 1
HheadDescent: 0
HheadDOffset: 1
MarkAttachClasses: 1
DEI: 91125

StartChar: uni0001
Encoding: 1 1 0
Width: 780
VWidth: 200
Flags: W
HStem: 0 21G<412 452> 0 21G<412 452> 583 21G<141 150.5 492 592> 751 148<298.125 403.375> 789 211G<48 59 561.5 574.5 580 591 737 770>
VStem: 276 149<773.894 876.106> 412 40<0 300> 742 28<941.6 1000>
LayerCount: 2
Fore
SplineSet
613 489 m 1x23
 659 305 l 2
 660 301 661 297 661 293 c 0
 661 271 646 252 624 246 c 0
 620 245 616 245 612 245 c 0
 590 245 570 260 564 282 c 2
 535 399 l 1
 402 337 l 2
 393 334 382 331 371 331 c 0
 359 331 347 333 337 336 c 2
 218 64 l 2
 211 47 195 38 178 38 c 0
 169 38 161 40 152 45 c 0
 133 56 120 74 120 93 c 0
 120 99 121 106 124 112 c 2
 272 440 l 1
 272 628 l 1
 164 586 l 2
 159 584 153 583 148 583 c 0
 134 583 119 590 111 602 c 2
 17 745 l 2
 13 752 10 759 10 767 c 0
 10 781 17 794 29 802 c 0
 36 806 44 809 52 809 c 0
 66 809 79 802 87 790 c 2
 163 676 l 1
 310 733 l 2
 315 735 322 736 327 736 c 2
 412 736 l 1
 553 962 l 2
 560 974 573 980 587 980 c 0
 595 980 602 978 609 974 c 0
 621 966 628 953 628 940 c 0
 628 932 626 924 621 917 c 2
 452 652 l 1
 452 480 l 1
 548 523 l 2
 553 525 559 527 564 527 c 0
 585 527 608 510 613 489 c 1x23
492 558 m 1
 652 641 732 928 742 1000 c 2
 770 1000 l 2x29
 770 971 692 627 492 527 c 1
 492 558 l 1
351 751 m 0x35
 310 751 276 784 276 825 c 0
 276 866 310 899 351 899 c 0
 392 899 425 866 425 825 c 0
 425 784 392 751 351 751 c 0x35
412 0 m 1xa3
 412 300 l 1
 452 331 l 1
 452 0 l 1
 412 0 l 1xa3
EndSplineSet
Validated: 1
EndChar

StartChar: uni0002
Encoding: 2 2 1
Width: 670
VWidth: 200
Flags: W
HStem: 0 21G<142.5 155.5 371.5 384.5> 0 21G<142.5 155.5 371.5 384.5> 700 60<11.0547 308.945 360 619> 788 166<202.829 311.568> 980 20G<535.429 569>
VStem: 96 104<11.1566 99.5> 140 220<346.424 653 662.007 680> 176 162<815.129 926.871> 619 41<626.652 700 760 851.79>
LayerCount: 2
Fore
SplineSet
257 788 m 0x3980
 213 788 176 825 176 871 c 0
 176 917 213 954 257 954 c 0
 302 954 338 917 338 871 c 0
 338 825 302 788 257 788 c 0x3980
280 760 m 2
 300 760 310 745 310 730 c 0
 310 715 300 700 280 700 c 2
 40 700 l 2
 20 700 10 715 10 730 c 0
 10 745 20 760 40 760 c 2
 280 760 l 2
660 735 m 0
 660 644 624 556 566 487 c 0
 547 470 l 1
 360 653 l 1
 360 381 l 1xba80
 426 55 l 2
 427 52 427 48 427 45 c 0
 427 24 414 5 393 1 c 0
 390 0 386 0 383 -0 c 0
 360 0 332 15 328 37 c 2
 260 380 l 1
 240 380 l 1
 200 40 l 2
 196 17 167 0 144 0 c 0
 141 0 138 0 135 1 c 0
 113 5 96 26 96 48 c 0
 96 51 96 52 96 55 c 2xbc80
 140 360 l 1
 140 680 l 1xba80
 276 680 l 2
 297 680 314 690 324 706 c 2
 325 709 l 1
 327 712 l 1
 327 713 l 2
 330 719 331 725 331 731 c 0
 331 734 332 737 332 740 c 0
 331 747 329 754 325 760 c 2
 323 763 l 1
 327 767 l 1
 555 1000 l 1
 569 983 l 0
 627 914 660 827 660 735 c 0
619 700 m 1
 360 700 l 1
 360 685 l 2
 400 634 493 555 533 514 c 1
 577 567 612 640 619 700 c 1
619 760 m 1
 613 840 585 895 541 948 c 1
 495 901 406 820 358 760 c 2
 619 760 l 1
EndSplineSet
Validated: 1
EndChar

StartChar: uni0003
Encoding: 3 3 2
Width: 980
VWidth: 160
Flags: W
HStem: 0 260<270 410 570 710> 0 120<410 570> 560 140<410 570> 860 80<323.783 656.217>
VStem: 10 260<260 420> 230 80<700 845.309> 670 80<700 845.309> 710 260<260 420>
LayerCount: 2
Fore
SplineSet
848 700 m 2x76
 915 700 970 648 970 581 c 2
 970 121 l 2
 970 54 915 0 848 0 c 2
 132 0 l 2
 65 0 10 54 10 121 c 2
 10 581 l 2x79
 10 648 65 700 132 700 c 2
 230 700 l 1
 230 805 l 2
 230 880 289 940 364 940 c 2
 616 940 l 2
 691 940 750 880 750 805 c 2
 750 700 l 1
 848 700 l 2x76
310 805 m 2x36
 310 700 l 1
 670 700 l 1
 670 805 l 2
 670 833 644 860 616 860 c 2
 364 860 l 2
 336 860 310 833 310 805 c 2x36
710 260 m 1xb9
 710 420 l 1
 570 420 l 1
 570 560 l 1
 410 560 l 1
 410 420 l 1
 270 420 l 1
 270 260 l 1
 410 260 l 1xb9
 410 120 l 1
 570 120 l 1x79
 570 260 l 1
 710 260 l 1xb9
EndSplineSet
Validated: 1
EndChar

StartChar: uni0004
Encoding: 4 4 3
Width: 949
VWidth: 200
Flags: W
HStem: 0 71<709.536 774.464> 0 21G<255.5 300.5> 696 250<99 206 349 492> 980 20G<258.5 300.5 635 635>
VStem: 206 143<23.5426 696 946 982.75> 653 53<76.3264 140.188> 778 53<75.9728 140.188>
LayerCount: 2
Fore
SplineSet
635 1000 m 2xbe
 635 893 l 1
 742 786 l 1
 849 893 l 1
 849 1000 l 2
 903 965 939 904 939 835 c 0
 939 759 894 694 831 661 c 2
 831 107 l 2
 831 43 794 0 742 0 c 0
 690 0 653 44 653 107 c 2
 653 661 l 2
 590 694 546 759 546 835 c 0
 546 904 635 965 635 1000 c 2xbe
278 1000 m 0
 323 1000 349 973 349 946 c 2
 492 946 l 1
 492 696 l 1
 349 696 l 1
 349 89 l 2
 349 37 323 0 278 0 c 0x7e
 233 0 206 40 206 89 c 2
 206 696 l 1
 99 696 l 1
 10 821 l 1
 99 946 l 1
 206 946 l 2
 206 972 239 1000 278 1000 c 0
742 143 m 0
 722 143 706 127 706 107 c 0
 706 87 722 71 742 71 c 0xbe
 762 71 778 87 778 107 c 0
 778 127 762 143 742 143 c 0
EndSplineSet
Validated: 1
EndChar

StartChar: uni0005
Encoding: 5 5 4
Width: 877
VWidth: 200
Flags: W
HStem: 0 357<121 470> 500 71<94 496> 643 21G<224 331> 750 107<360.656 510 581 867> 929 71<388.81 510 581 702.364>
VStem: 224 107<643 715.85> 510 71<857 929>
LayerCount: 2
Fore
SplineSet
10 571 m 1
 581 571 l 1
 474 0 l 1
 117 0 l 1
 10 571 l 1
94 500 m 1
 121 357 l 1
 470 357 l 1
 496 500 l 1
 94 500 l 1
224 643 m 2
 224 786 296 857 439 857 c 2
 510 857 l 1
 510 929 l 1
 439 929 l 2
 403 929 385 946 385 964 c 0
 385 982 403 1000 439 1000 c 2
 653 1000 l 2
 689 1000 706 982 706 964 c 0
 706 946 689 929 653 929 c 2
 581 929 l 1
 581 857 l 1
 867 857 l 1
 867 750 l 1
 439 750 l 2
 438 750 438 750 437 750 c 0
 361 750 331 715 331 643 c 2
 224 643 l 2
EndSplineSet
Validated: 1
EndChar

StartChar: uni0006
Encoding: 6 6 5
Width: 740
VWidth: 180
Flags: W
HStem: 0 21G<290 450> 0 21G<290 450> 372 8<345.809 347.916> 940 20G<159 181 559 581> 940 20G<159 181 559 581>
VStem: 130 80<700 955.845> 290 160<0 80> 530 80<700 955.845>
CounterMasks: 1 07
LayerCount: 2
Fore
SplineSet
710 700 m 2xb7
 721 700 730 683 730 672 c 2
 730 576 l 2
 730 461 530 327 530 142 c 2
 530 80 l 1
 450 80 l 1
 450 0 l 1
 290 0 l 1
 290 80 l 1
 210 80 l 1
 210 142 l 2
 210 327 10 461 10 576 c 2
 10 672 l 2
 10 683 19 700 30 700 c 2
 130 700 l 1
 130 922 l 2
 130 943 148 960 170 960 c 0
 192 960 210 943 210 922 c 2
 210 700 l 1
 530 700 l 1
 530 922 l 2
 530 943 548 960 570 960 c 0
 592 960 610 943 610 922 c 2
 610 700 l 1
 710 700 l 2xb7
348 372 m 0
 348 372 313 231 312 225 c 0
 311 219 314 219 317 222 c 0
 320 225 480 433 480 433 c 2
 483 436 481 440 476 440 c 2
 399 440 l 2
 394 440 391 443 393 447 c 2
 393 447 428 586 429 591 c 0
 430 595 427 597 425 593 c 0
 422 589 262 386 262 386 c 2
 259 383 260 380 265 380 c 2
 342 380 l 2
 347 380 349 376 348 372 c 0
EndSplineSet
Validated: 1
EndChar

StartChar: uni0007
Encoding: 7 7 6
Width: 1020
VWidth: 200
Flags: W
HStem: 0 223<819.863 912.973> 0 143<229.048 648.522> 348 90<819.863 914.707> 562 152<819.863 912.973> 571 143<229.048 378 503 648.522> 978 20G<670.5 691>
VStem: 10 143<217.389 496.611> 724 81<239.042 333.137 452.863 496.611> 930 80<238.293 333.137 452.863 547.137>
LayerCount: 2
Fore
SplineSet
680 998 m 0x6f80
 702 995 722 974 722 951 c 0
 722 942 719 932 711 924 c 2
 503 714 l 1x6f80
 867 714 l 2x3780
 938 714 1010 642 1010 571 c 2
 1010 143 l 2x6f80
 1010 72 938 0 867 0 c 2xa780
 153 0 l 2
 82 0 10 72 10 143 c 2
 10 571 l 2
 10 642 82 714 153 714 c 2
 378 714 l 1
 242 853 l 2
 231 861 226 874 226 888 c 0
 226 900 230 912 238 920 c 0
 246 928 257 932 269 932 c 0
 283 932 297 926 305 915 c 2
 441 777 l 1
 648 987 l 2
 656 995 666 998 675 998 c 0
 676 998 679 998 680 998 c 0x6f80
439 571 m 0
 225 571 153 571 153 357 c 0
 153 143 225 143 439 143 c 0
 653 143 724 143 724 357 c 0
 724 571 653 571 439 571 c 0
867 562 m 0x3780
 832 562 805 535 805 500 c 0
 805 465 832 438 867 438 c 0
 902 438 930 465 930 500 c 0
 930 535 902 562 867 562 c 0x3780
867 348 m 0
 832 348 805 321 805 286 c 0
 805 251 832 223 867 223 c 0xa780
 902 223 930 251 930 286 c 0
 930 321 902 348 867 348 c 0
EndSplineSet
Validated: 1
EndChar

StartChar: uni0008
Encoding: 8 8 7
Width: 857
VWidth: 180
Flags: W
HStem: 0 115<320.954 536.943> 765 20G<237 251.5 408 440 597 612>
VStem: 10 115<310.954 533.258> 354 140<441.996 934.527> 732 115<310.954 530.178>
LayerCount: 2
Fore
SplineSet
429 0 m 0
 198 0 10 188 10 419 c 0
 10 567 85 700 212 777 c 0
 221 783 232 785 242 785 c 0
 261 785 280 776 291 758 c 0
 297 749 299 738 299 728 c 0
 299 709 289 690 271 679 c 0
 179 623 125 526 125 419 c 0
 125 251 261 115 429 115 c 0
 597 115 732 251 732 419 c 0
 732 528 674 629 579 683 c 0
 560 694 550 713 550 733 c 0
 550 743 552 752 557 761 c 0
 568 780 587 790 607 790 c 0
 617 790 626 788 635 783 c 0
 766 709 847 569 847 419 c 0
 847 188 660 0 429 0 c 0
424 424 m 0
 392 424 354 450 354 482 c 2
 354 895 l 2
 354 927 392 952 424 952 c 0
 456 952 494 927 494 895 c 2
 494 482 l 2
 494 450 456 424 424 424 c 0
EndSplineSet
Validated: 1
EndChar

StartChar: uni0009
Encoding: 9 9 8
Width: 877
VWidth: 200
Flags: W
HStem: 0 143<153 724> 571 21G<224 653> 766 20G<419 458.907> 857 143<153 724>
VStem: 10 143<143 857> 724 143<143 857>
LayerCount: 2
Fore
SplineSet
10 1000 m 1
 867 1000 l 1
 867 0 l 1
 10 0 l 1
 10 1000 l 1
153 857 m 1
 153 143 l 1
 724 143 l 1
 724 857 l 1
 153 857 l 1
439 786 m 1
 653 571 l 1
 510 571 l 1
 367 571 l 1
 224 571 l 1
 439 786 l 1
224 429 m 1
 367 429 l 1
 510 429 l 1
 653 429 l 1
 439 214 l 1
 224 429 l 1
EndSplineSet
Validated: 1
EndChar

StartChar: uni000A
Encoding: 10 10 9
Width: 877
VWidth: 182
Flags: W
HStem: -0 21G<37 55> -0 21G<37 55> 347 500<218.657 430.24> 474 500<586.711 801.343> 891 73G<37 55 153 153>
VStem: 10 71<3.81006 960.364>
LayerCount: 2
Fore
SplineSet
510 911 m 0x24
 581 959 645 974 698 974 c 0
 804 974 867 911 867 911 c 1
 867 411 l 1
 867 411 804 474 698 474 c 0x14
 645 474 581 459 510 411 c 0
 439 363 375 347 322 347 c 0
 216 347 153 411 153 411 c 1
 153 911 l 1
 153 911 216 847 322 847 c 0
 375 847 439 863 510 911 c 0x24
46 964 m 0x8c
 64 964 81 947 81 911 c 2
 81 54 l 2
 81 18 64 0 46 -0 c 0
 28 0 10 18 10 54 c 2
 10 911 l 2
 10 947 28 964 46 964 c 0x8c
EndSplineSet
Validated: 1
EndChar

StartChar: uni000B
Encoding: 11 11 10
Width: 660
VWidth: 179
Flags: W
HStem: 0 21G<46.5 71.5> 0 21G<46.5 71.5> 455 328<417.387 571.219> 581 328<108.797 242.036> 940 20G<45.5 72.5> 940 20G<45.5 72.5 625.5 650>
VStem: 10 98<10.2925 575.95 903 951.246>
LayerCount: 2
Fore
SplineSet
59 960 m 0x9a
 86 960 108 937 108 909 c 2
 108 903 l 2
 124 906 141 909 158 909 c 0x9a
 257 909 404 783 502 783 c 0
 551 783 601 821 650 859 c 2
 650 505 l 2
 607 472 545 455 502 455 c 0x22
 401 455 256 581 158 581 c 0
 142 581 125 575 108 568 c 2
 108 51 l 2
 108 26 84 0 59 0 c 0
 34 0 10 26 10 51 c 2
 10 909 l 2
 10 937 32 960 59 960 c 0x9a
EndSplineSet
Validated: 1
EndChar

StartChar: uni000C
Encoding: 12 12 11
Width: 1020
VWidth: 128
Flags: W
HStem: 0 71<46 219.669 441.266 580.375 760 936.121> 143 71<83.8794 221.347 800.331 935.347> 286 71<83.4925 260 439.625 580.375 799.959 974> 500 89<33.4338 268.551 750.104 984.49> 643 214<85.3653 296 724 934.635> 714 143<367 653>
VStem: 10 71<216.933 282.36> 224 72<74.0678 139.907> 367 57<86.9179 270.631> 596 57<86.3693 270.631> 724 72<216.777 282.516> 939 71<74.2236 139.751>
LayerCount: 2
Fore
SplineSet
488 286 m 2xf3f0
 424 286 424 221 424 221 c 1
 424 136 l 1
 424 136 424 136 424 135 c 0
 424 127 429 71 488 71 c 2
 532 71 l 2
 596 71 596 136 596 136 c 1
 596 221 l 1
 596 221 596 286 532 286 c 2
 488 286 l 2xf3f0
153 857 m 2xfbf0
 867 857 l 2xfbf0
 938 857 1010 785 1010 714 c 2xf7f0
 1010 643 l 1
 724 643 l 1xfbf0
 653 714 l 1
 367 714 l 1xf7f0
 296 643 l 1
 10 643 l 1xfbf0
 10 714 l 2xf7f0
 10 785 82 857 153 857 c 2xfbf0
10 589 m 1
 296 589 l 1
 296 554 l 1
 296 554 264 501 224 500 c 2
 81 500 l 2
 36 500 10 554 10 554 c 1
 10 589 l 1
724 589 m 1
 1010 589 l 1
 1010 554 l 1
 1010 554 979 500 939 500 c 2
 796 500 l 2
 756 500 724 554 724 554 c 1
 724 589 l 1
117 357 m 2
 260 357 l 1
 260 286 l 1
 117 286 l 1
 117 286 81 286 81 250 c 0
 81 214 117 214 117 214 c 1
 189 214 l 2
 243 214 296 172 296 109 c 0
 296 43 245 0 189 0 c 2
 46 0 l 1
 46 71 l 1
 189 71 l 1
 189 71 224 71 224 107 c 0
 224 143 189 143 189 143 c 1
 117 143 l 2
 61 143 10 180 10 250 c 0
 10 316 60 357 117 357 c 2
474 357 m 2
 546 357 l 2
 653 357 653 250 653 250 c 1
 653 107 l 1
 653 107 653 0 546 0 c 2
 474 0 l 2
 376 0 367 92 367 105 c 0
 367 106 367 107 367 107 c 0
 367 250 l 1
 367 250 367 357 474 357 c 2
831 357 m 2
 974 357 l 1
 974 286 l 1
 831 286 l 1
 831 286 796 286 796 250 c 0
 796 214 831 214 831 214 c 1
 903 214 l 2
 957 214 1010 172 1010 109 c 0
 1010 43 959 0 903 0 c 2
 760 0 l 1
 760 71 l 1
 903 71 l 1
 903 71 939 71 939 107 c 0
 939 143 903 143 903 143 c 1
 831 143 l 2
 775 143 724 180 724 250 c 0
 724 316 774 357 831 357 c 2
EndSplineSet
Validated: 1
EndChar

StartChar: uni000D
Encoding: 13 13 12
Width: 980
VWidth: 79
Flags: W
HStem: 0 101<438.975 538.706> 279 101<126.471 220.97> 659 101<308.874 595.228>
VStem: 10 101<396.634 489.061> 313 101<127.396 229.446> 414 76<547.293 643.277> 818 152<266.5 494.956>
LayerCount: 2
Fore
SplineSet
414 760 m 0xf6
 717 760 970 659 970 355 c 0
 970 178 818 0 490 0 c 0xf6
 389 0 313 76 313 177 c 0xfa
 313 253 263 279 162 279 c 0
 61 279 10 355 10 456 c 0
 10 557 161 760 414 760 c 0xf6
351 659 m 0
 316 659 288 630 288 595 c 0
 288 560 316 532 351 532 c 0
 386 532 414 560 414 595 c 0
 414 630 386 659 351 659 c 0
553 659 m 0
 518 659 490 630 490 595 c 0
 490 560 518 532 553 532 c 0
 588 532 616 560 616 595 c 0
 616 630 588 659 553 659 c 0
755 557 m 0
 720 557 692 529 692 494 c 0
 692 459 720 431 755 431 c 0
 790 431 818 459 818 494 c 0
 818 529 790 557 755 557 c 0
174 507 m 0
 139 507 111 478 111 443 c 0
 111 408 139 380 174 380 c 0
 209 380 237 408 237 443 c 0
 237 478 209 507 174 507 c 0
490 253 m 0
 448 253 414 219 414 177 c 0xfa
 414 135 448 101 490 101 c 0
 532 101 566 135 566 177 c 0
 566 219 532 253 490 253 c 0
EndSplineSet
Validated: 1
EndChar

StartChar: uni000E
Encoding: 14 14 13
Width: 949
VWidth: 200
Flags: W
HStem: 0 143<367 796> 411 178<10 439> 714 21G<224 367> 730 20G<439 461.8> 857 143<367 796>
VStem: 224 143<143 286 714 857> 796 143<143 857>
LayerCount: 2
Fore
SplineSet
224 1000 m 1xee
 939 1000 l 1
 939 0 l 1
 224 0 l 1
 224 286 l 1
 367 286 l 1
 367 143 l 1
 796 143 l 1
 796 857 l 1
 367 857 l 1
 367 714 l 1
 224 714 l 1
 224 1000 l 1xee
439 750 m 1xde
 724 500 l 1
 439 250 l 1
 439 411 l 1
 10 411 l 1
 10 589 l 1
 439 589 l 1
 439 750 l 1xde
EndSplineSet
Validated: 1
EndChar

StartChar: uni000F
Encoding: 15 15 14
Width: 1020
VWidth: 200
Flags: W
HStem: 0 143<153 510> 411 178<296 724> 714 21G<510 653> 730 20G<724 746.88> 857 143<153 510>
VStem: 10 143<143 857> 510 143<143 286 714 857>
LayerCount: 2
Fore
SplineSet
10 1000 m 1xee
 653 1000 l 1
 653 714 l 1
 510 714 l 1
 510 857 l 1
 153 857 l 1
 153 143 l 1
 510 143 l 1
 510 286 l 1
 653 286 l 1
 653 0 l 1
 10 0 l 1
 10 1000 l 1xee
724 750 m 1xde
 1010 500 l 1
 724 250 l 1
 724 411 l 1
 296 411 l 1
 296 589 l 1
 724 589 l 1
 724 750 l 1xde
EndSplineSet
Validated: 1
EndChar

StartChar: uni0010
Encoding: 16 16 15
Width: 940
VWidth: 160
Flags: W
HStem: 0 80<644 714> 540 21G<90.9524 110 274.743 317.714> 840 80<226 296>
VStem: 10 100<645 715> 830 100<215 285>
LayerCount: 2
Fore
SplineSet
10 645 m 1
 10 920 l 1
 296 920 l 1
 401 840 l 1
 226 840 l 1
 410 645 l 1
 296 540 l 1
 110 715 l 1
 110 540 l 1
 10 645 l 1
930 285 m 1
 930 0 l 1
 644 0 l 1
 539 80 l 1
 714 80 l 1
 530 280 l 1
 644 387 l 1
 830 215 l 1
 830 390 l 1
 930 285 l 1
EndSplineSet
Validated: 1
EndChar

StartChar: uni0011
Encoding: 17 17 16
Width: 984
VWidth: 57
Flags: W
HStem: 0 141<109.21 875.79> 214 72<13.8101 970.364> 357 286<222.819 762.969>
LayerCount: 2
Fore
SplineSet
349 643 m 2
 635 643 l 2
 849 643 921 500 921 429 c 2
 921 357 l 1
 64 357 l 1
 64 429 l 2
 64 430 64 432 64 433 c 0
 64 505 139 643 349 643 c 2
64 286 m 2
 921 286 l 2
 957 286 974 268 974 250 c 0
 974 232 957 214 921 214 c 2
 64 214 l 2
 28 214 10 232 10 250 c 0
 10 268 28 286 64 286 c 2
64 141 m 1
 921 141 l 1
 921 96 l 2
 921 47 863 0 814 0 c 2
 171 0 l 2
 122 0 64 47 64 96 c 2
 64 141 l 1
EndSplineSet
Validated: 1
EndChar

StartChar: uni0012
Encoding: 18 18 17
Width: 501
VWidth: 180
Flags: W
HStem: 0 21G<179 201 299 321> 0 21G<179 201 299 321> 677 103<146.125 167.997 330.003 352.477> 805 165<192.129 303.418>
VStem: 150 80<4.15473 300> 165 165<668 676.997 832.129 943.418> 270 80<4.57888 300>
LayerCount: 2
Fore
SplineSet
165 888 m 0x34
 165 934 202 970 248 970 c 0
 294 970 330 934 330 888 c 0
 330 842 294 805 248 805 c 0
 202 805 165 842 165 888 c 0x34
449 340 m 2
 450 339 449 322 449 320 c 0
 449 313 435 300 428 300 c 2
 350 300 l 1
 350 40 l 2
 350 19 332 0 310 0 c 0
 288 0 270 19 270 40 c 2
 270 300 l 2
 270 303 260 304 250 304 c 0
 240 304 230 303 230 300 c 2
 230 38 l 2
 230 17 212 0 190 0 c 0
 168 0 150 17 150 38 c 2
 150 300 l 1xba
 76 300 l 2
 69 300 52 313 52 320 c 0
 52 321 52 339 52 340 c 2
 167 665 l 1
 168 668 l 2
 168 673 164 677 159 677 c 0
 155 677 152 674 151 671 c 2
 73 460 l 2
 69 446 47 440 31 440 c 0
 14 440 10 464 10 475 c 0
 10 477 11 479 11 480 c 2
 87 687 l 2
 94 733 144 780 198 780 c 2
 303 780 l 2
 357 780 403 733 410 687 c 2
 490 480 l 2
 490 478 489 440 470 440 c 0
 456 440 433 448 428 460 c 2
 348 670 l 2
 347 674 343 677 339 677 c 0
 334 677 330 673 330 668 c 2
 331 665 l 1
 449 340 l 2
EndSplineSet
Validated: 1
EndChar

StartChar: uni0013
Encoding: 19 19 18
Width: 877
VWidth: 200
Flags: W
HStem: 0 107<10 58.0424 248.34 343.797 533.498 631.063 822.307 867> 71 108<105.34 201.335 389.131 488.574 676.257 772.239> 643 21G<155.517 193 684.14 721.552> 980 20G<331.5 545.5>
LayerCount: 2
Fore
SplineSet
189 929 m 1x30
 296 929 l 1
 296 929 296 1000 367 1000 c 2
 510 1000 l 2
 581 1000 581 929 581 929 c 1
 689 929 l 1
 724 643 l 1
 439 786 l 1
 153 643 l 1
 189 929 l 1x30
439 714 m 1
 867 500 l 1
 724 357 l 1
 724 286 l 2
 690 286 615 214 581 214 c 0
 545 214 473 286 439 286 c 0
 405 286 332 214 296 214 c 0
 260 214 185 286 153 286 c 2
 153 357 l 1
 10 500 l 1
 439 714 l 1
153 179 m 0x70
 191 179 262 107 296 107 c 0xb0
 328 107 403 179 439 179 c 0x70
 475 179 549 107 581 107 c 0xb0
 619 107 690 179 724 179 c 0
 725 179 725 179 726 179 c 0x70
 765 179 838 107 867 107 c 2
 867 0 l 2xb0
 831 0 758 71 724 71 c 0x70
 690 71 617 0 581 0 c 0xb0
 547 0 475 71 439 71 c 0x70
 403 71 330 0 296 0 c 0xb0
 258 0 189 71 153 71 c 0x70
 119 71 48 0 10 0 c 2
 10 107 l 2xb0
 46 107 115 179 153 179 c 0x70
EndSplineSet
Validated: 1
EndChar

StartChar: uni0014
Encoding: 20 20 19
Width: 1020
VWidth: -40
Flags: W
HStem: 0 40<138.238 881.762> 60 40<491.664 528.336> 171 56<530 562.255> 420 40<491.664 528.336> 480 40<138.238 882.81>
VStem: 10 40<128.238 391.762> 330 84<165.046 200 211.595 355.305> 462 28<291.967 336.685> 530 33<173.403 223.375 300 327.424> 615 75<164.796 346.509> 970 40<128.238 392.81>
LayerCount: 2
Fore
SplineSet
870 520 m 1
 1010 520 l 1
 1010 0 l 1
 10 0 l 1
 10 520 l 1
 870 520 l 1
970 135 m 2
 970 386 l 2
 925 399 889 435 876 480 c 2
 145 480 l 2
 132 433 97 398 50 385 c 2
 50 135 l 2
 97 122 132 87 145 40 c 2
 875 40 l 2
 888 87 923 122 970 135 c 2
552 219 m 0
 559 215 563 208 563 200 c 0
 563 186 556 176 541 171 c 2
 530 169 l 1
 530 227 l 2
 550 225 547 222 552 219 c 0
462 313 m 0
 462 323 467 331 475 336 c 0
 479 339 484 341 490 342 c 2
 490 288 l 2
 483 290 477 291 474 293 c 0
 466 297 462 304 462 313 c 0
510 460 m 0
 609 460 690 370 690 260 c 0
 690 150 609 60 510 60 c 0
 411 60 330 150 330 260 c 0
 330 370 411 460 510 460 c 0
587 147 m 0
 605 162 615 181 615 204 c 0
 615 226 610 243 595 255 c 0
 585 263 567 268 548 273 c 2
 530 276 l 1
 530 339 l 2
 530 339 534 335 535 335 c 0
 547 329 558 320 559 300 c 2
 609 300 l 2
 608 340 595 350 576 364 c 0
 564 373 550 382 530 385 c 2
 530 420 l 1
 490 420 l 1
 490 386 l 2
 468 383 452 376 439 365 c 0
 423 350 414 332 414 310 c 0
 414 286 422 268 439 256 c 0
 448 249 466 243 490 237 c 2
 490 169 l 2
 481 171 474 172 469 178 c 0
 464 184 462 200 460 200 c 2
 410 200 l 2
 410 180 419 158 438 143 c 0
 452 132 469 129 490 126 c 2
 490 100 l 1
 530 100 l 1
 530 126 l 2
 550 129 573 135 587 147 c 0
EndSplineSet
Validated: 1
EndChar

StartChar: uni0015
Encoding: 21 21 20
Width: 734
VWidth: 200
Flags: W
HStem: 0 21G<215.5 264 522.5 549> 0 21G<215.5 264 522.5 549> 980 20G<239.5 356.5 531.5 581>
VStem: 10 186<284.779 536> 583 141<166 464>
LayerCount: 2
Fore
SplineSet
367 1000 m 1x78
 346 954 338 908 338 865 c 0
 338 759 391 671 439 643 c 1
 439 714 482 814 581 857 c 1
 581 643 724 571 724 357 c 0
 724 143 588 40 510 0 c 1
 535 60 583 128 583 204 c 0
 583 251 565 302 510 357 c 1
 510 316 470 243 439 214 c 0
 387 266 353 382 353 478 c 0
 353 513 357 545 367 571 c 1
 249 492 196 398 196 290 c 0
 196 202 232 105 296 0 c 1
 135 53 10 215 10 429 c 0
 10 643 112 911 367 1000 c 1x78
EndSplineSet
Validated: 1
EndChar

StartChar: uni0016
Encoding: 22 22 21
Width: 860
VWidth: 179
Flags: W
HStem: 0 21G<424 433> 0 21G<424 433> 474 480G<125.851 166.5 408 447 695 736> 579 21G<326.905 353.857 519.286 546.333> 940 20G<695 736>
VStem: 10 192<374.22 485.553> 340 193<318.595 410.642> 672 174<373.638 478.736>
LayerCount: 2
Fore
SplineSet
437 494 m 2x07
 437 494 533 418 533 353 c 0
 533 325 492 297 437 297 c 0
 382 297 340 325 340 353 c 0
 340 416 437 494 437 494 c 2x07
790 636 m 0
 790 632 789 629 789 625 c 0
 789 596 798 557 814 510 c 0
 834 453 846 413 846 384 c 0
 846 329 830 280 797 236 c 0
 771 204 731 168 675 129 c 0
 660 119 635 108 602 96 c 0
 585 90 571 85 559 80 c 0
 547 75 538 71 531 67 c 2
 510 58 l 2
 500 53 487 47 473 41 c 0
 453 29 438 16 428 0 c 1
 420 14 404 28 383 41 c 0
 373 46 364 50 355 54 c 2
 327 67 l 2
 293 76 244 97 181 129 c 0
 124 168 82 204 57 237 c 0
 26 281 10 331 10 385 c 0
 10 401 14 416 19 439 c 0
 24 460 31 485 41 514 c 0
 58 562 67 600 67 629 c 0
 67 632 67 634 67 636 c 0
 63 700 44 761 11 820 c 2
 146 954 l 2xa7
 187 922 234 905 285 900 c 0
 292 899 299 899 306 899 c 0
 348 899 388 908 428 928 c 0
 466 908 505 899 546 899 c 0
 554 899 562 899 570 900 c 0
 625 904 674 923 716 960 c 2x0f
 850 826 l 2
 815 768 796 705 790 636 c 0
437 241 m 0
 559 241 672 342 672 466 c 0
 672 550 607 630 589 663 c 2
 533 579 l 1
 437 719 l 1
 340 579 l 1x17
 285 663 l 2
 267 630 202 550 202 466 c 0
 202 342 315 241 437 241 c 0
EndSplineSet
Validated: 1
EndChar

StartChar: uni0017
Encoding: 23 23 22
Width: 980
VWidth: -20
Flags: W
HStem: 224 60<167 436.5> 400 120<630 956.829>
VStem: 630 340<413.745 506.255>
LayerCount: 2
Fore
SplineSet
38 108 m 1
 38 110 l 2
 38 112 39 113 41 113 c 2
 138 113 l 2
 143 113 147 117 147 122 c 0
 147 126 146 129 142 131 c 2
 53 176 l 2
 51 177 51 179 51 181 c 0
 51 183 51 184 52 185 c 2
 52 185 157 284 382 284 c 0
 491 284 629 261 796 192 c 1
 937 265 l 2
 938 266 940 266 942 266 c 0
 948 266 953 261 953 255 c 0
 953 253 952 251 951 249 c 2
 868 139 l 1
 951 29 l 2
 952 27 953 25 953 23 c 0
 953 17 948 12 942 12 c 0
 940 12 938 12 937 13 c 2
 796 86 l 2
 796 86 593 0 377 -0 c 0
 258 0 133 27 38 108 c 1
195 153 m 0
 214 153 228 168 228 188 c 0
 228 208 214 224 195 224 c 0
 177 224 162 208 162 188 c 0
 162 168 177 153 195 153 c 0
630 520 m 1
 913 520 l 2
 944 520 970 493 970 460 c 0
 970 427 944 400 913 400 c 2
 630 400 l 1
 630 520 l 1
108 434 m 2
 70 456 30 484 10 519 c 2
 10 520 l 1
 610 520 l 1
 610 401 l 1
 583 425 l 1
 557 401 l 1
 534 425 l 1
 511 401 l 1
 488 425 l 1
 466 401 l 1
 443 425 l 1
 421 401 l 1
 398 425 l 1
 375 401 l 1
 353 425 l 1
 330 401 l 1
 308 425 l 1
 285 401 l 1
 263 426 l 1
 240 403 l 1
 220 430 l 1
 195 408 l 1
 176 436 l 1
 150 416 l 1
 134 445 l 1
 108 434 l 2
EndSplineSet
Validated: 1
EndChar

StartChar: uni0018
Encoding: 24 24 23
Width: 980
VWidth: 180
Flags: W
HStem: 0 21G<10 210.367> 0 21G<10 210.367> 29 51<452.194 529.739> 479 21G<626 650.5 737.5 764.089> 640 40<420.109 550.985> 698 51<399.491 568.096> 940 20G<806.784 970> 940 20G<806.784 970>
VStem: 550 60<100.648 281.921> 594 67<513.297 583.908> 680 55<421.428 587.868>
LayerCount: 2
Fore
SplineSet
471 680 m 2x3c60
 491 680 l 2
 599 680 661 575 661 505 c 0
 661 492 658 479 643 479 c 0
 642 479 l 0
 610 479 621 533 594 577 c 0
 581 599 541 640 495 640 c 2
 478 640 l 2
 453 640 406 623 375 576 c 0
 336 519 362 477 329 477 c 0
 324 477 310 480 310 503 c 0
 310 610 410 680 471 680 c 2x3c60
486 80 m 1
 527 80 550 125 550 153 c 2
 550 212 l 2
 550 332 680 380 680 500 c 0
 680 613 580 698 484 698 c 0
 404 698 351 647 330 620 c 0
 268 544 305 471 261 471 c 0
 247 471 236 480 236 506 c 0
 236 625 334 749 488 749 c 0
 613 749 735 649 735 496 c 0
 735 354 610 324 610 200 c 2
 610 147 l 2x3ca0
 610 92 562 29 482 29 c 0
 479 30 477 31 473 31 c 0
 460 35 451 46 451 58 c 0
 451 60 452 62 452 64 c 0
 456 77 469 80 485 80 c 2
 486 80 l 1
882 960 m 1x3e20
 970 960 l 1
 970 837 l 1
 744 612 l 2
 731 647 715 680 687 706 c 0
 670 722 651 736 631 747 c 2
 825 960 l 1
 882 960 l 1x3e20
10 0 m 1xbc20
 10 97 l 1
 301 402 l 1
 462 294 l 1
 192 0 l 1
 10 0 l 1xbc20
EndSplineSet
Validated: 1
EndChar

StartChar: uni0019
Encoding: 25 25 24
Width: 940
VWidth: 180
Flags: W
HStem: 0 85<10 96.6841 153.316 326.231 383.316 556.684 613.316 786.684 843.316 930> 25 85<40.5262 209.474 270.003 439.474 500.526 669.474 730.526 899.474> 180 60<10 450> 540 40<10 210 310 450 490 550> 660 60<508.488 628.812> 819 20G<380 391.5> 829 128<424.2 519.253>
VStem: 210 100<266.807 540 580 596> 407 129<845.747 940.253> 450 40<240 540> 870 20<180 919>
LayerCount: 2
Fore
SplineSet
472 829 m 0x3ba0
 437 829 407 858 407 893 c 0
 407 928 437 957 472 957 c 0
 507 957 536 928 536 893 c 0
 536 858 507 829 472 829 c 0x3ba0
873 97 m 0
 890 89 910 85 930 85 c 2
 930 0 l 2xb920
 910 0 890 4 873 12 c 0
 855 20 836 25 815 25 c 0x7920
 794 25 775 20 757 12 c 0
 740 4 720 0 700 0 c 0xb920
 680 0 660 4 643 12 c 0
 625 20 606 25 585 25 c 0x7920
 564 25 545 20 527 12 c 0
 510 4 490 0 470 0 c 0xb920
 450 0 430 4 413 12 c 0
 395 20 376 25 355 25 c 0x7920
 334 25 314 20 296 12 c 0
 279 4 260 0 240 0 c 0xb920
 220 0 200 4 183 12 c 0
 165 20 146 25 125 25 c 0x7920
 104 25 85 20 67 12 c 0
 50 4 30 0 10 0 c 2
 10 85 l 2xb920
 30 85 50 89 67 97 c 0
 85 105 104 110 125 110 c 0x7920
 146 110 165 105 183 97 c 0
 200 89 220 85 240 85 c 0xb920
 260 85 279 89 296 97 c 0
 314 105 334 110 355 110 c 0x7920
 376 110 395 105 413 97 c 0
 430 89 450 85 470 85 c 0xb920
 490 85 510 89 527 97 c 0
 545 105 564 110 585 110 c 0x7920
 606 110 625 105 643 97 c 0
 660 89 680 85 700 85 c 0xb920
 720 85 740 89 757 97 c 0
 775 105 794 110 815 110 c 0x7920
 836 110 855 105 873 97 c 0
879 959 m 0
 884 957 890 953 890 948 c 2
 890 180 l 1
 870 180 l 1
 870 919 l 2
 850 891 705 755 650 700 c 0
 651 696 650 684 650 680 c 0
 650 663 633 660 616 660 c 2
 515 660 l 2
 507 660 498 665 492 671 c 2
 440 725 l 1
 310 596 l 1
 310 580 l 1
 550 580 l 1
 550 540 l 1
 490 540 l 1
 490 180 l 1
 10 180 l 1
 10 240 l 1
 450 240 l 1
 450 540 l 1
 310 540 l 1
 310 310 l 2
 310 281 288 258 260 258 c 0
 232 258 210 281 210 310 c 2
 210 540 l 1
 10 540 l 1
 10 580 l 1
 210 580 l 1
 210 669 l 2
 210 677 212 684 217 689 c 2
 354 826 l 2
 363 835 374 839 386 839 c 0x3d60
 397 839 409 835 418 827 c 0
 423 826 428 822 432 818 c 2
 432 818 513 740 528 720 c 2
 616 720 l 2
 620 720 625 722 629 720 c 2
 863 956 l 2
 867 959 874 961 879 959 c 0
EndSplineSet
Validated: 1
EndChar

StartChar: uni001A
Encoding: 26 26 25
Width: 877
VWidth: 200
Flags: W
HStem: 0 21G<224 653> 0 21G<224 653> 980 20G<186.5 188.5 403.5 474.5 688.5 690.5>
VStem: 385 107<107 505.804>
LayerCount: 2
Fore
SplineSet
153 1000 m 1xb0
 224 1000 314 786 314 786 c 1
 314 786 368 929 439 1000 c 1
 510 929 564 786 564 786 c 1
 564 786 653 1000 724 1000 c 1
 657 798 778 539 492 504 c 1
 492 107 l 2
 492 218 653 429 867 429 c 1
 653 286 796 0 510 0 c 0
 367 0 510 0 367 0 c 0
 81 0 224 286 10 429 c 1
 224 429 385 212 385 107 c 2
 385 504 l 1
 98 540 220 798 153 1000 c 1xb0
EndSplineSet
Validated: 1
EndChar

StartChar: uni001B
Encoding: 27 27 26
Width: 860
VWidth: 80
Flags: W
HStem: 0 21G<246.5 303 555 611.5> 0 21G<246.5 303 555 611.5> 265 230<63.6621 250.3 609.7 796.338> 740 20G<245.5 310.5 550.5 615.5>
VStem: 167 525<46 188.184>
LayerCount: 2
Fore
SplineSet
441 157 m 1xb8
 417 157 l 1
 393 44 331 0 275 0 c 0
 218 0 167 46 167 112 c 0
 167 174 212 254 343 330 c 1
 263 284 198 265 147 265 c 0
 56 265 10 323 10 380 c 0
 10 437 56 495 147 495 c 0
 198 495 264 476 344 430 c 1
 213 506 166 587 166 649 c 0
 166 714 217 760 274 760 c 0
 347 760 430 685 430 480 c 1
 430 685 514 760 587 760 c 0
 644 760 694 714 694 649 c 0
 694 587 648 506 517 430 c 1
 597 476 663 495 714 495 c 0
 805 495 850 437 850 380 c 0
 850 323 804 265 713 265 c 0
 662 265 596 284 516 330 c 1
 646 254 692 174 692 112 c 0
 692 46 640 0 583 -0 c 0
 527 0 465 44 441 157 c 1xb8
377 380 m 0
 377 350 400 326 430 326 c 0
 460 326 484 350 484 380 c 0
 484 410 460 434 430 434 c 0
 400 434 377 410 377 380 c 0
EndSplineSet
Validated: 1
EndChar

StartChar: uni001C
Encoding: 28 28 27
Width: 980
VWidth: 120
Flags: W
HStem: 0 80<64.0105 474.781> 120 100<17.1719 521.092> 260 80<64.0105 474.781> 822 20G<928.234 970>
LayerCount: 2
Fore
SplineSet
968 617 m 1
 889 0 l 1
 623 0 l 1
 545 620 l 1
 870 620 l 1
 934 842 l 1
 970 831 l 1
 908 617 l 1
 968 617 l 1
507 260 m 1
 32 260 l 1
 32 260 32 261 32 264 c 0
 32 279 39 340 160 340 c 2
 380 340 l 2
 499 340 507 280 507 264 c 0
 507 262 507 260 507 260 c 1
32 80 m 1
 507 80 l 1
 507 80 507 78 507 76 c 0
 507 60 499 -0 380 0 c 2
 160 0 l 2
 39 0 32 61 32 76 c 0
 32 79 32 80 32 80 c 1
487 120 m 2
 51 120 l 2
 29 120 10 142 10 170 c 0
 10 198 29 220 51 220 c 2
 487 220 l 2
 510 220 528 198 528 170 c 0
 528 142 510 120 487 120 c 2
EndSplineSet
Validated: 1
EndChar

StartChar: uni001D
Encoding: 29 29 28
Width: 877
VWidth: 128
Flags: W
HStem: 0 107<10 58.0424 248.34 343.797 533.498 631.063 822.307 867> 71 108<105.34 201.335 389.131 488.574 676.257 772.239> 214 107<10 58.0424 248.34 343.797 533.498 631.063 822.307 867> 286 107<105.34 201.335 389.131 488.574 676.257 772.239> 571 143<260 617> 837 20G<236.636 260 617 640.364>
LayerCount: 2
Fore
SplineSet
260 857 m 1x0c
 260 714 l 1
 617 714 l 1
 617 857 l 1
 867 643 l 1
 617 429 l 1
 617 571 l 1
 260 571 l 1
 260 429 l 1
 10 643 l 1
 260 857 l 1x0c
153 393 m 0x1c
 191 393 262 321 296 321 c 0x2c
 328 321 403 393 439 393 c 0x1c
 475 393 549 321 581 321 c 0x2c
 619 321 690 393 724 393 c 0
 725 393 725 393 726 393 c 0x1c
 765 393 838 321 867 321 c 2
 867 214 l 2x2c
 831 214 758 286 724 286 c 0x1c
 690 286 617 214 581 214 c 0x2c
 547 214 475 286 439 286 c 0x1c
 403 286 330 214 296 214 c 0x2c
 258 214 189 286 153 286 c 0x1c
 119 286 48 214 10 214 c 2
 10 321 l 2x2c
 46 321 115 393 153 393 c 0x1c
153 179 m 0x4c
 191 179 262 107 296 107 c 0x8c
 328 107 403 179 439 179 c 0x4c
 475 179 549 107 581 107 c 0x8c
 619 107 690 179 724 179 c 0
 725 179 725 179 726 179 c 0x4c
 765 179 838 107 867 107 c 2
 867 0 l 2x8c
 831 0 758 71 724 71 c 0x4c
 690 71 617 0 581 0 c 0x8c
 547 0 475 71 439 71 c 0x4c
 403 71 330 0 296 0 c 0x8c
 258 0 189 71 153 71 c 0x4c
 119 71 48 0 10 0 c 2
 10 107 l 2x8c
 46 107 115 179 153 179 c 0x4c
EndSplineSet
Validated: 1
EndChar

StartChar: uni001E
Encoding: 30 30 29
Width: 1020
VWidth: 57
Flags: W
HStem: 0 286<81 939> 357 143<367 653> 357 72<224 296 724 796> 500 71<227.015 293.297 727.015 793.297> 618 96<206 309 711 814>
VStem: 153 71<429 464> 796 71<429 497.7>
LayerCount: 2
Fore
SplineSet
206 714 m 1x8e
 309 714 l 1
 367 643 l 1
 367 618 l 1
 153 618 l 1
 153 643 l 1
 206 714 l 1x8e
711 714 m 1
 814 714 l 1
 867 643 l 1
 867 618 l 1
 653 618 l 1
 653 643 l 1
 711 714 l 1
153 571 m 1xbe
 367 571 l 1xbe
 367 500 l 1
 510 500 l 1
 653 500 l 1xce
 653 571 l 1
 867 571 l 1
 867 357 l 1
 153 357 l 1
 153 571 l 1xbe
260 500 m 0
 224 500 224 464 224 464 c 1
 224 429 l 1
 296 429 l 1
 296 464 l 2
 296 465 296 500 260 500 c 0
760 500 m 0
 724 500 724 464 724 464 c 2
 724 429 l 1
 796 429 l 1
 796 464 l 2
 796 465 796 500 760 500 c 0
81 286 m 1
 939 286 l 1
 1010 0 l 1
 10 0 l 1
 81 286 l 1
EndSplineSet
Validated: 1
EndChar

StartChar: uni001F
Encoding: 31 31 30
Width: 1020
VWidth: 200
Flags: W
HStem: 0 214<427.025 594.59> 570 107<318.392 415.406 600.302 704.903> 747 21G<247 264.5 755.5 773> 865 131<611.202 685.974> 876 123<341.758 412.841>
VStem: 171 107<344.611 526.651> 224 72<751.03 823.358> 456 108<317 528.643 655 790.89> 724 72<752.772 820.193> 742 107<347.611 529.651>
LayerCount: 2
Fore
SplineSet
10 214 m 2xe1
 1010 214 l 2
 939 71 653 0 510 0 c 0
 367 0 103 71 10 214 c 2xe1
653 996 m 0xf3
 760 996 796 862 796 791 c 0
 796 759 781 747 765 747 c 0
 746 747 724 765 724 786 c 0xf380
 697 840 670 865 646 865 c 0
 606 865 575 796 564 674 c 0
 563 668 564 661 564 655 c 1
 591 669 621 677 652 677 c 0
 757 677 849 604 849 463 c 2
 849 392 l 2
 849 356 822 338 795 338 c 0
 768 338 742 356 742 392 c 2
 742 463 l 2
 742 532 692 570 652 570 c 0
 613 570 567 532 564 469 c 2
 564 460 l 1
 564 286 l 2
 538 307 523 317 510 317 c 0
 497 317 483 307 456 286 c 2
 456 463 l 1
 456 466 l 2
 453 529 406 567 367 567 c 0
 327 567 278 529 278 460 c 2
 278 389 l 2xf540
 278 353 251 335 224 335 c 0xf3
 197 335 171 353 171 389 c 2
 171 460 l 2xf5
 171 601 262 674 367 674 c 0
 398 674 429 666 456 652 c 2
 456 677 l 2
 446 811 416 876 379 876 c 0
 354 876 325 846 296 788 c 0
 296 763 274 745 255 745 c 0
 239 745 224 757 224 790 c 0
 224 861 260 999 367 999 c 0xeb
 438 999 485 924 509 866 c 1
 533 922 582 996 653 996 c 0xf3
EndSplineSet
Validated: 1
EndChar

StartChar: space
Encoding: 32 32 31
Width: 877
VWidth: 200
Flags: W
HStem: 0 21G<10 581> 0 21G<10 581> 143 71<732.586 787.629> 786 143<81 510> 980 20G<691.353 730.524>
VStem: 10 71<571 786> 510 71<571 643 714 786> 653 71<219.702 621.517> 796 71<219.702 712>
LayerCount: 2
Fore
SplineSet
709 1000 m 1xbf80
 822 895 l 2
 846 872 867 857 867 786 c 2
 867 286 l 2
 867 143 780 143 760 143 c 0
 741 143 653 143 653 286 c 2
 653 571 l 2
 653 642 581 643 581 643 c 1
 581 0 l 1
 10 0 l 1
 10 857 l 2
 10 898 38 929 81 929 c 2
 510 929 l 2
 551 929 581 896 581 857 c 2
 581 714 l 2
 652 714 724 662 724 571 c 2
 724 286 l 2
 724 215 752 214 760 214 c 0
 768 214 796 215 796 286 c 2
 796 712 l 1
 742 766 l 2
 736 772 725 788 725 807 c 0
 725 818 729 831 740 842 c 2
 758 862 l 2
 755 865 752 868 749 871 c 2
 664 949 l 1
 709 1000 l 1xbf80
81 786 m 1
 81 571 l 1
 510 571 l 1
 510 786 l 1
 81 786 l 1
EndSplineSet
Validated: 1
EndChar

StartChar: exclam
Encoding: 33 33 32
Width: 940
VWidth: 160
Flags: W
HStem: 0 100<225 295> 0 80<644 714> 540 21G<90.9524 110 274.743 317.714 630.367 671.739 850 865.238> 820 100<645 715> 840 80<226 296>
VStem: 10 100<645 715> 10 80<216 286> 830 100<215 285> 850 80<644 714>
LayerCount: 2
Fore
SplineSet
10 645 m 1x2c
 10 920 l 1x2a
 296 920 l 1
 401 840 l 1
 226 840 l 1
 410 645 l 1
 296 540 l 1
 110 715 l 1
 110 540 l 1
 10 645 l 1x2c
645 920 m 1x3080
 930 920 l 1x2880
 930 644 l 1
 850 539 l 1
 850 714 l 1
 650 530 l 1
 543 639 l 1
 715 820 l 1
 540 820 l 1
 645 920 l 1x3080
930 285 m 1x61
 930 0 l 1x6080
 644 0 l 1
 539 80 l 1
 714 80 l 1
 530 280 l 1
 644 387 l 1
 830 215 l 1
 830 390 l 1
 930 285 l 1x61
295 0 m 1xa2
 10 0 l 1x62
 10 286 l 1
 90 391 l 1
 90 216 l 1
 290 400 l 1
 397 286 l 1
 225 100 l 1
 400 100 l 1
 295 0 l 1xa2
EndSplineSet
Validated: 1
EndChar

StartChar: quotedbl
Encoding: 34 34 33
Width: 980
VWidth: 160
Flags: W
HStem: 0 360<310 430 530 670> 0 120<434 529> 898 20G<471.794 517.727>
VStem: 130 300<118 360 440 500> 530 320<118 360 440 500>
LayerCount: 2
Fore
SplineSet
495 918 m 1x78
 970 500 l 1
 850 500 l 1
 850 0 l 1
 130 0 l 1
 130 500 l 1
 10 500 l 1
 495 918 l 1x78
670 360 m 1xb8
 670 440 l 1
 530 440 l 1
 530 620 l 1
 430 620 l 1
 430 440 l 1
 310 440 l 1
 310 360 l 1
 430 360 l 1xb8
 430 118 l 1
 434 120 l 1
 529 120 l 1x78
 530 118 l 1
 530 360 l 1
 670 360 l 1xb8
EndSplineSet
Validated: 1
EndChar

StartChar: numbersign
Encoding: 35 35 34
Width: 1020
VWidth: 200
Flags: W
HStem: 0 74<176.809 841.971> 143 71<367 653> 429 285<401.782 618.218> 714 21G<939 957.5> 766 20G<153 224 796 867> 857 143<81 939>
VStem: 10 71<756.268 857> 153 71<357 786> 296 428<514.033 628.141> 796 71<357 786> 939 71<757.557 857>
LayerCount: 2
Fore
SplineSet
81 1000 m 2xdfe0
 939 1000 l 2
 975 1000 1010 968 1010 929 c 2
 1010 786 l 2
 1010 749 976 714 939 714 c 2
 939 857 l 1
 81 857 l 1
 81 714 l 2
 44 714 10 746 10 786 c 2
 10 929 l 2
 10 968 42 1000 81 1000 c 2xdfe0
153 786 m 1
 224 786 l 1
 224 357 l 2
 295 357 367 285 367 214 c 2
 653 214 l 2
 653 285 725 357 796 357 c 2
 796 786 l 1
 867 786 l 1
 867 214 l 2
 867 175 834 143 796 143 c 2
 224 143 l 2
 181 143 153 171 153 214 c 2
 153 786 l 1
510 714 m 0xefe0
 622 714 724 646 724 571 c 0
 724 496 622 429 510 429 c 0
 398 429 296 496 296 571 c 0
 296 646 398 714 510 714 c 0xefe0
153 107 m 1
 175 85 190 76 224 74 c 2
 796 74 l 2
 798 74 799 74 801 74 c 0
 833 74 846 89 867 107 c 1
 867 32 834 0 796 0 c 2
 224 0 l 2
 183 0 153 32 153 107 c 1
EndSplineSet
Validated: 1
EndChar

StartChar: dollar
Encoding: 36 36 35
Width: 1020
VWidth: 57
Flags: W
HStem: 0 21G<224.5 295.5 724.5 795.5> 0 21G<224.5 295.5 724.5 795.5> 71 215<331 689> 357 357<296 724> 357 143<33.0715 81 939 989.934>
VStem: 81 143<286 357> 796 143<286 357>
LayerCount: 2
Fore
SplineSet
224 714 m 2x36
 796 714 l 2
 867 714 939 642 939 571 c 1
 796 571 724 465 724 357 c 2
 296 357 l 2
 296 459 224 571 81 571 c 1
 81 642 153 714 224 714 c 2x36
81 500 m 0xae
 152 500 224 429 224 286 c 2
 796 286 l 2
 796 429 868 500 939 500 c 0
 1010 500 1010 429 1010 429 c 2
 1010 385 974 357 939 357 c 2
 939 143 l 2
 939 106 903 71 867 71 c 2
 831 71 l 1
 831 71 831 0 760 0 c 0
 689 0 689 71 689 71 c 1
 331 71 l 1
 331 71 331 0 260 0 c 0
 189 0 189 71 189 71 c 1
 153 71 l 2
 112 71 81 97 81 143 c 2
 81 357 l 2
 44 357 10 392 10 429 c 2
 10 429 10 500 81 500 c 0xae
EndSplineSet
Validated: 1
EndChar

StartChar: percent
Encoding: 37 37 36
Width: 980
VWidth: 100
Flags: W
HStem: 0 240<72.0849 208.749 773.185 908.882> 100 42<465.5 514.5> 194 46<465.384 514.616> 280 56<465.384 514.616> 388 52<465.384 514.616> 480 50<465.198 514.802> 580 100<19.8198 72 465.198 514.802 909 960.18>
VStem: 72 137<3.5999e-07 100> 773 136<0 100>
LayerCount: 2
Fore
SplineSet
920 680 m 2x1f80
 948 680 970 655 970 630 c 0
 970 605 948 580 920 580 c 2
 909 580 l 1
 909 480 l 1
 72 480 l 1
 72 580 l 1
 60 580 l 2
 32 580 10 605 10 630 c 0
 10 655 32 680 60 680 c 2
 920 680 l 2x1f80
490 530 m 0
 504 530 515 541 515 555 c 0
 515 569 504 581 490 581 c 0
 476 581 465 569 465 555 c 0
 465 541 476 530 490 530 c 0
72 280 m 1
 72 440 l 1
 909 440 l 1
 909 280 l 1
 72 280 l 1
490 388 m 0
 476 388 465 376 465 362 c 0
 465 348 476 336 490 336 c 0
 504 336 515 348 515 362 c 0
 515 376 504 388 490 388 c 0
72 142 m 1x5f80
 72 240 l 1
 909 240 l 1x7f80
 909 26 l 2
 909 12 906 0 892 0 c 2
 792 0 l 2x9f80
 778 0 773 12 773 26 c 2
 773 100 l 1
 209 100 l 1x5f80
 209 26 l 2
 209 12 202 0 188 0 c 2
 88 0 l 2x9f80
 74 0 72 12 72 26 c 2
 72 142 l 1x5f80
490 194 m 0
 476 194 465 182 465 168 c 0
 465 154 476 142 490 142 c 0
 504 142 515 154 515 168 c 0
 515 182 504 194 490 194 c 0
EndSplineSet
Validated: 1
EndChar

StartChar: ampersand
Encoding: 38 38 37
Width: 966
VWidth: 128
Flags: W
HStem: 0 375<396.934 765.273> 134 89<316.582 367> 429 142<456 765.831> 491 89<171 204.064> 623 20G<11.8131 48 81 109.571> 714 90<509.389 779.627>
VStem: 10 38<429 643> 215 90<234.115 483.469> 367 89<571 657.702> 867 89<409.584 631.43>
LayerCount: 2
Fore
SplineSet
653 804 m 0xafc0
 841 804 956 728 956 536 c 0
 956 429 943 307 796 268 c 2
 796 107 l 2
 796 28 759 0 689 0 c 2
 474 0 l 2xafc0
 402 0 367 31 367 107 c 2
 367 134 l 2
 269 134 215 173 215 286 c 2
 215 429 l 2x6fc0
 215 467 198 491 171 491 c 2x1fc0
 81 429 l 1x2fc0
 81 643 l 1
 171 580 l 2x1fc0
 254 580 305 528 305 429 c 2
 305 286 l 2
 305 241 330 223 367 223 c 2x6fc0
 367 375 l 1
 796 375 l 2
 866 394 867 469 867 528 c 0
 867 531 867 533 867 536 c 0
 867 667 787 714 653 714 c 0
 547 714 456 714 456 571 c 2
 706 571 l 2
 758 571 796 534 796 482 c 2
 796 429 l 1
 367 429 l 1
 367 571 l 2
 367 785 495 804 653 804 c 0xafc0
12 643 m 1
 48 643 l 1
 48 429 l 1
 10 429 l 1
 12 643 l 1
EndSplineSet
Validated: 1
EndChar

StartChar: quotesingle
Encoding: 39 39 38
Width: 1020
VWidth: 200
Flags: W
HStem: 0 21G<565.133 900.958> 0 21G<565.133 900.958> 694 20G<178 219.056> 829 100<614.036 816.479>
VStem: 434 99<571.777 755.231> 913 97<572.079 725.184>
LayerCount: 2
Fore
SplineSet
724 929 m 0xbc
 773 927 1010 928 1010 571 c 2
 897 0 l 2
 784 0 694 0 581 0 c 2
 224 450 l 1
 103 429 l 1
 10 482 l 2
 10 546 153 714 203 714 c 2
 260 643 l 1
 260 500 l 1
 492 357 l 1
 439 571 l 2
 436 593 434 615 434 635 c 0
 434 842 586 929 715 929 c 0
 718 929 721 929 724 929 c 0xbc
724 829 m 0
 585 829 533 762 533 666 c 0
 533 637 538 604 547 571 c 2
 905 571 l 2
 910 594 913 618 913 639 c 0
 913 748 843 828 724 829 c 0
EndSplineSet
Validated: 1
EndChar

StartChar: parenleft
Encoding: 40 40 39
Width: 939
VWidth: 186
Flags: W
HStem: 0 60<644.464 780.563> 534 60<817 853.988> 567 60<510 579.566> 859 20G<876 907.182> 867 80<70 450>
VStem: 10 60<607 867> 450 60<627 867> 539 60<112.219 339.43> 588 60<372.822 557.601> 756 58<416.316 534 594 736.263> 825 59<108.219 331.926> 854 59<585 736.527>
LayerCount: 2
Fore
SplineSet
872 785 m 1x9760
 896 764 910 738 910 649 c 2
 910 640 l 2
 910 614 913 598 913 585 c 0x9650
 913 581 913 576 912 573 c 0
 907 549 894 535 870 535 c 0
 860 535 836 534 817 534 c 1
 819 483 822 453 834 421 c 2
 840 406 l 2
 857 364 884 293 884 203 c 0
 884 76 819 0 710 0 c 0
 608 0 546 71 540 195 c 0
 540 199 539 203 539 207 c 0xd760
 539 252 550 302 562 354 c 0
 572 397 582 442 587 487 c 0
 588 497 588 506 588 514 c 0
 588 539 584 550 580 554 c 0
 571 564 546 567 521 567 c 2
 510 567 l 1
 510 27 l 1
 10 27 l 1
 10 904 l 2
 10 928 32 947 56 947 c 2
 469 947 l 2
 493 947 510 928 510 904 c 2
 510 627 l 1
 521 627 l 2xaec0
 557 627 597 624 624 594 c 0
 640 576 648 549 648 512 c 0xc6c0
 648 502 647 491 646 479 c 0
 641 430 631 384 621 340 c 0
 610 291 599 246 599 207 c 0
 599 204 600 200 600 197 c 0
 604 106 641 60 710 60 c 0
 786 60 825 108 825 203 c 0
 825 282 800 343 784 383 c 2
 778 400 l 2
 761 444 759 483 757 543 c 0
 757 556 756 570 756 583 c 0
 756 629 760 677 772 725 c 0
 788 787 821 817 876 867 c 2xcf60
 889 879 l 1
 929 835 l 1
 914 822 l 2
 898 808 883 796 872 785 c 1x9760
450 607 m 1
 450 867 l 1
 70 867 l 1x8e40
 70 607 l 1
 450 607 l 1
850 640 m 2
 850 649 l 2
 850 712 846 727 835 737 c 1
 831 729 832 720 829 710 c 0
 819 672 815 633 814 594 c 1
 815 594 816 594 817 594 c 0
 819 594 822 594 826 594 c 0
 838 594 854 595 854 597 c 0xc650
 854 608 850 624 850 640 c 2
EndSplineSet
Validated: 1
EndChar

StartChar: parenright
Encoding: 41 41 40
Width: 1020
VWidth: 57
Flags: W
HStem: 0 21G<10 153 867 1010> 0 21G<10 153 867 1010> 71 72<349 671> 214 72<299.168 720.832> 357 72<349 671> 500 71<349 671> 694 20G<70 81 927 939>
VStem: 10 143<0 695.333> 224 72<149.407 207.869 292.131 350.593 435.131 493.593> 724 72<149.407 207.869 292.131 350.593 435.131 493.593> 867 143<0 695.333>
LayerCount: 2
Fore
SplineSet
70 714 m 0xbfe0
 77 715 81 714 81 714 c 1
 81 714 153 714 153 643 c 2
 153 0 l 1
 10 0 l 1
 10 643 l 2
 10 697 50 711 70 714 c 0xbfe0
927 714 m 0
 934 715 939 714 939 714 c 1
 939 714 1010 714 1010 643 c 2
 1010 0 l 1
 867 0 l 1
 867 643 l 2
 867 697 907 711 927 714 c 0
224 571 m 1
 796 571 l 1
 796 71 l 1
 224 71 l 1
 224 571 l 1
349 500 m 1
 349 500 296 500 296 464 c 0
 296 430 344 429 349 429 c 0
 671 429 l 1
 676 429 724 430 724 464 c 0
 724 500 671 500 671 500 c 1
 349 500 l 1
349 357 m 1
 349 357 296 357 296 321 c 0
 296 287 344 286 349 286 c 0
 671 286 l 1
 676 286 724 287 724 321 c 0
 724 357 671 357 671 357 c 1
 349 357 l 1
349 214 m 1
 344 214 296 213 296 179 c 0
 296 143 349 143 349 143 c 1
 671 143 l 1
 671 143 724 143 724 179 c 0
 724 213 676 214 671 214 c 0
 349 214 l 1
EndSplineSet
Validated: 5
EndChar

StartChar: plus
Encoding: 43 43 41
Width: 980
VWidth: 0
Flags: W
HStem: 0 320<10 450 531.016 970> 340 160<10 290 350 450 530 630 690 970> 400 100<450 530> 580 60<350 630>
VStem: 290 60<500 580> 630 60<500.08 580>
LayerCount: 2
Fore
SplineSet
700 499 m 1xdc
 700 500 l 1
 961 500 l 2
 966 500 970 495 970 490 c 2
 970 352 l 2
 970 347 966 340 961 340 c 2
 541 340 l 2xdc
 536 340 530 347 530 352 c 2
 530 382 l 2
 530 387 528 400 523 400 c 2
 457 400 l 2xbc
 452 400 450 387 450 382 c 2
 450 352 l 2
 450 347 444 340 439 340 c 2
 19 340 l 2
 14 340 10 347 10 352 c 2
 10 490 l 2
 10 495 14 500 19 500 c 2
 280 500 l 2
 285 500 290 503 290 508 c 2
 290 631 l 2
 290 636 293 640 298 640 c 2
 682 640 l 2
 687 640 690 636 690 631 c 2
 690 508 l 2
 690 503 695 499 700 499 c 1xdc
352 500 m 0
 628 500 l 2
 633 500 630 503 630 508 c 2
 630 578 l 2
 630 583 633 580 628 580 c 2
 352 580 l 2
 347 580 350 583 350 578 c 2
 350 508 l 2
 350 503 347 500 352 500 c 0
531 206 m 1
 530 203 l 1
 530 301 l 2
 530 306 536 320 541 320 c 2
 961 320 l 2
 966 320 970 306 970 301 c 2
 970 9 l 2
 970 4 966 0 961 0 c 2
 19 0 l 2
 14 0 10 4 10 9 c 2
 10 301 l 2
 10 306 14 320 19 320 c 2
 439 320 l 2
 444 320 450 306 450 301 c 2
 450 203 l 2
 450 198 452 200 457 200 c 2
 523 200 l 2
 528 200 531 201 531 206 c 1
EndSplineSet
Validated: 5
EndChar

StartChar: comma
Encoding: 44 44 42
Width: 734
VWidth: 200
Flags: W
HStem: 0 268<85.3653 314 421 648.635> 375 268<85.3653 314 421 648.635> 714 63<129.458 305 430 604.526> 902 62<130.52 254.573 480.766 603.72>
VStem: 10 304<75.3653 268 375 567.635> 55 62<791.229 889.766> 421 303<75.3653 268 375 567.635> 617 63<789.474 888.044>
LayerCount: 2
Fore
SplineSet
180 964 m 0xf5
 277 964 343 907 367 824 c 1
 391 907 460 964 555 964 c 0
 617 964 680 918 680 837 c 0
 680 756 638 714 557 714 c 2
 374 714 l 1
 356 714 l 1
 173 714 l 2
 92 714 55 758 55 839 c 0
 55 920 118 964 180 964 c 0xf5
180 902 m 0
 120 902 117 852 117 841 c 0
 117 840 117 839 117 839 c 0
 117 839 117 838 117 837 c 0
 117 827 120 777 180 777 c 2
 305 777 l 2
 298 822 281 902 180 902 c 0
555 902 m 0
 454 902 437 822 430 777 c 2
 555 777 l 2
 614 777 617 824 617 836 c 0
 617 838 617 839 617 839 c 0
 617 842 617 902 555 902 c 0
153 643 m 2
 314 643 l 1
 314 375 l 1
 10 375 l 1
 10 500 l 2xf8
 10 571 82 643 153 643 c 2
421 643 m 1xf2
 581 643 l 2
 652 643 724 571 724 500 c 2
 724 375 l 1
 421 375 l 1
 421 643 l 1xf2
10 268 m 1xf8
 314 268 l 1
 314 0 l 1
 153 0 l 2
 82 0 10 72 10 143 c 2
 10 268 l 1xf8
421 268 m 1xf2
 724 268 l 1
 724 143 l 2
 724 72 652 0 581 0 c 2
 421 0 l 1
 421 268 l 1xf2
EndSplineSet
Validated: 1
EndChar

StartChar: hyphen
Encoding: 45 45 43
Width: 1020
VWidth: 200
Flags: W
HStem: 0 71<81 153 296 367 439 581 653 724 867 939> 357 72<81 153 296 367 439 581 653 724 867 939> 500 21G<224 796> 786 214<581 724>
VStem: 153 143<71 357> 367 72<71 357> 474 72<674.629 997.323> 581 72<71 357> 724 143<71 357>
LayerCount: 2
Fore
SplineSet
510 1000 m 0
 511 1000 l 0
 529 1000 546 989 546 964 c 2
 546 676 l 2
 731 664 796 567 796 500 c 2
 224 500 l 2
 224 567 289 664 474 676 c 2
 474 964 l 2
 474 988 492 1000 510 1000 c 0
581 1000 m 1
 867 1000 l 1
 724 893 l 1
 867 786 l 1
 581 786 l 1
 581 1000 l 1
81 429 m 1
 939 429 l 1
 939 357 l 1
 867 357 l 1
 867 71 l 1
 939 71 l 1
 1010 0 l 1
 10 0 l 1
 81 71 l 1
 153 71 l 1
 153 357 l 1
 81 357 l 1
 81 429 l 1
296 357 m 1
 296 71 l 1
 367 71 l 1
 367 357 l 1
 296 357 l 1
439 357 m 1
 439 71 l 1
 581 71 l 1
 581 357 l 1
 439 357 l 1
653 357 m 1
 653 71 l 1
 724 71 l 1
 724 357 l 1
 653 357 l 1
EndSplineSet
Validated: 1
EndChar

StartChar: period
Encoding: 46 46 44
Width: 700
VWidth: 180
Flags: W
HStem: 0 63<161 193> 522 21G<370.5 383.5> 743 36G<49 186 561.5 579> 807 153<434.691 541.309>
VStem: 10 67<282.636 404.485> 132 28<318.392 377.772> 193 37<160.243 221.67> 284 65<139.564 261.294> 411 154<831.078 936.446> 573 117<12.9146 430.481>
LayerCount: 2
Fore
SplineSet
678 542 m 2
 682 525 690 481 690 462 c 0
 690 443 690 61 690 61 c 2
 690 27 665 0 631 -0 c 0
 597 0 573 27 573 61 c 2
 573 401 l 1
 521 620 l 2
 515 605 507 587 505 583 c 0
 499 573 493 566 481 560 c 2
 394 524 l 1
 390 523 386 522 381 522 c 0
 360 522 343 539 343 560 c 0
 343 575 352 588 365 594 c 2
 365 594 430 622 437 625 c 0
 438 626 444 628 447 634 c 0
 455 651 488 734 495 752 c 0
 501 767 516 789 548 797 c 0
 553 798 559 799 564 799 c 0
 594 799 622 779 629 748 c 2
 678 542 l 2
411 884 m 0
 411 926 445 960 488 960 c 0
 531 960 565 926 565 884 c 0
 565 842 531 807 488 807 c 0
 445 807 411 842 411 884 c 0
193 238 m 2
 206 234 215 229 221 222 c 0
 227 215 230 206 230 196 c 0
 230 185 227 176 220 168 c 0
 213 160 204 154 193 152 c 2
 193 238 l 2
140 371 m 0
 145 378 151 383 160 386 c 2
 160 310 l 2
 150 314 144 319 139 326 c 0
 134 333 132 340 132 348 c 0
 132 356 135 364 140 371 c 0
343 473 m 1
 347 465 349 456 349 446 c 2
 349 0 l 1
 10 0 l 1
 10 689 l 2
 10 719 34 743 64 743 c 2
 175 743 l 2
 197 743 215 730 224 712 c 2
 343 473 l 1
260 137 m 0
 276 155 284 178 284 204 c 0
 284 228 278 247 265 262 c 0
 252 277 228 289 193 299 c 2
 193 385 l 2
 207 379 216 367 219 350 c 2
 275 357 l 2
 271 379 263 397 249 410 c 0
 235 423 216 431 193 434 c 2
 193 455 l 1
 161 455 l 1
 161 434 l 2
 136 432 115 422 100 406 c 0
 85 390 77 369 77 345 c 0
 77 321 83 302 97 285 c 0
 110 268 132 255 161 247 c 2
 161 155 l 2
 153 159 145 166 139 174 c 0
 132 183 128 192 126 204 c 2
 68 198 l 2
 72 169 82 147 98 131 c 0
 114 115 135 106 161 103 c 2
 161 63 l 1
 193 63 l 1
 193 104 l 2
 222 108 244 119 260 137 c 0
EndSplineSet
Validated: 5
EndChar

StartChar: slash
Encoding: 47 47 45
Width: 913
VWidth: 164
Flags: W
HStem: 0 21G<259.5 351 597 688.5> 0 21G<259.5 351 597 688.5> 632 21G<466.5 482> 640 277G<218 278 502.5 542.683 664 724.5> 722 188<142.148 237.482>
VStem: 46 857<279.416 506.782> 430 91<648.916 812.054>
LayerCount: 2
Fore
SplineSet
523 937 m 2x22
 585 874 l 2
 555 844 536 806 528 768 c 0
 524 748 522 689 521 661 c 0
 505 652 490 644 474 632 c 0
 459 643 445 649 430 658 c 0
 431 691 433 758 439 786 c 0
 449 837 482 896 523 937 c 2x22
10 893 m 1
 54 904 94 910 131 910 c 0
 242 910 318 857 367 750 c 0
 326 731 284 722 244 722 c 0x08
 134 722 38 788 10 893 c 1
117 589 m 0
 148 623 192 640 244 640 c 0
 312 640 393 611 474 554 c 0
 552 613 631 638 697 638 c 0
 752 638 798 621 831 589 c 0
 879 543 903 464 903 393 c 0
 903 250 760 0 617 0 c 0
 577 0 545 18 474 54 c 0
 403 18 371 0 331 0 c 0
 188 0 46 250 46 393 c 0x94
 46 464 73 543 117 589 c 0
EndSplineSet
Validated: 1
EndChar

StartChar: zero
Encoding: 48 48 46
Width: 1000
VWidth: 120
Flags: W
HStem: 0 160<256.282 363.718 836.282 943.718> 180 80<325 985.607> 393 347<330 944.681> 720 80<14.393 155>
VStem: 230 160<26.2823 133.718> 810 160<26.2823 133.718>
LayerCount: 2
Fore
SplineSet
810 80 m 0xcc
 810 124 846 160 890 160 c 0
 934 160 970 124 970 80 c 0
 970 36 934 0 890 0 c 0
 846 0 810 36 810 80 c 0xcc
230 80 m 0
 230 124 266 160 310 160 c 0
 354 160 390 124 390 80 c 0
 390 36 354 0 310 0 c 0
 266 0 230 36 230 80 c 0
950 260 m 2
 972 260 990 242 990 220 c 0
 990 198 972 180 950 180 c 2
 254 180 l 2
 240 180 226 188 219 201 c 0
 216 207 214 213 214 220 c 0
 214 227 216 235 220 241 c 2
 262 309 l 1
 155 720 l 1
 50 720 l 2
 28 720 10 738 10 760 c 0
 10 782 28 800 50 800 c 2
 186 800 l 2xdc
 204 800 220 788 225 770 c 2
 232 740 l 1
 910 740 l 2
 932 740 950 722 950 700 c 2
 950 435 l 2
 950 413 932 394 910 393 c 2
 330 393 l 1xec
 343 313 l 2
 344 310 345 306 345 303 c 0
 345 296 343 288 339 282 c 2
 325 260 l 1
 950 260 l 2
EndSplineSet
Validated: 1
EndChar

StartChar: one
Encoding: 49 49 47
Width: 1020
VWidth: 200
Flags: W
HStem: 0 21G<456 564> 0 21G<456 564> 500 214<581 867> 714 215<153 439> 962 20G<496.5 523.5>
VStem: 456 108<0 972.773>
LayerCount: 2
Fore
SplineSet
510 982 m 0x9c
 537 982 564 965 564 929 c 2
 564 0 l 1
 456 0 l 1
 456 929 l 2
 456 965 483 982 510 982 c 0x9c
153 929 m 1
 439 929 l 1
 439 714 l 1
 153 714 l 1
 10 821 l 1
 153 929 l 1
581 714 m 1x2c
 867 714 l 1
 1010 607 l 1
 867 500 l 1
 581 500 l 1
 581 714 l 1x2c
EndSplineSet
Validated: 1
EndChar

StartChar: two
Encoding: 50 50 48
Width: 963
VWidth: 171
Flags: W
HStem: 0 21G<280.5 285.5> 0 21G<280.5 285.5> 503 21G<794.5 799.5 887.5 892.5> 644 20G<581.5 590.5 678.5 683.5>
LayerCount: 2
Fore
SplineSet
341 74 m 2xb0
 345 70 346 66 346 61 c 0
 346 56 344 50 340 46 c 2
 297 5 l 2
 293 1 288 0 283 0 c 0
 278 0 272 2 268 6 c 2
 15 279 l 2
 11 283 10 288 10 293 c 0
 10 298 12 303 16 307 c 2
 60 348 l 2
 64 352 68 353 73 353 c 0
 78 353 84 351 88 347 c 2
 341 74 l 2xb0
664 587 m 0
 668 583 669 579 669 574 c 0
 669 569 667 563 663 559 c 2
 389 304 l 2
 385 300 381 298 376 298 c 0
 371 298 365 301 361 305 c 2
 296 375 l 2
 292 379 291 384 291 389 c 0
 291 394 293 399 297 403 c 2
 570 659 l 2
 574 663 579 664 584 664 c 0
 589 664 594 662 598 658 c 2
 664 587 l 0
434 161 m 2
 438 157 439 153 439 148 c 0
 439 143 437 137 433 133 c 2
 389 92 l 2
 385 88 381 87 376 87 c 0
 371 87 365 89 361 93 c 2
 108 366 l 2
 104 370 103 375 103 380 c 0
 103 385 105 390 109 394 c 2
 153 435 l 2
 157 439 161 440 166 440 c 0
 171 440 177 438 181 434 c 2
 434 161 l 2
855 578 m 2
 859 574 861 569 861 564 c 0
 861 559 858 553 854 549 c 2
 811 509 l 2
 807 505 802 503 797 503 c 0
 792 503 786 506 782 510 c 2
 530 782 l 2
 526 786 524 791 524 796 c 0
 524 801 527 806 531 810 c 2
 574 851 l 2
 578 855 583 857 588 857 c 0
 593 857 598 854 602 850 c 2
 855 578 l 2
948 664 m 0
 952 660 953 656 953 651 c 0
 953 646 951 640 947 636 c 2
 904 595 l 2
 900 591 895 590 890 590 c 0
 885 590 880 592 876 596 c 2
 623 869 l 2
 619 873 617 878 617 883 c 0
 617 888 620 893 624 897 c 2
 667 938 l 2
 671 942 676 943 681 943 c 0
 686 943 691 941 695 937 c 2
 948 664 l 0
EndSplineSet
Validated: 1
EndChar

StartChar: three
Encoding: 51 51 49
Width: 980
VWidth: 114
Flags: W
HStem: -0 21G<769 774> -0 21G<769 774> 719 116<622.805 738.149>
VStem: 10 580<573.451 686.549> 772 198<573.451 686.549>
LayerCount: 2
Fore
SplineSet
835 408 m 1xb8
 835 408 827 399 827 377 c 0
 827 369 828 359 831 347 c 2
 831 346 l 2
 831 345 834 336 838 326 c 2
 926 72 l 2
 927 70 927 67 927 65 c 0
 927 57 922 49 914 46 c 2
 779 1 l 2
 777 0 775 0 773 -0 c 0
 765 0 757 6 754 14 c 2
 627 381 l 2
 623 391 611 401 600 403 c 2
 384 458 l 2
 374 462 357 467 346 469 c 2
 30 520 l 2
 19 522 10 532 10 543 c 2
 10 710 l 2
 10 721 19 731 30 732 c 2
 346 766 l 2
 357 767 374 772 384 776 c 2
 384 776 539 835 651 835 c 0
 771 835 951 766 951 766 c 2
 961 762 970 750 970 739 c 2
 970 494 l 2
 970 483 962 470 952 465 c 2
 866 430 l 2
 856 427 842 417 835 408 c 1xb8
681 541 m 0
 731 541 772 581 772 630 c 0
 772 679 731 719 681 719 c 0
 631 719 590 679 590 630 c 0
 590 581 631 541 681 541 c 0
EndSplineSet
Validated: 1
EndChar

StartChar: four
Encoding: 52 52 50
Width: 1020
VWidth: 200
Flags: W
HStem: 0 71<123.975 253.517 481.483 610.775> 286 71<123.975 254.001 480.999 610.775> 429 71<581 867> 571 72<581 867> 714 72<581 867> 857 143<581 867>
VStem: 10 71<113.975 243.775> 296 143<144.225 243.409 319 1000> 653 71<113.975 243.775> 867 143<0 429 500 571 643 714 786 857>
LayerCount: 2
Fore
SplineSet
296 1000 m 1
 439 1000 l 1
 439 319 l 2
 469 342 506 357 546 357 c 0
 644 357 724 277 724 179 c 0
 724 81 644 0 546 0 c 0
 460 0 389 62 372 143 c 2
 363 143 l 2
 346 62 275 0 189 0 c 0
 91 0 10 81 10 179 c 0
 10 277 91 357 189 357 c 0
 229 357 266 342 296 319 c 2
 296 1000 l 1
581 1000 m 1
 867 1000 l 2
 938 1000 1010 928 1010 857 c 2
 1010 0 l 1
 867 0 l 1
 867 429 l 1
 581 429 l 1
 581 500 l 1
 867 500 l 1
 867 571 l 1
 581 571 l 1
 581 643 l 1
 867 643 l 1
 867 714 l 1
 581 714 l 1
 581 786 l 1
 867 786 l 1
 867 857 l 1
 581 857 l 1
 581 1000 l 1
189 286 m 0
 129 286 81 239 81 179 c 0
 81 119 129 71 189 71 c 0
 249 71 296 119 296 179 c 0
 296 239 249 286 189 286 c 0
546 286 m 0
 486 286 439 239 439 179 c 0
 439 119 486 71 546 71 c 0
 606 71 653 119 653 179 c 0
 653 239 606 286 546 286 c 0
EndSplineSet
Validated: 1
EndChar

StartChar: five
Encoding: 53 53 51
Width: 1020
VWidth: 79
Flags: W
HStem: 0 21G<157.5 166> 0 21G<157.5 166> 176 49<642 720> 302 97<562.212 644.375> 620 20G<348.5 651.5>
VStem: 554 99<310.659 391.341>
LayerCount: 2
Fore
SplineSet
587 305 m 0x3c
 566 312 554 331 554 351 c 0
 554 356 554 362 556 367 c 0
 563 387 582 399 603 399 c 0
 608 399 615 399 620 397 c 0
 641 390 653 371 653 351 c 0
 653 346 652 340 650 335 c 0
 643 315 625 302 604 302 c 0
 599 302 592 303 587 305 c 0x3c
994 620 m 2
 1005 619 1010 614 1010 608 c 0
 1010 603 1006 598 999 595 c 2
 663 496 l 1
 744 223 l 2
 755 220 763 212 763 200 c 0
 763 187 753 176 739 176 c 2
 630 176 l 2
 623 176 617 179 612 184 c 2
 581 218 l 1
 548 210 l 1
 549 210 l 1
 348 162 l 1
 184 9 l 2
 178 3 170 0 162 0 c 0xbc
 153 0 145 4 139 10 c 0
 133 16 130 24 130 32 c 0
 130 40 132 48 139 54 c 2
 357 259 l 2
 363 264 371 268 380 270 c 2
 479 294 l 1
 494 447 l 1
 259 377 l 1
 218 459 133 468 98 468 c 0
 88 468 82 467 82 467 c 1
 83 476 84 485 84 493 c 0
 84 588 10 620 10 620 c 1
 10 620 220 640 477 640 c 0
 826 640 994 620 994 620 c 2
720 224 m 2
 641 490 l 1
 518 454 l 1
 503 299 l 1
 532 307 l 2
 536 308 539 308 543 308 c 0
 558 308 572 301 581 290 c 2
 583 289 l 1
 642 225 l 2
 654 225 695 224 720 224 c 2
EndSplineSet
Validated: 1
EndChar

StartChar: six
Encoding: 54 54 52
Width: 860
VWidth: 199
Flags: W
HStem: 0 21G<156.5 164.5> 0 21G<156.5 164.5> 680 233G<259 269 756.5 784.5> 980 20G<469 539>
VStem: 479 371<755.5 880>
LayerCount: 2
Fore
SplineSet
181 10 m 1xb8
 177 3 169 0 160 0 c 0
 153 0 145 2 138 6 c 2
 31 67 l 2
 18 74 10 86 10 97 c 0
 10 100 10 103 12 106 c 2
 467 827 l 2
 475 840 479 851 479 861 c 0
 479 899 422 913 364 913 c 0
 317 913 270 904 248 892 c 1
 290 968 425 994 513 1000 c 2
 539 998 l 2
 589 973 659 936 706 905 c 0
 740 851 777 823 828 823 c 0
 843 811 850 795 850 778 c 0
 850 733 806 680 763 680 c 0
 750 680 737 684 725 696 c 0
 725 719 677 769 625 769 c 0
 605 769 585 762 567 743 c 2
 181 10 l 1xb8
EndSplineSet
Validated: 1
EndChar

StartChar: seven
Encoding: 55 55 53
Width: 980
VWidth: 180
Flags: W
HStem: 0 21G<324.5 655.5> 0 21G<324.5 655.5> 300 360<10 310 670 970> 940 20G<324.5 655.5> 940 20G<324.5 655.5>
VStem: 310 360<2.69993e-07 300 660 960>
LayerCount: 2
Fore
SplineSet
970 640 m 2x2c
 970 320 l 2
 970 309 961 300 950 300 c 2
 690 300 l 2
 679 300 670 291 670 280 c 2
 670 20 l 2
 670 9 661 0 650 0 c 2
 330 0 l 2
 319 0 310 9 310 20 c 2
 310 280 l 2
 310 291 301 300 290 300 c 2
 30 300 l 2
 19 300 10 309 10 320 c 2
 10 640 l 2
 10 651 19 660 30 660 c 2
 290 660 l 2
 301 660 310 669 310 680 c 2
 310 940 l 2xac
 310 951 319 960 330 960 c 2
 650 960 l 2x34
 661 960 670 951 670 940 c 2
 670 680 l 2
 670 669 679 660 690 660 c 2
 950 660 l 2
 961 660 970 651 970 640 c 2x2c
EndSplineSet
Validated: 1
EndChar

StartChar: eight
Encoding: 56 56 54
Width: 958
VWidth: 168
Flags: W
HStem: 0 62<349.689 608.257> 406 125<354 604> 761 20G<271 354 604 686> 875 63<349.689 608.257>
VStem: 10 62<339.689 598.257> 244 110<203 406 531 734> 604 109<203 406 531 734> 885 63<339.689 598.257>
LayerCount: 2
Fore
SplineSet
479 938 m 0
 738 938 948 728 948 469 c 0
 948 210 738 0 479 0 c 0
 220 0 10 210 10 469 c 0
 10 728 220 938 479 938 c 0
479 875 m 0
 255 875 72 693 72 469 c 0
 72 245 255 62 479 62 c 0
 703 62 885 245 885 469 c 0
 885 693 703 875 479 875 c 0
291 781 m 1
 354 781 l 1
 354 531 l 1
 604 531 l 1
 604 781 l 1
 666 781 l 1
 713 734 l 1
 713 203 l 1
 666 156 l 1
 604 156 l 1
 604 406 l 1
 354 406 l 1
 354 156 l 1
 291 156 l 2
 244 203 l 2
 244 734 l 1
 291 781 l 1
EndSplineSet
Validated: 1
EndChar

StartChar: nine
Encoding: 57 57 55
Width: 1020
VWidth: 20
Flags: W
HStem: 0 180<119.151 185 330 410 430 626.138 698 748.959 779 830.959 860 899.49> 500 180<313 410 430 614.923 683 737.148 764 818.191 846 896.509>
VStem: 410 20<180 500> 510 102<271.795 387.798> 695 59<251.035 418.978> 785 50<233.385 429.843> 867 50<234.562 428.497> 948 62<228.83 429.285>
LayerCount: 2
Fore
SplineSet
526 420 m 2
 574 420 612 377 612 330 c 0
 612 282 574 240 526 240 c 2
 510 240 l 1
 510 420 l 1
 526 420 l 2
810 680 m 2
 920 680 1010 590 1010 480 c 2
 1010 200 l 2
 1010 90 920 0 810 0 c 2
 210 0 l 2
 100 0 10 90 10 200 c 2
 10 480 l 2
 10 590 100 680 210 680 c 2
 810 680 l 2
410 180 m 1
 410 500 l 1
 313 500 l 1
 81 180 l 1
 185 180 l 1
 212 220 l 1
 330 220 l 1
 330 180 l 1
 410 180 l 1
550 180 m 2
 639 180 695 249 695 338 c 0
 695 427 624 500 535 500 c 2
 430 500 l 1
 430 180 l 1
 550 180 l 2
725 180 m 1
 735 180 l 2
 767 220 785 277 785 332 c 0
 785 394 763 440 723 500 c 2
 683 500 l 2
 728 460 754 396 754 332 c 0
 754 276 734 220 698 180 c 2
 725 180 l 1
807 180 m 1
 817 180 l 2
 849 220 867 277 867 332 c 0
 867 394 844 440 804 500 c 2
 764 500 l 2
 809 460 835 396 835 332 c 0
 835 276 815 220 779 180 c 2
 807 180 l 1
898 180 m 2
 930 220 948 277 948 332 c 0
 948 394 926 440 886 500 c 2
 846 500 l 2
 891 460 917 396 917 332 c 0
 917 276 896 220 860 180 c 2
 898 180 l 2
330 280 m 1
 257 280 l 1
 330 398 l 1
 330 280 l 1
EndSplineSet
Validated: 1
EndChar

StartChar: colon
Encoding: 58 58 56
Width: 1020
VWidth: 128
Flags: W
HStem: 0 71<413.592 966.798> 143 143<675.483 934.635> 393 71<103.112 203.425> 571 72<653 747.652> 607 72<100.882 204.178> 786 71<224 581 653 939>
VStem: 10 71<486.112 585.638> 581 72<643 786> 939 71<286 383.559>
LayerCount: 2
Fore
SplineSet
153 857 m 1xf780
 1010 857 l 1
 939 786 l 1
 653 786 l 1
 653 643 l 2xf780
 867 643 1007 460 1010 286 c 0
 1010 215 938 143 867 143 c 2
 510 143 l 2
 439 143 367 215 367 286 c 2
 233 420 l 2
 210 403 184 393 153 393 c 0
 75 393 10 458 10 536 c 0
 10 614 75 679 153 679 c 0xef80
 188 679 219 665 244 643 c 2
 581 643 l 1
 581 786 l 1
 224 786 l 1
 153 857 l 1xf780
153 607 m 0xef80
 113 607 81 576 81 536 c 0
 81 496 113 464 153 464 c 0
 193 464 224 496 224 536 c 0
 224 576 193 607 153 607 c 0xef80
653 571 m 2xf780
 653 357 l 2
 653 321 686 286 724 286 c 2
 939 286 l 2
 939 429 796 571 653 571 c 2xf780
439 71 m 2
 939 71 l 2
 959 71 969 53 969 35 c 0
 969 17 960 0 939 0 c 2
 439 0 l 2
 421 0 411 19 411 37 c 0
 411 55 421 71 439 71 c 2
EndSplineSet
Validated: 1
EndChar

StartChar: semicolon
Encoding: 59 59 57
Width: 734
VWidth: 200
Flags: W
HStem: 0 72<270.719 465.281> 212 214<304.021 431.979> 572 73<299.585 446.161> 931 69<297.839 446.161>
VStem: 10 219<713.839 862.161> 10 108<224.719 419.281> 261 214<255.021 382.979> 515 209<713.839 862.161> 618 106<224.719 419.281>
LayerCount: 2
Fore
SplineSet
475 319 m 0xf2
 475 260 427 212 368 212 c 0
 309 212 261 260 261 319 c 0
 261 378 309 426 368 426 c 0
 427 426 475 378 475 319 c 0xf2
10 1000 m 1xf680
 724 1000 l 1
 724 0 l 1
 10 0 l 1
 10 1000 l 1xf680
372 931 m 0
 293 931 229 867 229 788 c 0
 229 709 293 645 372 645 c 0
 451 645 515 709 515 788 c 0xfb
 515 867 451 931 372 931 c 0
368 572 m 0
 230 572 118 460 118 322 c 0
 118 184 230 72 368 72 c 0
 506 72 618 184 618 322 c 0xf680
 618 460 506 572 368 572 c 0
EndSplineSet
Validated: 5
EndChar

StartChar: less
Encoding: 60 60 58
Width: 1004
VWidth: 150
Flags: W
HStem: 0 111<268.203 403.57> 252 113<813.68 870.566> 374 86<526.22 604.617> 515 95<826.116 913.623> 607 94<571.046 707.531> 636 112<236.311 333.022> 716 21G<586 599> 845 38G<381.66 391 587 600 759 773>
VStem: 359 88<523.586 615.878> 469 91<107.341 278.117> 923 71<412.759 513.354>
LayerCount: 2
Fore
SplineSet
554 758 m 0xe3e0
 538 773 521 788 511 810 c 2
 508 817 l 1
 514 822 l 2
 540 845 565 869 587 896 c 2
 592 903 l 1
 600 898 l 2
 635 875 664 846 687 810 c 2
 692 802 l 1
 684 796 l 2
 671 787 661 776 650 764 c 0
 636 748 621 730 599 720 c 2
 591 716 l 1
 586 724 l 2
 577 737 566 747 554 758 c 0xe3e0
683 607 m 0xe9e0
 557 607 420 694 391 792 c 2
 376 845 l 1
 409 801 l 2
 451 745 546 701 624 701 c 0
 669 701 728 715 759 779 c 2
 764 788 l 1
 773 783 l 2
 799 769 818 748 836 727 c 0
 842 720 849 713 855 706 c 2
 860 700 l 1
 856 694 l 2
 819 638 758 607 683 607 c 0xe9e0
423 434 m 0
 428 429 l 2
 487 367 560 291 560 173 c 0
 560 46 466 0 379 0 c 0
 304 0 225 31 176 79 c 0
 95 158 35 282 14 411 c 2
 10 435 l 1
 30 421 l 2
 50 406 58 383 66 360 c 0
 69 350 73 341 77 332 c 0
 147 190 223 117 307 111 c 0
 312 111 316 111 321 111 c 0
 387 111 443 145 461 195 c 0
 467 211 469 226 469 241 c 0
 469 292 439 333 413 371 c 0
 408 377 404 384 400 390 c 1
 385 370 369 350 354 331 c 2
 348 323 l 1
 340 330 l 2
 316 351 293 373 271 395 c 2
 245 421 l 1
 239 426 l 1
 244 433 l 2
 258 454 275 466 292 478 c 0
 304 486 314 494 324 505 c 0
 340 523 359 558 359 588 c 0
 359 594 359 600 357 605 c 0
 352 620 340 630 320 634 c 0
 314 635 308 636 302 636 c 0
 258 636 218 604 189 581 c 0
 182 576 170 560 159 548 c 0
 133 519 126 510 118 510 c 2
 96 510 75 540 50 576 c 0
 42 587 32 601 28 604 c 2
 16 613 l 1
 28 622 l 2
 45 634 61 648 78 663 c 0
 125 704 172 748 246 748 c 0xe5e0
 258 748 271 746 284 744 c 0
 345 733 397 689 426 627 c 0
 440 597 447 565 447 533 c 0
 447 499 439 465 423 434 c 0
970 543 m 0
 985 516 994 473 994 429 c 0
 994 385 985 339 966 305 c 0
 947 272 920 253 888 252 c 2
 883 252 l 2
 809 252 728 334 709 389 c 2
 701 414 l 2
 664 391 626 374 590 374 c 0
 545 374 509 400 477 453 c 2
 463 476 l 1
 488 467 l 2
 504 462 519 460 534 460 c 0
 583 460 619 489 661 523 c 0
 702 556 749 593 816 608 c 0
 821 609 827 610 833 610 c 0xf1e0
 880 610 950 581 970 543 c 0
752 447 m 0
 738 437 723 428 709 419 c 2
 726 399 l 2
 750 371 780 365 801 365 c 0
 845 365 891 391 912 428 c 0
 918 439 923 453 923 470 c 0
 923 483 920 498 911 514 c 0
 907 515 902 515 897 515 c 0
 853 515 802 481 752 447 c 0
EndSplineSet
Validated: 5
EndChar

StartChar: equal
Encoding: 61 61 59
Width: 1021
VWidth: 128
Flags: W
HStem: 0 144<169.174 363.899> -0 103<677.258 841.953> 257 100<508.821 590.5> 324 105<296 388.608> 429 126<765.614 879.234> 500 21G<141 171 561.278 601> 571 130<296 377.213> 597 88<564.844 665.132> 766 20G<439 465.5 561 601.282 699 736>
VStem: 420 80<456.475 541.056> 421 89<193.653 284.596> 917 94<188.657 387.975>
LayerCount: 2
Fore
SplineSet
439 786 m 1x0190
 439 786 496 685 590 685 c 0
 629 685 674 702 724 750 c 1
 748 714 796 643 796 643 c 1
 796 643 729 597 650 597 c 0
 577 597 492 637 439 786 c 1x0190
81 643 m 0
 125 679 195 701 265 701 c 0
 328 701 392 683 439 643 c 0
 478 609 500 560 500 512 c 0x96d0
 500 467 481 423 439 393 c 1
 455 377 485 357 510 357 c 0
 581 357 593 401 617 429 c 0
 662 487 659 520 735 544 c 0
 759 551 782 555 804 555 c 0
 875 555 937 517 974 429 c 0
 998 372 1011 310 1011 251 c 0
 1011 117 944 0 795 -0 c 0
 581 0 581 143 581 214 c 1
 608 140 686 103 758 103 c 0x6ab0
 800 103 840 116 867 143 c 0
 899 175 917 237 917 294 c 0
 917 364 890 429 831 429 c 0
 830 429 l 0
 742 429 717 340 653 286 c 0
 630 267 603 257 578 257 c 0
 553 257 529 267 510 286 c 1
 510 143 439 0 296 0 c 0
 256 0 10 1 10 286 c 1
 70 186 175 144 264 144 c 0
 335 144 397 171 416 214 c 0
 420 222 421 231 421 240 c 0xa8b0
 421 281 385 324 323 324 c 0
 314 324 306 323 296 321 c 1
 296 357 296 429 296 429 c 2
 367 429 420 453 420 498 c 0
 420 543 367 571 296 571 c 2
 296 571 189 571 153 500 c 1x96d0
 129 546 102 600 81 643 c 0
510 786 m 1x00b0
 581 857 l 1
 653 786 l 1
 581 714 l 1
 510 786 l 1x00b0
EndSplineSet
Validated: 1
EndChar

StartChar: greater
Encoding: 62 62 60
Width: 1020
VWidth: 200
Flags: W
HStem: 0 76<377.203 642.797> 358 284<151 367 653 869> 836 20G<367 653> 924 76<377.203 642.797>
VStem: 10 67<374.59 625.41> 367 286<144 358 642 856> 943 67<374.59 625.41>
CounterMasks: 1 0e
LayerCount: 2
Fore
SplineSet
510 1000 m 0
 783 1000 1010 779 1010 500 c 0
 1010 221 783 0 510 0 c 0
 237 0 10 221 10 500 c 0
 10 779 237 1000 510 1000 c 0
510 924 m 0
 268 924 77 731 77 500 c 0
 77 269 268 76 510 76 c 0
 752 76 943 269 943 500 c 0
 943 731 752 924 510 924 c 0
367 856 m 1
 653 856 l 1
 653 642 l 1
 869 642 l 1
 869 358 l 1
 653 358 l 1
 653 144 l 1
 367 144 l 1
 367 358 l 1
 151 358 l 1
 151 642 l 1
 367 642 l 1
 367 856 l 1
EndSplineSet
Validated: 1
EndChar

StartChar: question
Encoding: 63 63 61
Width: 900
VWidth: 180
Flags: W
HStem: 0 21G<24.5 215.5 684.5 875.5> 0 21G<24.5 215.5 684.5 875.5> 360 280<230 670> 940 20G<24.5 215.5 684.5 875.5> 940 20G<24.5 215.5 684.5 875.5>
VStem: 10 220<2.69993e-07 360 640 960> 670 220<2.69993e-07 360 640 960>
LayerCount: 2
Fore
SplineSet
690 960 m 2x36
 870 960 l 2x36
 881 960 890 951 890 940 c 2
 890 20 l 2
 890 9 881 0 870 0 c 2
 690 0 l 2
 679 0 670 9 670 20 c 2
 670 340 l 2
 670 351 661 360 650 360 c 2
 250 360 l 2
 239 360 230 351 230 340 c 2
 230 20 l 2
 230 9 221 0 210 0 c 2
 30 0 l 2
 19 0 10 9 10 20 c 2
 10 940 l 2xae
 10 951 19 960 30 960 c 2
 210 960 l 2x36
 221 960 230 951 230 940 c 2
 230 660 l 2
 230 649 239 640 250 640 c 2
 650 640 l 2
 661 640 670 649 670 660 c 2
 670 940 l 2x2e
 670 951 679 960 690 960 c 2x36
EndSplineSet
Validated: 1
EndChar

StartChar: at
Encoding: 64 64 62
Width: 1021
VWidth: 200
Flags: W
HStem: 0 21G<10 99 921 1010.5> 0 21G<10 99 921 1010.5> 143 71<99 921> 285 144<403 759.62> 286 214<196.021 323.979> 571 72<99 921> 714 215<196.021 323.979> 714 143<403 759.62> 980 20G<41.5 68.5 951.5 978.5>
VStem: 10 89<0 143 214.029 570.885 643 994.186> 153 214<329.021 456.979 757.021 885.34> 921 90<0 143 214 571 643 945.694 946 993.619>
LayerCount: 2
Fore
SplineSet
55 1000 m 0xa4f0
 82 1000 99 982 99 946 c 2
 99 643 l 1
 921 643 l 1
 921 946 l 2
 921 982 938 1000 965 1000 c 0
 992 1000 1010 982 1010 946 c 2
 1010 946 1011 525 1011 245 c 0
 1011 105 1011 0 1010 0 c 2
 921 0 l 1
 921 143 l 1
 99 143 l 1
 99 0 l 1
 10 0 l 1
 10 946 l 2
 10 982 28 1000 55 1000 c 0xa4f0
260 929 m 0x26f0
 319 929 367 880 367 821 c 0
 367 762 319 714 260 714 c 0
 201 714 153 762 153 821 c 0
 153 880 201 929 260 929 c 0x26f0
403 857 m 1x25f0
 724 857 l 2
 793 857 867 785 867 714 c 2
 403 714 l 1
 403 857 l 1x25f0
99 571 m 1
 99 571 100 413 100 307 c 0
 100 254 100 214 99 214 c 2
 921 214 l 1
 921 571 l 1
 99 571 l 1
260 500 m 0x2cf0
 319 500 367 452 367 393 c 0
 367 334 319 286 260 286 c 0
 201 286 153 334 153 393 c 0
 153 452 201 500 260 500 c 0x2cf0
403 429 m 1x34f0
 724 429 l 2
 793 429 867 357 867 285 c 2
 403 285 l 1
 403 429 l 1x34f0
EndSplineSet
Validated: 1
EndChar

StartChar: A
Encoding: 65 65 63
Width: 1020
VWidth: -14
Flags: W
HStem: 0 21G<10 99 921 1010> 0 21G<10 99 921 1010> 124 90<99.2401 921> 286 214<196.021 323.979> 286 143<403 759.62> 551 20G<41.5 68.5>
VStem: 10 89<0 125 214 565.438> 153 214<329.021 456.979> 921 89<0 125 214 493.682>
LayerCount: 2
Fore
SplineSet
55 571 m 0xb780
 82 571 99 554 99 518 c 2
 99 214 l 1
 921 214 l 1
 921 446 l 2
 921 470 930 500 965 500 c 0
 1000 500 1010 470 1010 446 c 2
 1010 170 l 1
 1010 0 l 1
 921 0 l 1
 921 125 l 2
 894 125 794 124 672 124 c 0
 429 124 99 125 99 125 c 1
 99 0 l 1
 10 0 l 1
 10 518 l 2
 10 554 28 571 55 571 c 0xb780
260 500 m 0
 319 500 367 452 367 393 c 0
 367 334 319 286 260 286 c 0
 201 286 153 334 153 393 c 0
 153 452 201 500 260 500 c 0
403 429 m 1x2f80
 724 429 l 2
 793 429 867 357 867 286 c 2
 403 286 l 1
 403 429 l 1x2f80
EndSplineSet
Validated: 1
EndChar

StartChar: B
Encoding: 66 66 64
Width: 594
VWidth: 200
Flags: W
HStem: 0 21G<10 121.034 472.854 584> 0 21G<10 121.034 472.854 584> 357 72<10 81 189 403 510 581> 500 289G<81 581> 980 20G<10 161.187>
LayerCount: 2
Fore
SplineSet
10 1000 m 1x38
 581 857 l 1
 581 768 l 1
 10 911 l 1
 10 1000 l 1x38
81 821 m 1
 510 714 l 1
 510 500 l 1
 81 500 l 1
 81 821 l 1
10 429 m 1
 581 429 l 1
 581 357 l 1
 510 357 l 1
 584 0 l 1
 477 0 l 1
 403 357 l 1
 189 357 l 1
 117 0 l 1
 10 0 l 1xb8
 81 357 l 1
 10 357 l 1
 10 429 l 1
EndSplineSet
Validated: 1
EndChar

StartChar: C
Encoding: 67 67 65
Width: 734
VWidth: 200
Flags: W
HStem: 0 21G<358.664 375.336> 0 21G<358.664 375.336> 623 20G<99 635> 714 286<131.305 316.888 499 602.695>
VStem: 10 429<715.079 878.695> 510 214<715.079 878.371>
LayerCount: 2
Fore
SplineSet
224 1000 m 0x3c
 342 1000 439 904 439 786 c 0
 439 761 433 737 425 714 c 2
 23 714 l 2
 15 737 10 761 10 786 c 0
 10 904 106 1000 224 1000 c 0x3c
510 1000 m 0
 628 1000 724 904 724 786 c 0
 724 761 719 737 711 714 c 2
 499 714 l 2
 505 737 510 761 510 786 c 0
 510 863 479 931 430 982 c 1
 455 992 481 1000 510 1000 c 0
99 643 m 1
 635 643 l 1
 367 0 l 1xbc
 99 643 l 1
EndSplineSet
Validated: 1
EndChar

StartChar: D
Encoding: 68 68 66
Width: 1020
VWidth: 128
Flags: W
HStem: 0 21G<108.5 153 242 778 867 911.5> 0 21G<108.5 153 242 778 867 911.5> 623 20G<104.5 153 867 916> 768 89<412.471 607.529>
VStem: 10 143<90.1615 556.387> 242 536<0 643> 296 89<643 740.242> 635 89<643 740.529> 867 143<93.2571 555.186>
LayerCount: 2
Fore
SplineSet
439 857 m 2xba80
 581 857 l 2
 652 857 724 785 724 714 c 2
 724 643 l 1xbb80
 778 643 l 1
 778 0 l 1
 242 0 l 1
 242 643 l 1xbc80
 296 643 l 1
 296 714 l 2
 296 784 368 857 439 857 c 2xba80
474 768 m 2
 407 768 385 724 385 679 c 2
 385 643 l 1
 635 643 l 1
 635 679 l 2
 635 725 607 768 546 768 c 2
 474 768 l 2
153 643 m 2
 153 0 l 2
 64 0 10 46 10 143 c 2
 10 500 l 2
 10 597 56 643 153 643 c 2
867 643 m 2
 965 643 1010 594 1010 500 c 2
 1010 143 l 2
 1010 54 956 0 867 0 c 2
 867 643 l 2
EndSplineSet
Validated: 1
EndChar

StartChar: E
Encoding: 69 69 67
Width: 980
VWidth: 148
Flags: W
HStem: 0 21G<840 970> 0 21G<840 970> 311 25<176.53 246.636> 468 20G<156.507 167.407 751 970> 768 140<10 190 370 970>
VStem: 10 180<768 908> 126 28<356.396 411.687> 270 20<361.741 629.722 695.373 908>
LayerCount: 2
Fore
SplineSet
970 0 m 1xb9
 963 0 955 0 947 0 c 0
 733 0 506 45 330 185 c 1
 332 189 l 2
 332 192 336 195 339 195 c 2
 519 195 l 2
 528 195 535 202 535 211 c 0
 535 217 533 222 526 225 c 2
 364 302 l 2
 361 304 359 307 359 311 c 0
 359 314 354 317 356 319 c 2
 356 319 546 488 956 488 c 0
 961 488 965 488 970 488 c 1
 970 0 l 1xb9
603 275 m 0
 624 275 641 292 641 313 c 0
 641 334 624 351 603 351 c 0
 582 351 565 334 565 313 c 0
 565 292 582 275 603 275 c 0
10 908 m 1x3d
 190 908 l 1
 190 768 l 1
 10 768 l 1
 10 908 l 1x3d
370 908 m 1
 970 908 l 1
 970 768 l 1
 370 768 l 1
 370 908 l 1
270 698 m 2
 270 908 l 1
 290 908 l 1
 290 699 l 2
 310 694 316 679 316 662 c 0
 316 646 310 631 290 626 c 2
 290 391 l 2
 290 347 252 311 208 311 c 0
 164 311 126 347 126 391 c 2
 126 391 126 392 126 394 c 0
 126 400 127 411 134 427 c 2
 165 500 l 1
 178 392 l 1
 158 410 l 1
 157 412 l 2
 154 406 154 398 154 391 c 0x3b
 154 361 181 336 211 336 c 0
 242 336 270 361 270 391 c 2
 270 626 l 2
 250 631 244 645 244 662 c 0
 244 679 250 693 270 698 c 2
EndSplineSet
Validated: 5
EndChar

StartChar: F
Encoding: 70 70 68
Width: 940
VWidth: 180
Flags: W
HStem: 0 20<590 830> 728 86<240.607 582> 784 176<786.085 899.915>
VStem: 648 102<63.6807 265> 756 174<814.248 929.752> 850 21<23.3479 59.9971>
LayerCount: 2
Fore
SplineSet
843 784 m 0xb8
 795 784 756 823 756 872 c 0
 756 921 795 960 843 960 c 0
 891 960 930 921 930 872 c 0
 930 823 891 784 843 784 c 0xb8
590 20 m 1
 830 20 l 1
 830 20 850 22 850 40 c 2
 850 60 l 1
 870 60 l 1
 870 60 871 56 871 50 c 0x94
 871 34 866 4 833 0 c 2
 590 0 l 1
 590 20 l 1
30 200 m 1
 190 40 l 1
 190 40 203 35 216 48 c 2
 228 60 l 1
 250 40 l 1
 250 40 228 7 201 7 c 0
 194 7 186 10 178 16 c 2
 10 185 l 1
 30 200 l 1
648 265 m 1
 454 463 l 2
 436 480 426 504 426 531 c 0
 426 559 436 580 454 599 c 2
 582 728 l 1
 277 728 l 2
 254 728 235 747 235 771 c 0
 235 795 254 814 277 814 c 2
 718 814 l 1
 718 814 778 812 796 758 c 2
 796 758 800 746 800 728 c 0xd0
 800 711 796 689 780 669 c 2
 609 496 l 1
 736 367 l 2
 746 357 750 342 750 327 c 2
 750 106 l 2
 750 83 726 51 699 51 c 0
 669 51 648 76 648 106 c 2
 648 265 l 1
427 438 m 2
 489 375 l 1
 228 111 l 2
 225 109 223 107 219 105 c 0
 211 101 203 99 195 99 c 0
 176 99 156 110 147 128 c 0
 143 136 142 144 142 152 c 0
 142 168 148 184 161 194 c 2
 416 451 l 2
 419 446 423 442 427 438 c 2
EndSplineSet
Validated: 1
EndChar

StartChar: G
Encoding: 71 71 69
Width: 591
VWidth: 200
Flags: W
HStem: 0 143<10 153 439 581> 500 143<10 153> 714 286<221.839 370.161>
VStem: 153 286<143 500 782.839 931.161>
LayerCount: 2
Fore
SplineSet
296 1000 m 0
 375 1000 439 936 439 857 c 0
 439 778 375 714 296 714 c 0
 217 714 153 778 153 857 c 0
 153 936 217 1000 296 1000 c 0
10 643 m 1
 439 643 l 1
 439 143 l 1
 581 143 l 1
 581 0 l 1
 10 0 l 1
 10 143 l 1
 153 143 l 1
 153 500 l 1
 10 500 l 1
 10 643 l 1
EndSplineSet
Validated: 1
EndChar

StartChar: H
Encoding: 72 72 70
Width: 920
VWidth: 179
Flags: W
HStem: 0 49<498.094 528.854 550.497 598.754 619.369 666.854 688.262 735.854> 149 49<72.1875 104.763> 217 49<55.1882 80.8118> 284 49<38.1882 63.8118> 297 63<204 287> 352 49<21.1882 46.8118> 560 80<727 905.581> 633 21G<211 221.5> 781 20G<585 603> 794 166<618.979 729.021>
VStem: 10 48<363.188 388.812> 27 48<288.237 321.812> 43 49<228.188 261.763> 60 49<161.188 185.812> 481 49<18.0945 32.9048> 550 49<0.279259 47.8543> 592 164<821.129 932.871> 619 49<0.245987 48.8737> 688 49<0.245987 47.8535>
LayerCount: 2
Fore
SplineSet
674 960 m 0xe04280
 719 960 756 923 756 877 c 0
 756 831 719 794 674 794 c 0
 629 794 592 831 592 877 c 0
 592 923 629 960 674 960 c 0xe04280
55 389 m 0
 58 385 58 380 58 376 c 0
 58 368 54 361 47 356 c 0
 43 354 38 352 34 352 c 0
 26 352 19 356 14 363 c 0
 12 367 10 372 10 376 c 0
 10 384 14 392 21 397 c 0
 25 399 30 401 34 401 c 0xe422
 42 401 50 396 55 389 c 0
72 322 m 0
 74 318 75 313 75 309 c 0
 75 301 71 293 64 288 c 0
 60 285 55 284 51 284 c 0
 43 284 36 288 31 296 c 0
 28 300 27 305 27 309 c 0
 27 317 31 324 38 329 c 0
 42 332 47 333 51 333 c 0xf012
 59 333 67 329 72 322 c 0
88 254 m 0
 91 250 92 245 92 241 c 0
 92 233 88 225 81 220 c 0
 77 217 72 217 68 217 c 0
 60 217 52 221 47 228 c 0
 44 232 43 237 43 241 c 0xe00a
 43 249 48 257 55 262 c 0
 59 265 64 266 68 266 c 0
 76 266 83 262 88 254 c 0
105 186 m 0
 108 182 109 177 109 173 c 0
 109 165 104 158 97 153 c 0
 93 150 88 149 84 149 c 0
 76 149 69 154 64 161 c 0
 62 165 60 169 60 173 c 0xe006
 60 181 64 189 72 194 c 0
 76 196 80 198 84 198 c 0
 92 198 100 193 105 186 c 0
498 49 m 0
 500 50 503 50 505 50 c 0
 515 50 526 44 529 33 c 0
 530 31 530 27 530 25 c 0
 530 15 523 5 513 2 c 0
 511 1 508 1 506 1 c 0
 496 1 485 8 482 18 c 0
 481 20 481 23 481 25 c 0
 481 35 488 46 498 49 c 0
567 48 m 0
 569 49 573 49 575 49 c 0
 585 49 595 42 598 32 c 0
 599 30 599 27 599 25 c 0
 599 15 592 5 582 2 c 0
 580 1 577 0 575 0 c 0
 565 0 555 8 552 18 c 0
 551 20 550 23 550 25 c 0xe003
 550 35 557 45 567 48 c 0
637 48 m 0
 639 49 642 49 644 49 c 0
 654 49 664 42 667 32 c 0
 668 29 668 27 668 24 c 0
 668 14 661 4 651 1 c 0
 649 0 646 0 644 0 c 0
 634 0 624 7 621 17 c 0
 620 20 619 22 619 25 c 0xe00240
 619 35 627 45 637 48 c 0
705 48 m 0
 707 49 711 49 713 49 c 0
 723 49 733 43 736 32 c 0
 737 30 737 26 737 24 c 0
 737 14 730 4 720 1 c 0
 718 0 715 0 713 0 c 0
 703 0 693 7 690 17 c 0
 689 19 688 22 688 24 c 0xe00220
 688 34 695 45 705 48 c 0
870 640 m 2xe28a20
 892 640 910 622 910 600 c 0
 910 577 892 560 869 560 c 2
 670 560 l 1xe28a20
 623 628 l 2
 588 571 535 481 535 481 c 1
 636 379 l 2
 654 361 657 343 657 331 c 0
 657 323 656 318 656 318 c 1
 618 169 l 1
 696 124 l 2
 703 120 709 113 709 104 c 0
 709 92 700 80 688 80 c 2
 507 80 l 1
 559 290 l 1
 436 417 l 1
 381 324 l 2
 369 304 348 297 324 297 c 2
 204 297 l 1
 203 293 l 1
 177 212 l 2
 176 206 172 199 167 196 c 0
 163 193 158 192 153 192 c 0
 147 192 141 194 138 200 c 0
 136 203 136 197 135 202 c 2
 92 360 l 1
 287 360 l 1
 470 678 l 1
 229 634 l 2
 226 633 223 633 220 633 c 0xe90a20
 202 633 185 646 181 665 c 0
 180 668 180 671 180 674 c 0
 180 693 193 710 212 714 c 2
 571 799 l 2
 576 800 582 801 588 801 c 0
 618 800 644 782 656 756 c 2
 727 640 l 1
 870 640 l 2xe28a20
EndSplineSet
Validated: 1
EndChar

StartChar: I
Encoding: 73 73 71
Width: 980
VWidth: 140
Flags: W
HStem: 0 140<376 603> 862 20G<470.871 518.632> 862 20G<470.871 518.632>
VStem: 125 251<379.298 478.799> 603 242<378.228 479.576>
LayerCount: 2
Fore
SplineSet
495 882 m 1xd8
 970 480 l 1
 845 480 l 1
 845 0 l 1
 125 0 l 1
 125 480 l 1
 10 480 l 1
 495 882 l 1xd8
603 140 m 1
 556 355 l 2
 585 375 603 402 603 439 c 0
 603 500 553 550 490 550 c 0
 427 550 376 502 376 441 c 0
 376 404 395 374 424 354 c 2
 376 140 l 1
 603 140 l 1
EndSplineSet
Validated: 1
EndChar

StartChar: J
Encoding: 74 74 72
Width: 980
VWidth: 120
Flags: W
HStem: 0 87<10 92.1778 158.392 322.608 388.822 552.608 618.822 783.353 848.822 930> 26 86<42.3218 208.248 272.322 438.678 502.752 668.678 733.037 898.248> 449 74<442 510.766> 642 20G<263.5 312.5 532.5 539> 682 158<257.473 362.527>
VStem: 215 155<534.9 637.676> 233 155<705.779 814.413>
LayerCount: 2
Fore
SplineSet
320 682 m 0x3a
 317 682 313 682 310 682 c 0
 271 682 238 711 233 751 c 0
 233 754 233 758 233 761 c 0
 233 801 261 834 301 839 c 0
 304 839 307 840 310 840 c 0
 349 840 382 810 387 770 c 0
 387 767 388 764 388 761 c 0
 388 721 360 687 320 682 c 0x3a
958 309 m 0
 966 305 970 298 970 291 c 0
 970 284 966 277 960 271 c 0
 918 232 761 187 673 163 c 0
 667 165 662 167 657 169 c 0
 635 179 610 185 586 185 c 0
 562 185 537 179 515 168 c 0
 501 162 486 159 471 159 c 0
 456 159 440 162 426 169 c 0
 404 179 380 185 356 185 c 0
 331 185 306 179 284 168 c 0
 270 162 255 159 240 159 c 0
 225 159 210 162 196 169 c 0
 174 179 149 185 125 185 c 0
 101 185 76 179 54 168 c 2
 48 166 l 1
 102 302 l 1
 274 323 l 2
 255 335 241 356 238 381 c 2
 215 574 l 2
 215 577 215 580 215 583 c 0
 215 623 244 657 283 662 c 0
 286 662 290 662 293 662 c 0
 332 662 365 633 370 593 c 2x3c
 380 510 l 1
 490 523 l 2
 491 523 493 523 494 523 c 0
 507 523 519 516 526 503 c 0
 529 497 530 492 530 486 c 0
 530 473 523 460 511 453 c 0
 506 450 501 449 496 449 c 2
 388 435 l 1
 394 388 l 1
 525 354 l 1
 574 470 l 1
 573 470 l 1
 511 549 l 2
 509 553 508 557 508 561 c 0
 508 568 510 575 510 580 c 2
 521 586 529 589 536 589 c 0
 542 589 547 587 552 582 c 2
 557 581 l 1
 638 475 l 1
 638 475 954 311 958 309 c 0
10 0 m 1xb8
 10 87 l 2xb8
 30 87 50 91 67 99 c 0
 85 107 104 112 125 112 c 0x78
 146 112 166 107 184 99 c 0
 201 91 220 87 240 87 c 0xb8
 260 87 280 91 297 99 c 0
 315 107 335 112 356 112 c 0x78
 377 112 396 107 414 99 c 0
 431 91 451 87 471 87 c 0xb8
 491 87 510 91 527 99 c 0
 545 107 565 112 586 112 c 0x78
 607 112 626 107 644 99 c 0
 661 91 681 87 701 87 c 0xb8
 721 87 740 91 757 99 c 0
 775 107 795 112 816 112 c 0x78
 837 112 856 107 874 99 c 0
 891 91 910 87 930 87 c 2
 930 0 l 2xb8
 910 0 891 5 874 13 c 0
 856 21 837 26 816 26 c 0x78
 795 26 776 21 758 13 c 0
 741 5 721 0 701 0 c 0xb8
 681 0 661 5 644 13 c 0
 626 21 607 26 586 26 c 0x78
 565 26 545 21 527 13 c 0
 510 5 491 0 471 0 c 0xb8
 451 0 431 5 414 13 c 0
 396 21 377 26 356 26 c 0x78
 335 26 315 21 297 13 c 0
 280 5 260 0 240 0 c 0xb8
 220 0 201 5 184 13 c 0
 166 21 146 26 125 26 c 0x78
 104 26 85 21 67 13 c 0
 50 5 30 0 10 0 c 1xb8
EndSplineSet
Validated: 1
EndChar

StartChar: K
Encoding: 75 75 73
Width: 730
VWidth: 200
Flags: W
HStem: 0 112<270.512 459.644> 592 21G<345.163 388.837> 768 20G<104 627.5> 859 143<260 474>
VStem: 10 103<269.488 449.389> 619 101<269.488 449.196>
LayerCount: 2
Fore
SplineSet
260 1002 m 1
 474 1002 l 1
 581 859 l 1
 153 859 l 1
 260 1002 l 1
153 788 m 1
 581 788 l 1
 367 592 l 1
 153 788 l 1
144 636 m 0
 227 560 l 2
 160 512 113 434 113 359 c 0
 113 237 234 112 365 112 c 0
 496 112 619 237 619 359 c 0
 619 434 574 512 508 560 c 2
 588 634 l 2
 667 568 720 469 720 359 c 0
 720 163 553 0 365 0 c 0
 177 0 10 163 10 359 c 0
 10 469 64 570 144 636 c 0
EndSplineSet
Validated: 1
EndChar

StartChar: L
Encoding: 76 76 74
Width: 880
VWidth: 150
Flags: W
HStem: 0 21G<438.5 441.5> 0 21G<438.5 441.5> 490 60<122 230 354 525 659 758> 690 80<257 368 511 653>
LayerCount: 2
Fore
SplineSet
869 537 m 1xb0
 870 532 l 1
 870 530 l 1
 869 527 l 2
 869 526 869 524 868 521 c 0
 866 516 865 514 863 512 c 2
 470 14 l 2
 469 12 466 9 463 7 c 2
 461 6 l 2
 458 4 456 3 453 2 c 2
 451 2 l 2
 447 1 443 0 440 0 c 0
 437 0 433 0 429 1 c 2
 427 2 l 2
 424 3 421 5 419 6 c 2
 417 7 l 2
 414 9 411 11 409 14 c 2
 409 16 l 1
 16 513 l 2
 15 515 13 517 12 520 c 2
 12 522 l 2
 11 525 10 528 10 531 c 0
 10 535 10 538 11 541 c 2
 12 543 l 2
 13 546 14 548 15 550 c 2
 16 551 l 1
 17 553 l 1
 180 770 l 1
 720 770 l 2
 724 770 740 750 740 750 c 1
 867 546 l 2
 868 544 868 542 869 539 c 2
 869 537 l 1xb0
659 550 m 1
 770 550 l 1
 715 651 l 1
 659 550 l 1
625 490 m 1
 537 210 l 1
 758 490 l 1
 625 490 l 1
592 580 m 1
 653 690 l 1
 511 690 l 1
 592 580 l 1
333 490 m 1
 440 152 l 1
 547 490 l 1
 333 490 l 1
354 550 m 1
 525 550 l 1
 440 666 l 1
 354 550 l 1
294 589 m 1
 368 690 l 1
 257 690 l 1
 294 589 l 1
343 210 m 1
 255 490 l 1
 122 490 l 1
 343 210 l 1
193 651 m 1
 119 550 l 1
 230 550 l 1
 193 651 l 1
EndSplineSet
Validated: 1
EndChar

StartChar: M
Encoding: 77 77 75
Width: 877
VWidth: 200
Flags: W
HStem: 0 21G<429.492 452.349> 0 21G<429.492 452.349> 252 83<162 249 398 483 631 720> 670 82<162 249 398 483 631 720> 980 20G<429.306 452.532>
LayerCount: 2
Fore
SplineSet
441 1000 m 1xb8
 584 752 l 1
 867 752 l 1
 727 502 l 1
 867 252 l 1
 584 252 l 1
 441 0 l 1
 296 252 l 1
 10 252 l 1
 153 502 l 1
 10 752 l 1
 296 752 l 1
 441 1000 l 1xb8
441 826 m 1
 398 752 l 1
 483 752 l 1
 441 826 l 1
162 670 m 1
 204 594 l 1
 249 670 l 1
 162 670 l 1
352 670 m 1
 258 502 l 1
 352 335 l 1
 530 335 l 1
 624 502 l 1
 530 670 l 1
 352 670 l 1
631 670 m 1
 675 592 l 1
 720 670 l 1
 631 670 l 1
675 413 m 1
 631 335 l 1
 720 335 l 1
 675 413 l 1
204 411 m 1
 162 335 l 1
 249 335 l 1
 204 411 l 1
398 252 m 1
 441 179 l 1
 483 252 l 1
 398 252 l 1
EndSplineSet
Validated: 1
EndChar

StartChar: N
Encoding: 78 78 76
Width: 940
VWidth: 179
Flags: W
HStem: 0 21G<58 72> 0 21G<58 72> 254 85<30 110.755 385.363 551.637 605.91 771.637 826.363 910> 279 85<58.0288 219.654 282.951 439.936 497.552 660.317 717.172 880.134> 392 108<30 109.657 167.959 289 453.363 477 510 549.657 608.382 769.657> 417 83<55.9401 223.719 273.013 289 510.389 664.103 713.704 860.91> 750 20G<408 428.5 466.476 480> 780 60G<378 434 653 662.5 793.5 805> 787 33<438.702 463.1> 880 76<453.945 498.641>
LayerCount: 2
Fore
SplineSet
799 364 m 0x1240
 819 364 838 359 855 351 c 0
 871 343 890 339 910 339 c 2
 910 254 l 2x2240
 890 254 871 258 855 266 c 0
 838 274 819 279 799 279 c 0x1240
 779 279 760 274 743 266 c 0
 726 259 708 254 689 254 c 0x2240
 670 254 651 259 634 266 c 0
 617 274 599 279 579 279 c 0x1240
 559 279 540 274 523 266 c 0
 507 259 488 254 469 254 c 0x2240
 450 254 430 259 414 266 c 0
 397 274 378 279 358 279 c 0
 338 279 319 274 302 266 c 0
 296 263 290 262 284 260 c 2
 191 164 l 2
 195 156 197 146 197 137 c 0
 197 122 192 108 181 97 c 2
 104 17 l 2
 93 6 79 0 65 0 c 0
 51 0 37 6 26 17 c 0
 15 28 10 42 10 57 c 0
 10 72 15 86 26 97 c 2
 103 178 l 2
 114 189 128 194 142 194 c 0
 152 194 163 192 172 186 c 2
 240 255 l 2
 224 256 208 260 194 266 c 0
 177 274 159 279 139 279 c 0x9240
 119 279 100 274 83 266 c 0
 66 259 50 254 30 254 c 2
 30 339 l 2x2240
 50 339 66 343 83 351 c 0
 100 359 118 364 138 364 c 0x1240
 158 364 177 359 194 351 c 0
 211 343 229 339 248 339 c 0x2240
 267 339 285 343 302 351 c 0
 319 359 338 364 358 364 c 0x1240
 378 364 397 359 414 351 c 0
 430 343 450 339 469 339 c 0x2240
 488 339 507 343 523 351 c 0
 540 359 559 364 579 364 c 0x1240
 599 364 617 359 634 351 c 0
 651 343 670 339 689 339 c 0x2240
 708 339 726 343 743 351 c 0
 760 359 779 364 799 364 c 0x1240
836 775 m 2
 825 764 812 759 798 759 c 0
 789 759 780 762 772 766 c 2
 681 671 l 2
 687 664 691 655 691 645 c 0
 691 641 690 637 689 633 c 0
 684 618 670 608 655 608 c 0
 651 608 646 608 642 610 c 2
 627 616 l 1
 510 500 l 1x0a40
 890 500 l 2
 911 500 918 494 918 487 c 0
 918 479 909 469 898 462 c 0
 874 446 863 439 835 426 c 0
 822 417 809 417 802 417 c 0
 800 417 800 417 799 417 c 0x0640
 776 417 752 411 731 401 c 0
 718 395 703 392 689 392 c 0x0a40
 675 392 660 395 646 401 c 0
 625 411 603 417 579 417 c 0x0640
 556 417 532 411 511 401 c 0
 498 395 483 392 469 392 c 0x0a40
 455 392 439 395 426 401 c 0
 405 411 381 417 358 417 c 0x0640
 335 417 311 411 290 401 c 0
 277 395 263 392 248 392 c 0x0a40
 234 392 220 395 206 401 c 0
 185 411 162 417 139 417 c 0x0640
 116 417 92 411 71 401 c 0
 58 395 50 392 30 392 c 2
 30 500 l 1
 289 500 l 1x0a40
 291 507 l 1
 349 712 l 2
 359 747 391 770 425 770 c 0
 432 770 440 768 448 766 c 0
 454 764 459 762 464 759 c 2
 655 686 l 1
 751 785 l 2
 745 794 742 805 742 816 c 0
 742 831 747 845 758 856 c 2
 836 936 l 2
 847 947 861 953 875 953 c 0
 889 953 903 947 914 936 c 0
 925 925 930 911 930 896 c 0
 930 881 925 867 914 856 c 2
 836 775 l 2
477 500 m 1
 598 626 l 1
 501 664 l 1
 453 500 l 1x0640
 477 500 l 1
476 862 m 1
 480 860 l 1
 550 860 l 1
 550 865 l 2
 550 822 512 787 471 787 c 0
 446 787 420 800 406 820 c 2
 430 820 l 2x02c0
 446 820 459 827 466 841 c 2
 476 862 l 1
430 840 m 0x0340
 379 840 l 2
 377 840 376 855 376 863 c 0
 376 916 417 956 468 956 c 0
 511 956 547 920 557 880 c 2
 480 880 l 2
 471 880 463 878 459 870 c 2
 449 852 l 2
 446 845 438 840 430 840 c 0x0340
EndSplineSet
Validated: 5
EndChar

StartChar: O
Encoding: 79 79 77
Width: 1020
VWidth: -14
Flags: W
HStem: 0 286<260 367 492 599 724 831> 551 20G<133.5 172.787 260 392.509 492 624.509 731.509 805>
LayerCount: 2
Fore
SplineSet
492 571 m 2
 617 571 l 1
 724 286 l 1
 831 286 l 1
 724 571 l 2
 886 529 1010 390 1010 214 c 2
 1010 71 l 2
 1010 30 980 0 939 0 c 2
 81 0 l 2
 40 0 10 29 10 71 c 2
 10 214 l 2
 10 343 102 481 165 530 c 2
 260 286 l 1
 367 286 l 1
 260 571 l 2
 385 571 l 1
 492 286 l 1
 599 286 l 1
 492 571 l 2
EndSplineSet
Validated: 1
EndChar

StartChar: P
Encoding: 80 80 78
Width: 1020
VWidth: 200
Flags: W
HStem: 0 214<224 796> 429 142<246.875 773.767> 643 357<153 214.978 439 581 808.132 867>
VStem: 81 143<214 406.38> 796 143<214 406.125>
LayerCount: 2
Fore
SplineSet
153 1000 m 1
 349 1000 l 1
 260 786 l 2
 260 715 244 643 135 643 c 0
 26 643 10 712 10 786 c 2
 153 1000 l 1
439 1000 m 1
 581 1000 l 1
 635 786 l 2
 635 716 624 643 510 643 c 0
 396 643 385 713 385 786 c 2
 439 1000 l 1
671 1000 m 1
 867 1000 l 1
 1010 786 l 2
 1010 716 987 643 885 643 c 0
 783 643 760 713 760 786 c 2
 671 1000 l 1
81 571 m 1
 939 571 l 1
 939 0 l 1
 81 0 l 1
 81 571 l 1
296 429 m 2
 261 429 224 396 224 357 c 2
 224 214 l 1
 796 214 l 1
 796 357 l 2
 796 392 764 429 724 429 c 2
 296 429 l 2
EndSplineSet
Validated: 1
EndChar

StartChar: Q
Encoding: 81 81 79
Width: 877
VWidth: 200
Flags: W
HStem: 0 143<341.719 536.281> 243 300<361.15 516.358> 643 143<341.719 506.744> 929 71<153 510 653 796>
VStem: 10 179<295.719 490.281> 10 143<786 929> 289 300<315.15 469.815> 510 143<786 929> 689 178<295.719 453> 796 71<786 929>
LayerCount: 2
Fore
SplineSet
439 543 m 0xf2
 508 543 568 496 585 429 c 2
 589 393 l 2
 589 310 522 243 439 243 c 0
 356 243 289 310 289 393 c 0
 289 476 356 543 439 543 c 0xf2
10 1000 m 1xf440
 867 1000 l 1
 867 0 l 1
 10 0 l 1
 10 1000 l 1xf440
153 929 m 1
 153 786 l 1
 510 786 l 1
 510 929 l 1xf5
 153 929 l 1
653 929 m 1
 653 786 l 1
 796 786 l 1
 796 929 l 1xf140
 653 929 l 1
439 643 m 0
 301 643 189 531 189 393 c 0
 189 255 301 143 439 143 c 0
 577 143 689 255 689 393 c 2xf880
 682 453 l 2
 654 564 554 643 439 643 c 0
EndSplineSet
Validated: 1
EndChar

StartChar: R
Encoding: 82 82 80
Width: 800
VWidth: 160
Flags: W
HStem: 0 204<307.126 490.874> 615 125<307.126 490.874> 780 40<50 270 619.639 686.361> 900 40<50.0759 270> 913 27<621.125 684.875>
VStem: 10 177<321.026 498.781> 10 40<820 899.212> 611 179<321.026 498.781> 698 92<832.167 906.56>
LayerCount: 2
Fore
SplineSet
10 740 m 1xe280
 790 740 l 1
 790 65 l 2
 790 36 760 0 730 0 c 2
 65 0 l 2
 35 0 10 36 10 65 c 2
 10 740 l 1xe280
399 204 m 0
 516 204 611 297 611 410 c 0
 611 523 516 615 399 615 c 0
 282 615 187 523 187 410 c 0xe5
 187 297 282 204 399 204 c 0
730 940 m 2xea80
 760 940 790 919 790 890 c 2
 790 780 l 1
 10 780 l 1
 10 890 l 2
 10 919 35 940 65 940 c 2xf280
 730 940 l 2xea80
270 820 m 1
 270 900 l 1
 50 900 l 1
 50 820 l 1
 270 820 l 1
653 826 m 0
 678 826 698 845 698 869 c 0
 698 893 678 913 653 913 c 0xe880
 628 913 608 893 608 869 c 0
 608 845 628 826 653 826 c 0
EndSplineSet
Validated: 1
EndChar

StartChar: S
Encoding: 83 83 81
Width: 1020
VWidth: 99
Flags: W
HStem: 0 58<303 711> 68 40<301.007 713.993> 235 113<102.766 185.234 834.766 917.234> 362 26<10 23 50 133 155 238 265 278 742 755 782 865 887 970 997 1010> 533 49<50.1802 128 160 380.979 642.021 860 892 972.802> 592 50<119.198 168.802 851.384 900.616> 635 42<442.81 484 539 580.19> 760 20G<502 521>
VStem: 119 50<592.198 641.802> 133 22<388 503> 484 55<252.033 635 671.586 779.802> 851 50<594.18 642.802> 865 22<388 503>
LayerCount: 2
Fore
SplineSet
16 348 m 1xf920
 272 348 l 2
 264 284 210 235 144 235 c 0
 78 235 24 284 16 348 c 1xf920
714 88 m 0
 714 77 705 68 694 68 c 2
 321 68 l 2
 310 68 301 77 301 88 c 0
 301 99 310 108 321 108 c 2
 694 108 l 2
 705 108 714 99 714 88 c 0
303 58 m 1
 711 58 l 1
 711 0 l 1
 303 0 l 1
 303 58 l 1
748 348 m 0
 1004 348 l 2
 996 284 942 235 876 235 c 0
 810 235 756 284 748 348 c 0
997 388 m 1
 1010 388 l 1
 1010 362 l 1
 742 362 l 1
 742 388 l 1
 755 388 l 1
 860 533 l 1
 619 533 l 2
 619 539 619 544 618 549 c 0
 617 551 616 554 616 557 c 0
 607 596 578 626 539 635 c 2
 539 361 l 1
 540 361 l 1
 542 258 591 168 664 118 c 2
 359 118 l 2
 432 168 481 258 483 361 c 1
 484 361 l 1
 484 635 l 2
 445 626 415 596 406 557 c 0
 406 554 406 551 405 549 c 0
 404 544 403 539 403 533 c 2
 160 533 l 1
 265 388 l 1
 278 388 l 1
 278 362 l 1
 10 362 l 1
 10 388 l 1
 23 388 l 1
 128 533 l 1
 74 533 l 2
 60 533 50 544 50 558 c 0
 50 572 60 582 74 582 c 2
 372 582 l 2
 390 631 432 668 484 677 c 2
 484 755 l 2
 484 769 495 780 509 780 c 2
 511 780 l 1
 514 780 l 2
 528 780 539 769 539 755 c 2
 539 677 l 2xfb20
 591 668 633 631 651 582 c 2
 948 582 l 2
 962 582 973 572 973 558 c 0
 973 544 962 533 948 533 c 2
 892 533 l 1
 997 388 l 1
133 388 m 1xf960
 133 503 l 1
 50 388 l 1
 133 388 l 1xf960
155 388 m 1
 238 388 l 1
 155 503 l 1
 155 388 l 1
865 388 m 1xf928
 865 503 l 1
 782 388 l 1
 865 388 l 1xf928
887 388 m 1
 970 388 l 1
 887 503 l 1
 887 388 l 1
169 617 m 0xfda0
 169 603 158 592 144 592 c 0
 130 592 119 603 119 617 c 0
 119 631 130 642 144 642 c 0
 158 642 169 631 169 617 c 0xfda0
901 618 m 0xf930
 901 604 890 594 876 594 c 0
 862 594 851 604 851 618 c 0
 851 632 862 643 876 643 c 0
 890 643 901 632 901 618 c 0xf930
EndSplineSet
Validated: 1
EndChar

StartChar: T
Encoding: 84 84 82
Width: 1020
VWidth: 200
Flags: W
HStem: 0 71<81 153 867 939> 571 21G<490.056 529.944> 929 71<81 153 867 939>
VStem: 10 71<71 143 857 929> 939 71<71 143 857 929>
LayerCount: 2
Fore
SplineSet
10 1000 m 1
 224 1000 l 1
 510 714 l 1
 796 1000 l 1
 1010 1000 l 1
 1010 786 l 1
 724 500 l 1
 1010 214 l 1
 1010 0 l 1
 796 0 l 1
 510 286 l 1
 224 0 l 1
 10 0 l 1
 10 214 l 1
 296 500 l 1
 10 786 l 1
 10 1000 l 1
81 929 m 1
 81 857 l 1
 439 500 l 1
 81 143 l 1
 81 71 l 1
 153 71 l 1
 510 429 l 1
 867 71 l 1
 939 71 l 1
 939 143 l 1
 581 500 l 1
 939 857 l 1
 939 929 l 1
 867 929 l 1
 510 571 l 1
 153 929 l 1
 81 929 l 1
EndSplineSet
Validated: 1
EndChar

StartChar: U
Encoding: 85 85 83
Width: 929
VWidth: 154
Flags: W
HStem: 0 45<55 146 783 874> 545 21G<445 484.937> 864 45<55 146 783 874>
VStem: 10 45<45 136 773 864> 874 45<45 136 773 864>
LayerCount: 2
Fore
SplineSet
10 909 m 1
 192 909 l 1
 465 636 l 1
 737 909 l 1
 919 909 l 1
 919 727 l 1
 646 455 l 1
 919 182 l 1
 919 0 l 1
 737 0 l 1
 465 273 l 1
 192 0 l 1
 10 0 l 1
 10 182 l 1
 283 455 l 1
 10 727 l 1
 10 909 l 1
55 864 m 1
 55 773 l 1
 374 455 l 1
 55 136 l 1
 55 45 l 1
 146 45 l 1
 465 364 l 1
 783 45 l 1
 874 45 l 1
 874 136 l 1
 555 455 l 1
 874 773 l 1
 874 864 l 1
 783 864 l 1
 465 545 l 1
 146 864 l 1
 55 864 l 1
EndSplineSet
Validated: 1
EndChar

StartChar: V
Encoding: 86 86 84
Width: 1020
VWidth: 200
Flags: W
HStem: 0 21G<385 456 564 635> 0 21G<385 456 564 635> 980 20G<10 81.5 938.5 1010>
VStem: 10 446<257.715 757.778> 385 71<0 56.2418> 564 446<257.721 757.38> 564 71<0 56.5954>
LayerCount: 2
Fore
SplineSet
10 1000 m 2xb0
 153 786 456 927 456 714 c 2xb0
 456 0 l 1
 385 0 l 2xa8
 385 140 153 72 10 286 c 2
 10 1000 l 2xb0
1010 1000 m 2xa4
 1010 286 l 2xa4
 867 72 635 141 635 0 c 2
 564 0 l 1xa2
 564 714 l 2
 564 925 867 786 1010 1000 c 2xa4
EndSplineSet
Validated: 1
EndChar

StartChar: W
Encoding: 87 87 85
Width: 895
VWidth: 137
Flags: W
HStem: 0 73<385.847 509.062> 738 12G<10 57.6923 166 219.5 683.5 760 836.538 885>
VStem: 10 62<188 662> 135 250<250 625.851> 416 344<237.252 635.584> 822 63<162 662>
LayerCount: 2
Fore
SplineSet
172 758 m 0
 174 758 175 758 177 758 c 0
 262 758 347 668 385 588 c 2
 385 62 l 2
 338 243 164 250 138 250 c 0
 136 250 135 250 135 250 c 1
 135 750 l 2
 147 755 160 758 172 758 c 0
385 62 m 0
 403 69 425 73 448 73 c 0
 469 73 490 70 510 62 c 2
 822 162 l 1
 822 662 l 1
 885 688 l 1
 885 125 l 1
 510 0 l 1
 385 0 l 1
 10 125 l 1
 10 688 l 1
 72 662 l 1
 72 188 l 1
 72 188 256 162 385 62 c 0
760 750 m 2
 760 238 l 2
 611 223 486 147 416 89 c 2
 416 618 l 2
 488 680 623 750 744 750 c 0
 749 750 755 750 760 750 c 2
EndSplineSet
Validated: 5
EndChar

StartChar: X
Encoding: 88 88 86
Width: 940
VWidth: 140
Flags: W
HStem: 0 21G<250 690> 0 21G<250 690> 540 20G<295.5 644.5> 593 287<398.839 547.161>
VStem: 330 286<662.566 811.161>
LayerCount: 2
Fore
SplineSet
473 593 m 0x38
 394 593 330 658 330 737 c 0
 330 816 394 880 473 880 c 0
 552 880 616 816 616 737 c 0
 616 658 552 593 473 593 c 0x38
612 560 m 1
 677 560 705 504 705 504 c 1
 916 213 l 2
 925 200 930 184 930 167 c 0
 930 122 893 85 848 85 c 0
 837 85 827 87 818 91 c 2
 690 127 l 1
 690 0 l 1
 250 0 l 1xb8
 250 127 l 1
 122 91 l 2
 113 87 103 85 92 85 c 0
 47 85 10 122 10 167 c 0
 10 184 15 200 24 213 c 2
 235 504 l 1
 235 504 263 560 328 560 c 2
 612 560 l 1
470 88 m 1
 635 143 l 1
 631 144 l 2
 584 158 565 191 565 223 c 0
 565 262 594 300 643 300 c 0
 653 300 664 298 675 295 c 2
 690 289 l 1
 690 460 l 1
 470 387 l 1
 250 460 l 1
 250 289 l 1
 265 295 l 2
 276 298 287 300 297 300 c 0
 346 300 376 262 376 223 c 0
 376 191 355 158 309 144 c 2
 305 143 l 1
 470 88 l 1
EndSplineSet
Validated: 1
EndChar

StartChar: Y
Encoding: 89 89 87
Width: 1020
VWidth: 57
Flags: W
HStem: 0 21G<10 153 867 1010> 0 21G<10 153 867 1010> 643 51G<70 81 711.5 738.5 927 939>
VStem: 10 143<0 251.972 464.432 695.333> 10 72<281.297 429.183> 867 143<0 695.333>
LayerCount: 2
Fore
SplineSet
70 714 m 0xb4
 77 715 81 714 81 714 c 1
 81 714 153 714 153 643 c 2
 153 480 l 2xb4
 110 454 82 402 82 352 c 0xac
 82 335 86 317 93 301 c 0
 105 273 127 252 153 237 c 2
 153 0 l 1
 10 0 l 1
 10 643 l 2
 10 697 50 711 70 714 c 0xb4
927 714 m 0
 934 715 939 714 939 714 c 1
 939 714 1010 714 1010 643 c 2
 1010 0 l 1
 867 0 l 1
 867 643 l 2
 867 697 907 711 927 714 c 0
715 643 m 0
 718 643 720 643 723 643 c 0
 754 643 785 622 793 592 c 0
 795 586 796 580 796 574 c 0
 796 546 779 518 753 507 c 2
 253 292 l 2
 242 286 231 283 219 283 c 0
 192 283 164 299 153 324 c 0
 149 333 147 342 147 351 c 0
 147 381 166 413 195 422 c 2
 695 636 l 2
 701 639 708 642 715 643 c 0
EndSplineSet
Validated: 1
EndChar

StartChar: Z
Encoding: 90 90 88
Width: 980
VWidth: -79
Flags: W
HStem: 0 422<418.015 524.06>
VStem: 277 100<243.212 383.424> 420 120<285.081 416.696> 605 99<319.803 418.548>
LayerCount: 2
Fore
SplineSet
747 424 m 1
 870 387 970 274 970 178 c 0
 970 128 943 83 878 55 c 0
 787 16 642 0 502 0 c 0
 349 0 202 18 134 42 c 0
 64 67 10 122 10 186 c 0
 10 249 62 321 204 381 c 1
 204 381 254 329 269 242 c 2
 269 242 277 283 277 325 c 0
 277 351 273 378 263 397 c 2
 263 397 306 406 338 406 c 0
 341 406 344 406 347 406 c 2
 347 406 377 333 377 267 c 0
 377 259 377 251 376 243 c 2
 376 243 420 303 420 388 c 0
 420 398 419 409 418 420 c 1
 418 420 438 422 462 422 c 0
 482 422 505 421 525 416 c 2
 525 416 540 374 540 312 c 0
 540 292 539 271 535 248 c 1
 565 274 605 341 605 420 c 0
 605 426 605 431 605 437 c 1
 605 437 625 440 647 440 c 0
 657 440 668 440 677 438 c 2
 677 438 704 346 704 269 c 0
 704 261 704 254 703 247 c 2
 703 247 747 311 747 405 c 0
 747 411 747 418 747 424 c 1
EndSplineSet
Validated: 1
EndChar

StartChar: backslash
Encoding: 92 92 89
Width: 484
VWidth: 200
Flags: W
HStem: 0 21G<46 439> 0 21G<46 439> 857 89<188.79 292.941>
VStem: 81 90<643 838.937> 314 89<643 838.937>
LayerCount: 2
Fore
SplineSet
242 946 m 0xb8
 243 946 245 946 246 946 c 0
 386 946 403 857 403 821 c 2
 403 643 l 1
 474 643 l 1
 474 571 l 1
 385 500 l 1
 439 0 l 1
 46 0 l 1
 99 500 l 1
 10 571 l 1
 10 643 l 1
 81 643 l 1
 81 821 l 2
 81 857 99 946 242 946 c 0xb8
242 857 m 0
 186 857 171 817 171 786 c 2
 171 643 l 1
 314 643 l 1
 314 786 l 2
 314 816 295 857 242 857 c 0
EndSplineSet
Validated: 1
EndChar

StartChar: bracketright
Encoding: 93 93 90
Width: 900
VWidth: 200
Flags: W
HStem: 0 21G<26 333 559.5 879.587> 0 21G<26 333 559.5 879.587> 900 20G<110 230 653 756> 960 40<110 230>
VStem: 10 320<3.19043 618.671> 110 120<672.512 920 960 1000> 550 340.008<5.00174e-07 626.641> 639 131<905.052 936.858 937.146 939.856 940.144 980>
LayerCount: 2
Fore
SplineSet
230 680 m 0xb4
 290 660 330 609 330 542 c 2
 330 26 l 2
 330 15 337 7 337 3 c 0
 337 1 336 0 330 0 c 2
 34 0 l 2
 18 0 10 9 10 25 c 2
 10 542 l 2xb8
 10 609 50 665 110 680 c 2
 110 920 l 1
 230 920 l 1
 230 680 l 0xb4
110 1000 m 1x34
 230 1000 l 1
 230 960 l 1
 110 960 l 1
 110 1000 l 1x34
655 904 m 0
 646 905 639 913 639 922 c 0
 639 929 643 934 649 937 c 1
 643 940 639 951 639 958 c 0
 639 968 648 980 658 980 c 2
 751 980 l 2
 761 980 770 968 770 958 c 0
 770 951 766 943 760 940 c 1
 766 937 770 930 770 923 c 0xb1
 770 914 763 906 754 905 c 2
 874 613 l 2
 881 594 890 573 890 552 c 2
 890 40 l 2
 890 38.2608695652 890.007561437 36.5217391304 890.007561437 34.7957590203 c 0
 890.007561437 16.6729678639 889.173913043 0 870 0 c 2
 568 0 l 2
 551 0 550 13 550 28 c 0
 550 32 550 36 550 40 c 2
 550 560 l 2xb2
 550 581 554 594 561 613 c 2
 655 904 l 0
EndSplineSet
Validated: 524289
EndChar

StartChar: asciicircum
Encoding: 94 94 91
Width: 860
VWidth: 180
Flags: W
HStem: 0 400<10 290 550 850> 80 320<290 550> 440 33<163.453 193.744 664.852 697.316> 782 143<555.02 689.074> 808 143<450.948 624.966> 940 20G<410 450> 940 20G<410 450 680 690>
VStem: 410 40<660 787 934 960>
LayerCount: 2
Fore
SplineSet
850 400 m 1xa1
 850 0 l 1
 550 0 l 1xa1
 550 80 l 1
 290 80 l 1x61
 290 0 l 1
 10 0 l 1
 10 400 l 1
 850 400 l 1xa1
669 473 m 1
 669 473 672 473 676 473 c 0
 688 473 711 470 711 440 c 2
 152 440 l 2
 152 471 175 475 185 475 c 0
 188 475 190 475 190 475 c 2
 202 525 228 566 268 600 c 0
 308 633 355 640 409 660 c 2
 410 660 l 1
 410 960 l 1
 450 960 l 1x25
 450 934 l 2
 470 945 505 951 530 951 c 0x29
 538 951 544 950 555 947 c 0
 566 945 578 942 590 938 c 0
 603 934 614 931 625 929 c 0
 636 926 645 925 652 925 c 0
 666 925 670 927 690 932 c 2
 690 788 l 2
 670 784 665 782 653 782 c 0x31
 645 782 637 784 626 786 c 0
 615 788 603 791 590 795 c 0
 578 798 565 801 554 804 c 0
 543 806 534 808 526 808 c 0x29
 522 808 517 807 509 805 c 0
 501 803 492 801 483 798 c 2
 460 789 l 1
 450 787 l 1
 450 660 l 1
 504 640 551 634 591 601 c 0
 632 567 658 523 669 473 c 1
EndSplineSet
Validated: 5
EndChar

StartChar: underscore
Encoding: 95 95 92
Width: 904
VWidth: 162
Flags: W
HStem: 0 21G<604.318 617.166> 0 21G<604.318 617.166> 898 20G<858.355 887.834>
LayerCount: 2
Fore
SplineSet
611 0 m 1xa0
 470 422 l 1
 10 422 l 1
 894 918 l 1
 611 0 l 1xa0
EndSplineSet
Validated: 1
EndChar

StartChar: grave
Encoding: 96 96 93
Width: 820
VWidth: 180
Flags: W
HStem: 0 80<311 504> 459 101<348.355 469.057> 820 140<260.325 561.124>
VStem: 10 301<297.926 421.029> 90 140<560 791.124> 504 306<297.534 425.243> 590 140<560 791.124>
LayerCount: 2
Fore
SplineSet
773 560 m 2xea
 787 560 810 539 810 527 c 2
 810 18 l 2
 810 6 787 0 773 0 c 2
 42 0 l 2
 28 0 10 6 10 18 c 2
 10 527 l 2xf4
 10 539 28 560 42 560 c 2
 90 560 l 1
 90 733 l 2
 90 847 199 960 313 960 c 2
 503 960 l 2
 617 960 730 847 730 733 c 2
 730 560 l 1
 773 560 l 2xea
504 80 m 1
 464 279 l 2
 488 296 504 333 504 365 c 0
 504 418 461 459 408 459 c 0
 355 459 311 414 311 361 c 0
 311 329 328 296 352 279 c 2
 311 80 l 1
 504 80 l 1
590 560 m 1xea
 590 733 l 2
 590 785 552 820 501 820 c 2
 315 820 l 2
 264 820 230 785 230 733 c 2
 230 560 l 1
 590 560 l 1xea
EndSplineSet
Validated: 1
EndChar

StartChar: a
Encoding: 97 97 94
Width: 1020
VWidth: 0
Flags: W
HStem: 0 21G<10 90 930 1010> 0 21G<10 90 930 1010> 160 80<90 930> 300 154<372 996.338> 300 60<145.192 330> 403 147<164.625 268.875> 588 20G<38.5 61.5 358 369.429>
VStem: 10 80<0 160 240 603.395> 143 147<424.625 528.875> 330 42<454 494.18> 930 80<0 160>
LayerCount: 2
Fore
SplineSet
930 160 m 1xa3e0
 90 160 l 1
 90 0 l 1
 10 0 l 1
 10 567 l 2
 10 589 27 608 50 608 c 0
 73 608 90 589 90 567 c 2
 90 240 l 1
 1010 240 l 1
 1010 0 l 1
 930 0 l 1
 930 160 l 1xa3e0
217 403 m 0x27e0
 176 403 143 436 143 477 c 0
 143 518 176 550 217 550 c 0
 258 550 290 518 290 477 c 0
 290 436 258 403 217 403 c 0x27e0
1010 300 m 1x2be0
 181 300 l 2
 161 300 144 310 144 330 c 0
 144 350 161 360 181 360 c 2
 330 360 l 1x2be0
 330 474 l 2
 330 494 348 510 368 510 c 2
 372 454 l 1
 951 454 l 2x33e0
 983 450 1010 429 1010 397 c 2
 1010 300 l 1x2be0
EndSplineSet
Validated: 1
EndChar

StartChar: b
Encoding: 98 98 95
Width: 736
VWidth: 177
Flags: W
HStem: 0 21G<330.5 353.5> 0 21G<330.5 353.5> 770 20G<171 194> 816 151<136.554 240.583>
VStem: 113 151<839.554 944.875> 141 120<397 577>
LayerCount: 2
Fore
SplineSet
264 892 m 0x38
 264 850 230 816 189 816 c 0
 147 816 113 850 113 892 c 0
 113 933 146 967 188 967 c 0
 189 967 l 0
 190 967 l 0
 231 967 264 933 264 892 c 0x38
481 479 m 2
 487 470 489 462 489 454 c 0
 489 432 469 414 448 414 c 0
 437 414 425 419 416 432 c 2
 215 669 l 2
 212 672 208 673 204 670 c 0
 200 667 199 662 202 659 c 2
 261 577 l 1
 261 397 l 1
 121 37 l 2
 113 12 95 2 76 2 c 0
 48 2 18 25 18 59 c 0
 18 65 19 70 21 77 c 2
 141 397 l 1
 141 637 l 1x34
 90 535 l 1
 110 407 l 2
 112 404 113 401 113 397 c 0
 113 380 92 361 71 361 c 0
 60 361 48 367 39 381 c 2
 10 561 l 1
 127 775 l 2
 140 785 161 790 181 790 c 0
 207 790 232 782 239 772 c 2
 481 479 l 2
388 73 m 2
 392 65 394 57 394 50 c 0
 394 20 367 0 340 0 c 0xb0
 321 0 301 10 291 34 c 2
 221 237 l 1
 270 368 l 1
 388 73 l 2
703 6 m 1
 480 394 l 2
 477 400 477 407 482 411 c 0
 488 416 496 414 500 409 c 2
 501 408 l 1
 724 21 l 2x70
 727 16 727 8 722 4 c 0
 716 -1 708 -1 703 5 c 2
 703 6 l 1
EndSplineSet
Validated: 1
EndChar

StartChar: c
Encoding: 99 99 96
Width: 1020
VWidth: 128
Flags: W
HStem: 0 21G<108.5 153 242 778 867 911.5> 0 21G<108.5 153 242 778 867 911.5> 623 20G<104.5 153 867 916> 768 89<412.471 607.529>
VStem: 10 143<90.1615 556.387> 242 536<0 643> 296 89<643 740.242> 635 89<643 740.529> 867 143<93.2571 555.186>
LayerCount: 2
Fore
SplineSet
439 857 m 2xba80
 581 857 l 2
 652 857 724 785 724 714 c 2
 724 643 l 1xbb80
 778 643 l 1
 778 0 l 1
 242 0 l 1
 242 643 l 1xbc80
 296 643 l 1
 296 714 l 2
 296 784 368 857 439 857 c 2xba80
474 768 m 2
 407 768 385 724 385 679 c 2
 385 643 l 1
 635 643 l 1
 635 679 l 2
 635 725 607 768 546 768 c 2
 474 768 l 2
153 643 m 2
 153 0 l 2
 64 0 10 46 10 143 c 2
 10 500 l 2
 10 597 56 643 153 643 c 2
867 643 m 2
 965 643 1010 594 1010 500 c 2
 1010 143 l 2
 1010 54 956 0 867 0 c 2
 867 643 l 2
EndSplineSet
Validated: 1
EndChar

StartChar: d
Encoding: 100 100 97
Width: 380
VWidth: 180
Flags: W
HStem: 0 21G<117.5 142.5 237.5 262.5> 0 21G<117.5 142.5 237.5 262.5> 680 100<70.75 90 290 309.458> 805 165<132.129 243.418>
VStem: 10 60<411.055 680> 90 80<3.44833 420> 105 165<832.129 943.418> 210 80<3.44833 420> 310 60<409.266 680>
LayerCount: 2
Fore
SplineSet
90 40 m 2xbd80
 90 680 l 1xbd80
 70 680 l 1
 70 440 l 2
 70 420 55 410 40 410 c 0
 25 410 10 420 10 440 c 2
 10 688 l 2
 10 745 54 780 110 780 c 2
 270 780 l 2xba80
 332 780 370 740 370 687 c 2
 370 444 l 2
 370 420 355 408 340 408 c 0
 325 408 310 420 310 444 c 2
 310 680 l 1
 290 680 l 1
 290 40 l 2
 290 15 275 0 250 0 c 0
 225 0 210 15 210 40 c 2
 210 420 l 1
 170 420 l 1
 170 40 l 2
 170 15 155 0 130 0 c 0
 105 0 90 15 90 40 c 2xbd80
105 888 m 0x3a80
 105 934 142 970 188 970 c 0
 234 970 270 934 270 888 c 0
 270 842 234 805 188 805 c 0
 142 805 105 842 105 888 c 0x3a80
EndSplineSet
Validated: 1
EndChar

StartChar: e
Encoding: 101 101 98
Width: 1020
VWidth: 57
Flags: W
HStem: 0 71<32.6406 985.378> 143 71<224 796> 286 285<399.117 620.883> 500 214<81 148.635 871.365 939> 643 71<224 796>
VStem: 10 214<214 281.635 575.365 643> 10 71<357 500> 296 428<366.993 490.814> 796 214<214 281.635 575.365 643> 939 71<357 500>
LayerCount: 2
Fore
SplineSet
10 714 m 1xcb
 1010 714 l 1xcb40
 1010 214 l 2xc980
 1010 173 980 143 939 143 c 2
 81 143 l 2xcb40
 40 143 10 169 10 214 c 2xcd
 10 714 l 1xcb
224 643 m 2xcd80
 224 572 152 500 81 500 c 2
 81 357 l 2xd3
 152 357 224 285 224 214 c 2
 796 214 l 2xd580
 796 285 868 357 939 357 c 2
 939 500 l 2xd140
 868 500 796 572 796 643 c 2
 224 643 l 2xcd80
510 571 m 0xe1
 628 571 724 508 724 429 c 0
 724 350 628 286 510 286 c 0
 392 286 296 350 296 429 c 0
 296 508 392 571 510 571 c 0xe1
10 107 m 1xc340
 29 89 50 71 81 71 c 2
 939 71 l 2
 970 71 989 88 1010 107 c 1
 1010 32 978 0 939 0 c 2
 81 0 l 2
 42 0 10 27 10 107 c 1xc340
EndSplineSet
Validated: 1
EndChar

StartChar: f
Encoding: 102 102 99
Width: 585
VWidth: 180
Flags: W
HStem: 0 21G<292 292> 0 21G<292 292> 912 20G<214 370>
VStem: 10 565<560.966 756.576>
LayerCount: 2
Fore
SplineSet
292 932 m 0xb0
 448 932 575 808 575 655 c 0
 575 502 292 0 292 0 c 1
 292 0 10 502 10 655 c 0
 10 808 136 932 292 932 c 0xb0
EndSplineSet
Validated: 1
EndChar

StartChar: g
Encoding: 103 103 100
Width: 900
VWidth: 180
Flags: W
HStem: 0 21G<366.5 533.5> 0 21G<366.5 533.5> 487 20G<66 80 819.5 833.5> 882 78<409.717 494.849>
VStem: 321 78<784.607 870.849> 410 80<100 711.674> 506 78<784.607 870.849>
LayerCount: 2
Fore
SplineSet
452 773 m 0x3e
 482 773 506 798 506 828 c 0
 506 858 482 882 452 882 c 0
 422 882 399 858 399 828 c 0
 399 798 422 773 452 773 c 0x3e
889 297 m 2
 890 294 890 291 890 288 c 0
 890 267 873 249 852 249 c 0
 848 249 844 250 840 251 c 2
 809 262 l 1
 759 110 617 0 450 0 c 0xbe
 283 0 141 109 91 261 c 1
 60 251 l 2
 56 250 53 249 49 249 c 0
 28 249 10 267 10 288 c 0
 10 291 10 294 11 297 c 2
 40 478 l 2
 43 495 57 507 75 507 c 0
 85 507 95 503 102 496 c 2
 235 370 l 2
 237 368 239 367 241 364 c 0
 246 357 249 349 249 341 c 0
 249 329 243 318 233 310 c 0
 230 308 227 305 223 304 c 2
 189 293 l 1
 222 200 312 118 410 100 c 1
 410 700 l 2
 363 720 321 773 321 828 c 0
 321 901 380 960 452 960 c 0
 525 960 584 901 584 828 c 0
 584 773 537 720 490 700 c 2
 490 100 l 1
 586 119 679 202 711 293 c 1
 677 304 l 2
 673 305 670 308 667 310 c 0
 657 318 652 329 652 341 c 0
 652 349 654 357 659 364 c 0
 661 367 663 368 665 370 c 2
 798 496 l 2
 805 503 814 507 825 507 c 0
 842 507 857 495 860 478 c 2
 889 297 l 2
EndSplineSet
Validated: 1
EndChar

StartChar: h
Encoding: 104 104 101
Width: 591
VWidth: 200
Flags: W
HStem: 0 71<10 224 367 581> 909 20G<296 296>
VStem: 224 143<71 909.628>
LayerCount: 2
Fore
SplineSet
367 71 m 1
 581 71 l 1
 581 0 l 1
 10 0 l 1
 10 71 l 1
 224 71 l 1
 224 857 l 2
 224 928 296 929 296 929 c 1
 296 929 367 928 367 857 c 2
 367 71 l 1
EndSplineSet
Validated: 1
EndChar

StartChar: i
Encoding: 105 105 102
Width: 882
VWidth: 200
Flags: W
HStem: 0 71<155 369 512 727> 951 20G<164 227 256.5 298 430 441 584 625.5 655 718>
VStem: 10 74<536.907 748.945> 155 72<567.964 718.036> 369 143<71 695.333> 655 72<567.964 718.036> 798 74<536.907 748.945>
LayerCount: 2
Fore
SplineSet
227 971 m 2
 227 888 l 2
 142 839 84 749 84 643 c 0
 84 537 142 446 227 397 c 2
 227 315 l 2
 101 371 10 497 10 643 c 0
 10 789 101 915 227 971 c 2
655 971 m 2
 781 915 872 789 872 643 c 0
 872 497 781 371 655 315 c 2
 655 397 l 2
 740 446 798 537 798 643 c 0
 798 749 740 839 655 888 c 2
 655 971 l 2
298 844 m 2
 298 766 l 2
 255 741 227 696 227 643 c 0
 227 590 255 545 298 520 c 2
 298 442 l 2
 215 472 155 550 155 643 c 0
 155 736 215 814 298 844 c 2
584 844 m 2
 667 814 727 736 727 643 c 0
 727 550 667 472 584 442 c 2
 584 520 l 2
 627 545 655 590 655 643 c 0
 655 696 627 741 584 766 c 2
 584 844 l 2
430 714 m 0
 437 715 441 714 441 714 c 1
 441 714 512 714 512 643 c 2
 512 71 l 1
 727 71 l 1
 727 0 l 1
 155 0 l 1
 155 71 l 1
 369 71 l 1
 369 643 l 2
 369 697 410 711 430 714 c 0
EndSplineSet
Validated: 1
EndChar

StartChar: j
Encoding: 106 106 103
Width: 877
VWidth: 57
Flags: W
HStem: 0 71<85.2166 150.188 726.812 791.96> 286 71<296 581> 429 71<296 367 439 581> 571 143<296 367 439 581> 643 71<85.5879 150.188 726.812 792.734>
VStem: 10 143<357 429> 10 71<74.2664 140.188 573.812 638.412> 367 72<500 571> 724 143<357 429> 796 71<73.8794 140.188 573.812 639.734>
LayerCount: 2
Fore
SplineSet
117 714 m 2xeb40
 760 714 l 2
 815 714 867 662 867 607 c 2
 867 107 l 2
 867 51 813 0 760 0 c 2
 117 0 l 2
 58 0 10 52 10 107 c 2
 10 607 l 2
 10 665 59 714 117 714 c 2xeb40
117 643 m 0
 97 643 81 627 81 607 c 0xeb
 81 587 97 571 117 571 c 0
 137 571 153 587 153 607 c 0xf5
 153 627 137 643 117 643 c 0
760 643 m 0
 740 643 724 627 724 607 c 0xe980
 724 587 740 571 760 571 c 0
 780 571 796 587 796 607 c 0xf140
 796 627 780 643 760 643 c 0
296 571 m 1xf1
 296 500 l 1
 367 500 l 1
 367 571 l 1
 296 571 l 1xf1
439 571 m 1
 439 500 l 1
 581 500 l 1
 581 571 l 1
 439 571 l 1
153 429 m 1xe580
 153 357 l 1
 724 357 l 1
 724 429 l 1
 153 429 l 1xe580
296 286 m 1
 296 214 l 1
 581 214 l 1
 581 286 l 1
 296 286 l 1
117 143 m 0
 97 143 81 127 81 107 c 0xe3
 81 87 97 71 117 71 c 0
 137 71 153 87 153 107 c 0
 153 127 137 143 117 143 c 0
760 143 m 0
 740 143 724 127 724 107 c 0xe180
 724 87 740 71 760 71 c 0
 780 71 796 87 796 107 c 0xe140
 796 127 780 143 760 143 c 0
EndSplineSet
Validated: 1
EndChar

StartChar: k
Encoding: 107 107 104
Width: 1020
VWidth: 200
Flags: W
HStem: 143 143<172.682 224 439 581 796 849.132> 339 107<234.676 320.685 699.315 785.324> 500 286<299.365 720.635> 857 143<344.961 675.039>
VStem: 10 143<306.125 668.16> 224 107<349.676 435.685> 689 107<349.676 435.685> 867 143<303.818 668.16>
LayerCount: 2
Fore
SplineSet
510 1000 m 0
 1010 1000 1010 571 1010 500 c 2
 1010 143 l 1
 796 143 l 1
 867 0 l 1
 653 0 l 1
 581 143 l 1
 439 143 l 1
 367 0 l 1
 153 0 l 1
 224 143 l 1
 10 143 l 1
 10 500 l 2
 10 571 10 1000 510 1000 c 0
296 857 m 1
 153 714 l 1
 153 357 l 2
 153 316 185 286 224 286 c 2
 796 286 l 2
 840 286 867 316 867 357 c 2
 867 714 l 1
 724 857 l 1
 296 857 l 1
367 786 m 2
 653 786 l 2
 724 786 796 714 796 643 c 2
 796 500 l 1
 224 500 l 1
 224 643 l 2
 224 714 296 786 367 786 c 2
278 446 m 0
 308 446 331 423 331 393 c 0
 331 363 308 339 278 339 c 0
 248 339 224 363 224 393 c 0
 224 423 248 446 278 446 c 0
742 446 m 0
 772 446 796 423 796 393 c 0
 796 363 772 339 742 339 c 0
 712 339 689 363 689 393 c 0
 689 423 712 446 742 446 c 0
EndSplineSet
Validated: 1
EndChar

StartChar: m
Encoding: 109 109 105
Width: 591
VWidth: 200
Flags: W
HStem: 0 71<224 367> 143 71<224 367> 714 143<81.3661 153 296 509.599> 980 20G<207 241>
VStem: 10 71<214 714> 153 143<857 979.835> 510 71<214 714>
LayerCount: 2
Fore
SplineSet
224 1000 m 0
 258 1000 296 974 296 929 c 2
 296 857 l 1
 439 857 l 2
 524 857 581 796 581 714 c 2
 581 143 l 2
 581 61 524 0 439 0 c 2
 153 0 l 2
 68 0 10 61 10 143 c 2
 10 714 l 2
 10 792 73 851 153 857 c 2
 153 929 l 2
 153 973 190 1000 224 1000 c 0
81 714 m 1
 81 214 l 1
 510 214 l 1
 510 714 l 1
 81 714 l 1
224 143 m 1
 224 71 l 1
 367 71 l 1
 367 143 l 1
 224 143 l 1
EndSplineSet
Validated: 1
EndChar

StartChar: n
Encoding: 110 110 106
Width: 877
VWidth: 200
Flags: W
HStem: 0 214<174.534 702.466> 0 71<81 153 724 796> 980 20G<439 439>
VStem: 296 285<286 890.897>
LayerCount: 2
Fore
SplineSet
439 1000 m 1x30
 439 1000 581 891 581 857 c 2
 581 286 l 1
 296 286 l 1
 296 857 l 2
 296 893 439 1000 439 1000 c 1x30
224 214 m 2xb0
 653 214 l 2xb0
 724 214 724 142 724 71 c 2
 796 71 l 1
 867 0 l 1
 10 0 l 1
 81 71 l 1
 153 71 l 2x70
 153 142 153 214 224 214 c 2xb0
EndSplineSet
Validated: 1
EndChar

StartChar: o
Encoding: 111 111 107
Width: 1020
VWidth: 200
Flags: W
HStem: 0 168<478.65 654.943> 709 187G<619.143 634.638 734.524 924.363> 890 21G<731.5 766.286> 923 77<474.637 655.335>
VStem: 10 213<418.724 645.725> 971 39<407.842 462.077>
LayerCount: 2
Fore
SplineSet
971 467 m 0xbc
 1010 461 l 1
 994 260 860 90 669 26 c 0
 618 9 565 0 511 0 c 0
 295 0 104 137 36 342 c 0
 19 394 10 448 10 501 c 0
 10 578 28 654 63 724 c 0
 123 843 226 932 353 974 c 0
 404 991 457 1000 510 1000 c 0
 603 1000 694 974 774 925 c 1
 756 890 l 1
 707 912 654 923 601 923 c 0
 561 923 520 917 481 904 c 0
 385 872 308 804 263 714 c 0
 236 661 223 604 223 546 c 0
 223 506 229 465 242 426 c 0
 294 272 438 168 601 168 c 0
 641 168 681 174 720 187 c 0
 846 229 943 337 971 467 c 0xbc
724 708 m 1
 945 729 l 1
 783 572 l 1
 885 372 l 1
 684 468 l 1
 522 321 l 1
 555 537 l 1
 364 645 l 1
 573 686 l 1
 624 896 l 1xdc
 724 708 l 1
EndSplineSet
Validated: 1
EndChar

StartChar: p
Encoding: 112 112 108
Width: 820
VWidth: 180
Flags: W
HStem: 0 120<94.393 245.607 334.393 485.607 574.393 725.607> 220 60<94.393 245.607 334.393 485.607 574.393 725.607> 380 60<94.393 245.607 334.393 485.607 574.393 725.607> 540 80<94.393 245.607 334.393 485.607 574.393 725.607> 860 100<94.393 725.607>
VStem: 10 80<124.393 215.607 284.393 375.607 444.393 535.607 624.393 855.607> 250 80<124.393 215.607 284.393 375.607 444.393 535.607> 490 80<124.393 215.607 284.393 375.607 444.393 535.607> 730 80<124.393 215.607 284.393 375.607 444.393 535.607 624.393 855.607>
LayerCount: 2
Fore
SplineSet
730 960 m 2
 774 960 810 924 810 880 c 2
 810 80 l 2
 810 36 774 0 730 0 c 2
 90 0 l 2
 46 0 10 36 10 80 c 2
 10 880 l 2
 10 924 46 960 90 960 c 2
 730 960 l 2
250 160 m 2
 250 180 l 2
 250 202 232 220 210 220 c 2
 130 220 l 2
 108 220 90 202 90 180 c 2
 90 160 l 2
 90 138 108 120 130 120 c 2
 210 120 l 2
 232 120 250 138 250 160 c 2
250 320 m 2
 250 340 l 2
 250 362 232 380 210 380 c 2
 130 380 l 2
 108 380 90 362 90 340 c 2
 90 320 l 2
 90 298 108 280 130 280 c 2
 210 280 l 2
 232 280 250 298 250 320 c 2
250 480 m 2
 250 500 l 2
 250 522 232 540 210 540 c 2
 130 540 l 2
 108 540 90 522 90 500 c 2
 90 480 l 2
 90 458 108 440 130 440 c 2
 210 440 l 2
 232 440 250 458 250 480 c 2
490 160 m 2
 490 180 l 2
 490 202 472 220 450 220 c 2
 370 220 l 2
 348 220 330 202 330 180 c 2
 330 160 l 2
 330 138 348 120 370 120 c 2
 450 120 l 2
 472 120 490 138 490 160 c 2
490 320 m 2
 490 340 l 2
 490 362 472 380 450 380 c 2
 370 380 l 2
 348 380 330 362 330 340 c 2
 330 320 l 2
 330 298 348 280 370 280 c 2
 450 280 l 2
 472 280 490 298 490 320 c 2
490 480 m 2
 490 500 l 2
 490 522 472 540 450 540 c 2
 370 540 l 2
 348 540 330 522 330 500 c 2
 330 480 l 2
 330 458 348 440 370 440 c 2
 450 440 l 2
 472 440 490 458 490 480 c 2
730 160 m 2
 730 180 l 2
 730 202 712 220 690 220 c 2
 610 220 l 2
 588 220 570 202 570 180 c 2
 570 160 l 2
 570 138 588 120 610 120 c 2
 690 120 l 2
 712 120 730 138 730 160 c 2
730 320 m 2
 730 340 l 2
 730 362 712 380 690 380 c 2
 610 380 l 2
 588 380 570 362 570 340 c 2
 570 320 l 2
 570 298 588 280 610 280 c 2
 690 280 l 2
 712 280 730 298 730 320 c 2
730 480 m 2
 730 500 l 2
 730 522 712 540 690 540 c 2
 610 540 l 2
 588 540 570 522 570 500 c 2
 570 480 l 2
 570 458 588 440 610 440 c 2
 690 440 l 2
 712 440 730 458 730 480 c 2
730 660 m 2
 730 820 l 2
 730 842 712 860 690 860 c 2
 130 860 l 2
 108 860 90 842 90 820 c 2
 90 660 l 2
 90 638 108 620 130 620 c 2
 690 620 l 2
 712 620 730 638 730 660 c 2
EndSplineSet
Validated: 1
EndChar

StartChar: q
Encoding: 113 113 109
Width: 641
VWidth: 180
Flags: W
HStem: 0 21G<250 390> 0 21G<250 390> 620 21G<454.5 607> 940 20G<250 390> 940 20G<250 390>
VStem: 22 145<589.739 694.882> 250 140<0 80.0929 208 380 563 717 856 960> 480 151<241.23 347.796>
LayerCount: 2
Fore
SplineSet
564 464 m 0xb7
 609 429 631 378 631 311 c 0
 631 243 604 186 551 141 c 0
 510 106 457 85 390 77 c 2
 390 0 l 1
 250 0 l 1
 250 78 l 2
 187 86 136 106 95 138 c 0
 39 183 10 240 10 320 c 1
 159 320 l 2
 164 280 174 262 188 245 c 0
 203 228 223 215 250 208 c 2
 250 412 l 2
 177 429 126 447 98 467 c 0
 48 502 22 556 22 629 c 0
 22 696 47 752 96 796 c 0
 134 830 185 851 250 859 c 2
 250 960 l 1
 390 960 l 1
 390 856 l 2
 438 847 481 829 518 801 c 0
 574 759 604 700 607 620 c 1
 456 620 l 2
 453 660 433 696 396 715 c 2
 390 717 l 1
 390 529 l 1
 434 518 l 2
 492 504 535 487 564 464 c 0xb7
203 580 m 0
 212 575 228 569 250 563 c 2
 250 727 l 2
 232 723 217 717 204 708 c 0
 179 692 167 669 167 640 c 0
 167 613 179 593 203 580 c 0
413 212 m 0
 458 228 480 257 480 299 c 0
 480 324 469 343 447 357 c 0
 433 365 414 373 390 380 c 2
 390 206 l 2
 398 208 406 210 413 212 c 0
EndSplineSet
Validated: 1
EndChar

StartChar: r
Encoding: 114 114 110
Width: 1020
VWidth: 200
Flags: W
HStem: 0 161<252.811 338.783 681.217 767.189> 71 286<173.27 224 367 653 796 846.125> 268 89<322 338.685 681.315 698> 500 71<367 653> 536 21G<10 99 921 1010> 642 90<99.2401 921> 786 214<196.021 323.979> 786 143<403 759.62>
VStem: 10 89<536 643 732 994.186> 153 214<829.021 956.979> 153 89<171.315 257.324> 349 322<171.315 257.324> 778 89<171.315 257.324> 921 89<536 643 732 922.682>
LayerCount: 2
Fore
SplineSet
55 1000 m 0x0e8c
 82 1000 99 982 99 946 c 2
 99 732 l 1
 921 732 l 1
 921 875 l 2
 921 877 920 879 920 881 c 0
 920 903 933 929 965 929 c 0x058c
 1000 929 1010 899 1010 875 c 2
 1010 875 1010 725 1010 624 c 0
 1010 574 1010 536 1010 536 c 2
 921 536 l 1
 921 643 l 2
 894 643 794 642 672 642 c 0
 429 642 99 643 99 643 c 1
 99 536 l 1
 10 536 l 1
 10 946 l 2
 10 982 28 1000 55 1000 c 0x0e8c
260 1000 m 0x06cc
 319 1000 367 952 367 893 c 0
 367 834 319 786 260 786 c 0
 201 786 153 834 153 893 c 0
 153 952 201 1000 260 1000 c 0x06cc
403 929 m 1x058c
 724 929 l 2
 793 929 867 857 867 786 c 2
 403 786 l 1
 403 929 l 1x058c
296 571 m 1x54ac
 724 571 l 1
 796 357 l 2
 835 357 867 323 867 286 c 2
 867 71 l 1
 796 71 l 1x54ac
 796 71 795 0 724 0 c 0x84ac
 653 0 653 71 653 71 c 1
 367 71 l 1x44cc
 367 71 367 0 296 0 c 0x84cc
 225 0 224 71 224 71 c 1
 153 71 l 1
 153 286 l 2
 153 330 190 357 224 357 c 2
 296 571 l 1x54ac
367 500 m 1x34cc
 322 357 l 1
 698 357 l 1
 653 500 l 1
 367 500 l 1x34cc
296 268 m 0
 266 268 242 244 242 214 c 0
 242 184 266 161 296 161 c 0
 326 161 349 184 349 214 c 0xa4bc
 349 244 326 268 296 268 c 0
724 268 m 0
 694 268 671 244 671 214 c 0
 671 184 694 161 724 161 c 0
 754 161 778 184 778 214 c 0
 778 244 754 268 724 268 c 0
EndSplineSet
Validated: 1
EndChar

StartChar: s
Encoding: 115 115 111
Width: 895
VWidth: 12
Flags: W
HStem: 0 52<97.4014 210.743 684.153 798.186> 249 52<94.6943 211.104 682.324 800.16> 318 133<162 232.027> 668 20G<572 581>
VStem: 10 50<88.6625 213.441> 247 49<88.5496 214.282> 598 50<87.5049 214.399> 835 50<88.219 214.331>
LayerCount: 2
Fore
SplineSet
739 449 m 0
 758 436 768 421 773 403 c 0
 775 397 775 395 775 383 c 0
 775 372 775 368 774 362 c 0
 771 350 767 336 761 324 c 2
 758 318 l 1
 749 318 l 2
 717 316 692 310 670 298 c 0
 622 272 593 224 578 150 c 2
 576 144 l 1
 570 137 l 2
 567 134 562 130 560 128 c 0
 539 113 510 105 468 101 c 0
 449 99 437 99 376 98 c 0
 340 98 311 97 311 97 c 0
 311 97 309 96 308 96 c 0
 305 96 305 95 307 111 c 0
 308 123 309 135 309 147 c 0
 309 161 309 175 307 187 c 0
 298 248 264 289 207 307 c 0
 182 315 159 317 122 318 c 2
 98 319 l 1
 97 321 l 2
 90 329 86 340 86 350 c 0
 86 352 87 355 87 357 c 0
 88 362 92 371 95 374 c 2
 162 451 l 2
 193 451 219 451 242 451 c 0
 329 451 377 450 487 449 c 0
 495 447 529 368 533 361 c 0
 535 357 538 349 539 345 c 0
 539 343 539 343 539 343 c 0
 540 343 553 349 560 352 c 0
 578 361 600 397 611 412 c 0
 611 416 612 421 612 426 c 0
 612 505 569 637 569 676 c 0
 569 683 570 688 574 688 c 0
 588 688 632 626 739 449 c 0
732 301 m 0
 735 301 739 302 742 302 c 0
 781 302 819 285 846 255 c 0
 872 226 885 189 885 151 c 0
 885 128 880 105 870 84 c 0
 848 37 803 6 754 1 c 0
 750 1 747 0 743 -0 c 0
 727 0 710 3 696 8 c 0
 653 23 619 59 605 104 c 0
 600 119 598 135 598 151 c 0
 598 178 606 206 619 229 c 0
 644 271 685 297 732 301 c 0
153 301 m 2
 170 301 175 300 188 297 c 0
 245 282 287 232 295 171 c 0
 296 165 296 158 296 150 c 0
 296 142 296 135 295 130 c 0
 288 79 259 37 215 15 c 0
 201 8 184 3 168 1 c 0
 165 1 161 0 157 0 c 0
 148 0 137 1 130 2 c 0
 69 13 23 61 12 126 c 0
 11 133 10 143 10 152 c 0
 10 160 10 167 11 173 c 0
 16 206 30 234 52 257 c 0
 73 279 99 294 130 300 c 0
 135 301 140 301 153 301 c 2
737 249 m 2
 709 248 683 234 666 210 c 0
 661 203 654 188 652 179 c 0
 649 170 648 160 648 151 c 0
 648 125 657 99 676 80 c 0
 682 73 692 67 699 63 c 0
 704 60 715 56 722 54 c 0
 727 53 736 52 744 52 c 0
 749 52 753 52 756 53 c 0
 794 60 824 90 833 130 c 0
 834 135 835 144 835 152 c 0
 835 157 835 162 834 166 c 0
 826 215 788 250 742 250 c 0
 740 250 739 249 737 249 c 2
154 249 m 2
 137 249 124 246 110 238 c 0
 100 233 94 227 86 219 c 0
 73 205 65 190 61 171 c 0
 60 166 60 158 60 150 c 0
 60 144 60 139 61 135 c 0
 64 112 77 90 94 75 c 0
 107 64 122 56 138 53 c 0
 142 52 148 52 154 52 c 0
 160 52 165 52 169 53 c 0
 215 62 247 104 247 151 c 0
 247 160 246 170 243 179 c 0
 235 208 213 234 185 244 c 0
 174 248 166 249 154 249 c 2
EndSplineSet
Validated: 1
EndChar

StartChar: t
Encoding: 116 116 112
Width: 696
VWidth: 160
Flags: W
HStem: 0 192<258.312 461.688> 399 110<316.847 403.153> 716 204<258.312 461.688>
VStem: 10 88<351.891 555.688> 305 110<410.847 497.153> 622 64<351.891 555.688>
LayerCount: 2
Fore
SplineSet
360 509 m 0
 390 509 415 484 415 454 c 0
 415 424 390 399 360 399 c 0
 330 399 305 424 305 454 c 0
 305 484 330 509 360 509 c 0
686 879 m 2
 686 41 l 2
 686 18 668 0 645 0 c 2
 51 0 l 2
 28 0 10 18 10 41 c 2
 10 879 l 2
 10 902 28 920 51 920 c 2
 645 920 l 2
 668 920 686 902 686 879 c 2
360 192 m 0
 504 192 622 309 622 454 c 0
 622 598 504 716 360 716 c 0
 216 716 98 598 98 454 c 0
 98 309 216 192 360 192 c 0
EndSplineSet
Validated: 1
EndChar

StartChar: u
Encoding: 117 117 113
Width: 940
VWidth: 160
Flags: W
HStem: 0 120<130 810> 240 100<130 810> 460 240<130 239 404 539 701 810> 900 20G<10 145.901 242 425.721 542 722.36 837.545 930>
VStem: 10 120<120 240 340 460> 810 120<120 240 340 460>
LayerCount: 2
Fore
SplineSet
814 700 m 1
 930 810 l 1
 817 920 l 1
 930 920 l 1
 930 0 l 1
 10 0 l 1
 10 920 l 1
 125 920 l 1
 241 809 l 1
 124 700 l 1
 239 700 l 1
 357 811 l 1
 242 920 l 1
 405 920 l 1
 520 809 l 1
 404 700 l 1
 539 700 l 1
 657 811 l 1
 542 920 l 1
 702 920 l 1
 815 809 l 1
 701 700 l 1
 814 700 l 1
810 120 m 1
 810 240 l 1
 130 240 l 1
 130 120 l 1
 810 120 l 1
810 340 m 1
 810 460 l 1
 130 460 l 1
 130 340 l 1
 810 340 l 1
EndSplineSet
Validated: 5
EndChar

StartChar: v
Encoding: 118 118 114
Width: 980
VWidth: -39
Flags: W
HStem: 0 35<130.177 190.274 760.813 821.274> 78 402<299 702 878 970> 107 37<129.967 191.287 759.81 822.287> 167 112<101.248 189.417> 380 30<86.9375 190>
VStem: 40 31<78 109.5> 89 36<40.2132 101.994> 190 70<279 380> 196 36<40.4334 101.774> 720 35<40.4334 101.774> 827 36<40.4334 101.774> 878 92<78 136.915>
LayerCount: 2
Fore
SplineSet
160 144 m 0xa6f0
 200 144 232 112 232 72 c 0
 232 32 200 0 160 0 c 0
 120 0 89 32 89 72 c 0
 89 112 120 144 160 144 c 0xa6f0
160 35 m 0
 180 35 196 51 196 71 c 0
 196 91 180 107 160 107 c 0
 140 107 125 91 125 71 c 0
 125 51 140 35 160 35 c 0
791 144 m 0
 831 144 863 112 863 72 c 0
 863 32 831 0 791 0 c 0
 751 0 720 32 720 72 c 0
 720 112 751 144 791 144 c 0
791 35 m 0
 811 35 827 51 827 71 c 0
 827 91 811 107 791 107 c 0
 771 107 755 91 755 71 c 0
 755 51 771 35 791 35 c 0
950 480 m 2xc770
 961 480 970 471 970 460 c 2
 970 78 l 1
 878 78 l 1xc770
 878 80 l 2
 878 128 839 167 790 167 c 0x9770
 741 167 702 128 702 80 c 2
 702 78 l 1
 247 78 l 1xc770
 247 80 l 2
 247 128 208 167 159 167 c 0x9770
 110 167 71 128 71 80 c 2
 71 78 l 1
 40 78 l 1xc770
 10 213 l 1
 11 213 l 1
 10 219 l 2
 10 234 21 247 35 249 c 2
 56 369 l 1
 56 368 l 2
 60 393 80 410 104 410 c 2
 240 410 l 2
 251 410 260 401 260 390 c 2
 260 279 l 1
 299 279 l 1x9f70
 299 460 l 2
 299 471 308 480 319 480 c 2
 950 480 l 2xc770
190 378 m 1
 190 380 l 1
 104 380 l 2
 95 380 87 373 86 363 c 2
 71 279 l 1
 190 279 l 1x9f70
 190 378 l 1
EndSplineSet
Validated: 5
EndChar

StartChar: w
Encoding: 119 119 115
Width: 1020
VWidth: 128
Flags: W
HStem: 0 143<81 153 296 439 581 724 867 939> 500 71<81 153 318 415.221 603.5 702 867 939> 643 21G<81 939> 837 20G<450 570>
VStem: 153 143<143 477.517> 439 142<143 475.586> 724 143<143 477.517>
CounterMasks: 1 0e
LayerCount: 2
Fore
SplineSet
510 857 m 1
 939 714 l 1
 939 643 l 1
 81 643 l 1
 81 714 l 1
 510 857 l 1
81 571 m 1
 939 571 l 1
 939 500 l 1
 867 500 l 1
 867 143 l 1
 939 143 l 1
 1010 0 l 1
 10 0 l 1
 81 143 l 1
 153 143 l 1
 153 500 l 1
 81 500 l 1
 81 571 l 1
367 500 m 0
 331 500 296 467 296 429 c 2
 296 143 l 1
 439 143 l 1
 439 429 l 2
 439 462 403 500 367 500 c 0
653 500 m 0
 617 500 581 467 581 429 c 2
 581 143 l 1
 724 143 l 1
 724 429 l 2
 724 467 689 500 653 500 c 0
EndSplineSet
Validated: 1
EndChar

StartChar: x
Encoding: 120 120 116
Width: 980
VWidth: 100
Flags: W
HStem: 0 140<110 870> 0 100<50 110 870 930> 0 40<10 50 930 970> 160 360<175 254 359 437 542 620 725 803> 540 40<150 830> 600 21G<70 910> 780 20G<442.273 537.727>
VStem: 165 101<160 370> 175 79<310 520> 348 101<160 370> 359 78<310 520> 531 101<160 370> 542 78<310 520> 714 101<160 370> 725 78<310 520>
LayerCount: 2
Fore
SplineSet
175 520 m 1x1e80
 254 520 l 1x1e80
 266 160 l 1
 165 160 l 1x1f
 175 520 l 1x1e80
110 140 m 1x9e
 870 140 l 1x9e
 870 100 l 1
 930 100 l 1x5e
 930 40 l 1
 970 40 l 1
 970 0 l 1
 10 0 l 1
 10 40 l 1
 50 40 l 1x3e
 50 100 l 1
 110 100 l 1x5e
 110 140 l 1x9e
910 624 m 1
 910 600 l 1
 70 600 l 1
 70 624 l 1
 490 800 l 1
 910 624 l 1
150 580 m 1
 830 580 l 1
 830 540 l 1
 150 540 l 1
 150 580 l 1
725 520 m 1x1e02
 803 520 l 1x1e02
 815 160 l 1
 714 160 l 1x1e04
 725 520 l 1x1e02
542 520 m 1x1e08
 620 520 l 1x1e08
 632 160 l 1
 531 160 l 1x1e10
 542 520 l 1x1e08
359 520 m 1x1e20
 437 520 l 1x1e20
 449 160 l 1
 348 160 l 1x1e40
 359 520 l 1x1e20
EndSplineSet
Validated: 1
EndChar

StartChar: y
Encoding: 121 121 117
Width: 1020
VWidth: 57
Flags: W
HStem: 0 143<389.875 848.297> 429 73<309.081 510 581 653 724 939> 623 20G<10 117 510 581 653 724 1010 1010>
VStem: 296 71<165.799 353.464> 510 71<286 429 501 643> 653 71<286 429 502 643> 867 72<161.169 353.067>
LayerCount: 2
Fore
SplineSet
796 429 m 2
 867 429 939 357 939 286 c 2
 939 143 l 2
 939 75 867 0 796 0 c 2
 439 0 l 2
 368 0 296 72 296 143 c 2
 296 286 l 2
 296 357 368 429 439 429 c 2
 510 429 l 2
 367 358 367 357 367 214 c 0
 367 174 404 146 439 143 c 2
 796 143 l 2
 839 143 867 174 867 214 c 0
 867 357 867 357 724 429 c 2
 796 429 l 2
510 643 m 1
 581 643 l 1
 581 501 l 1
 653 502 l 1
 653 643 l 1
 724 643 l 1
 724 502 l 1
 939 503 l 2
 939 571 1010 571 1010 571 c 1
 1010 357 l 1
 1010 357 939 358 939 429 c 2
 724 429 l 1
 724 286 l 1
 653 286 l 1
 653 429 l 1
 581 429 l 1
 581 286 l 1
 510 286 l 1
 510 429 l 1
 367 429 l 1
 367 500 l 1
 510 501 l 1
 510 643 l 1
10 143 m 2
 10 786 l 2
 224 786 224 500 367 500 c 2
 367 429 l 2
 224 429 224 143 10 143 c 2
EndSplineSet
Validated: 5
EndChar

StartChar: z
Encoding: 122 122 118
Width: 1020
VWidth: 128
Flags: W
HStem: 0 71<318 596.739> 623 20G<750.07 769.93> 714 21G<756 769.5> 786 71<318 596.739>
VStem: 10 214<319.597 538.316>
LayerCount: 2
Fore
SplineSet
439 857 m 0
 574 857 716 810 796 714 c 1
 743 748 648 786 581 786 c 0
 396 786 224 614 224 429 c 0
 224 244 396 71 581 71 c 0
 648 71 743 109 796 143 c 1
 716 47 574 0 439 0 c 0
 197 0 10 187 10 429 c 0
 10 671 197 857 439 857 c 0
760 643 m 1
 831 500 l 1
 1010 500 l 1
 867 393 l 1
 939 214 l 1
 760 321 l 1
 581 214 l 1
 653 393 l 1
 510 500 l 1
 689 500 l 1
 760 643 l 1
EndSplineSet
Validated: 1
EndChar

StartChar: braceleft
Encoding: 123 123 119
Width: 981
VWidth: 180
Flags: W
HStem: 0 21G<32.5 317.5 662.5 947.5> 0 21G<32.5 317.5 662.5 947.5> 760 20G<122.301 410 450 530 570 858.699> 820 140<230 410 570 770>
VStem: 10 320<1.40405 311.795> 230 180<820 960> 450 80<440 780> 570 200<820 960> 650 320<1.49634 307.759>
LayerCount: 2
Fore
SplineSet
230 960 m 1x36
 410 960 l 1
 410 820 l 1
 230 820 l 1
 230 960 l 1x36
605 384 m 0
 588 384 570 401 570 419 c 2
 570 780 l 1xb3
 854 780 l 1
 971 282 l 1
 970 253 l 1
 970 32 l 2
 970 15 956 0 939 0 c 2
 671 0 l 2
 654 0 650 15 650 32 c 2
 650 380 l 1xb280
 610 380 l 1
 605 384 l 0
376 383 m 0
 370 380 l 1
 330 380 l 1
 330 31 l 2
 330 14 326 0 309 0 c 2
 41 0 l 2
 24 0 10 14 10 31 c 2
 10 252 l 1
 10 282 l 1xba
 127 780 l 1
 410 780 l 1
 410 418 l 2xb6
 410 400 393 383 376 383 c 0
450 780 m 1
 530 780 l 1
 530 440 l 1
 450 440 l 1
 450 780 l 1
570 960 m 1x33
 770 960 l 1
 770 820 l 1
 570 820 l 1
 570 960 l 1x33
EndSplineSet
Validated: 1
EndChar

StartChar: bar
Encoding: 124 124 120
Width: 877
VWidth: 128
Flags: W
HStem: 0 21G<81 796> 0 21G<81 796> 837 20G<10 867>
VStem: 403 71<143 429>
LayerCount: 2
Fore
SplineSet
10 857 m 1xb0
 867 857 l 1
 474 429 l 1
 474 143 l 1
 474 143 796 71 796 0 c 2
 81 0 l 2
 81 71 403 143 403 143 c 1
 403 429 l 1
 10 857 l 1xb0
EndSplineSet
Validated: 1
EndChar

StartChar: braceright
Encoding: 125 125 121
Width: 877
VWidth: 200
Flags: W
HStem: 0 71<81 796> 179 35<153 367 510 724> 250 36<153 367 510 724> 321 36<153 367> 357 214<510 724> 393 36<153 367> 464 36<153 367> 536 35<153 367> 643 143<153 724> 857 72<81 796>
VStem: 10 71<71 857> 153 214<179 214 250 286 321 357 393 429 464 500 536 571> 510 214<179 214 250 286 357 571> 796 71<71 857>
LayerCount: 2
Fore
SplineSet
10 929 m 1xe0fc
 867 929 l 1
 867 0 l 1
 10 0 l 1
 10 929 l 1xe0fc
81 857 m 1
 81 71 l 1
 796 71 l 1
 796 857 l 1
 81 857 l 1
153 786 m 1
 724 786 l 1
 724 643 l 1
 153 643 l 1
 153 786 l 1
153 571 m 1xe1fc
 367 571 l 1
 367 536 l 1
 153 536 l 1
 153 571 l 1xe1fc
510 286 m 1
 724 286 l 1
 724 250 l 1
 510 250 l 1
 510 286 l 1
153 500 m 1xe2fc
 367 500 l 1
 367 464 l 1
 153 464 l 1
 153 500 l 1xe2fc
510 214 m 1
 724 214 l 1
 724 179 l 1
 510 179 l 1
 510 214 l 1
153 429 m 1xe4fc
 367 429 l 1
 367 393 l 1
 153 393 l 1
 153 429 l 1xe4fc
153 357 m 1xf0fc
 367 357 l 1
 367 321 l 1
 153 321 l 1
 153 357 l 1xf0fc
510 571 m 1xe8fc
 724 571 l 1
 724 357 l 1
 510 357 l 1
 510 571 l 1xe8fc
153 286 m 1
 367 286 l 1
 367 250 l 1
 153 250 l 1
 153 286 l 1
153 214 m 1
 367 214 l 1
 367 179 l 1
 153 179 l 1
 153 214 l 1
EndSplineSet
Validated: 1
EndChar

StartChar: asciitilde
Encoding: 126 126 122
Width: 949
VWidth: 200
Flags: W
HStem: 0 71<81 867> 174 40<153 439 510 796> 246 40<153 439 510 796> 317 40<153 439> 357 214<510 796> 389 40<153 439> 460 40<153 439> 532 39<153 439> 678 179<153 796> 929 71<81 867>
VStem: 10 71<71 929> 153 286<176 214 247 286 317 355 389 427 462 500 532 570> 510 286<176 214 247 286 357 571> 867 72<71 929>
LayerCount: 2
Fore
SplineSet
510 214 m 1xe0fc
 796 214 l 1
 796 176 l 1
 510 174 l 1
 510 214 l 1xe0fc
510 286 m 1
 796 286 l 1
 796 247 l 1
 510 246 l 1
 510 286 l 1
510 571 m 1xe8fc
 796 571 l 1
 796 357 l 1
 510 357 l 1
 510 571 l 1xe8fc
153 571 m 1xe1fc
 439 570 l 1
 439 531 l 1
 153 532 l 1
 153 571 l 1xe1fc
153 214 m 1
 439 214 l 1
 439 176 l 1
 153 174 l 1
 153 214 l 1
153 286 m 1
 439 286 l 1
 439 247 l 1
 153 246 l 1
 153 286 l 1
153 357 m 1xf0fc
 439 355 l 1
 439 317 l 1
 153 317 l 1
 153 357 l 1xf0fc
153 429 m 1xe4fc
 439 427 l 1
 439 389 l 1
 153 389 l 1
 153 429 l 1xe4fc
153 500 m 1xe2fc
 439 500 l 1
 439 462 l 1
 153 460 l 1
 153 500 l 1xe2fc
153 857 m 1
 796 857 l 1
 796 674 l 1
 153 678 l 1
 153 857 l 1
10 1000 m 2
 939 1000 l 1
 939 0 l 1
 724 0 l 1
 10 0 l 2
 10 214 10 71 10 214 c 0
 10 361 10 889 10 1000 c 2
81 929 m 1
 81 71 l 2
 224 71 123 71 224 71 c 2
 867 71 l 1
 867 929 l 1
 81 929 l 1
EndSplineSet
Validated: 1
EndChar

StartChar: uni007F
Encoding: 127 127 123
Width: 945
VWidth: 0
Flags: W
HStem: 0 60<91.1064 230 310 448.894 743 750 810 818> 540 20G<10 530> 600 20<650 910>
VStem: 230 80<60 230> 625 25<502.614 600> 750 60<60 257.619> 910 25<500.171 600>
LayerCount: 2
Fore
SplineSet
930 620 m 1
 930 620 935 574 935 512 c 0
 935 450 930 370 910 300 c 0
 891 277 852 263 810 257 c 2
 810 60 l 1
 818 60 l 1
 890 0 l 1
 670 0 l 1
 743 60 l 1
 750 60 l 1
 750 255 l 2
 706 259 666 273 650 300 c 0
 630 380 625 460 625 520 c 0
 625 580 630 620 630 620 c 1
 930 620 l 1
910 500 m 1
 910 600 l 1
 650 600 l 1
 650 500 l 1
 910 500 l 1
420 60 m 2
 437 60 450 47 450 30 c 0
 450 13 437 0 420 0 c 2
 120 0 l 2
 103 0 90 13 90 30 c 0
 90 47 103 60 120 60 c 2
 230 60 l 1
 230 230 l 1
 10 560 l 1
 530 560 l 1
 310 230 l 1
 310 60 l 1
 420 60 l 2
EndSplineSet
Validated: 1
EndChar

StartChar: uni0080
Encoding: 128 128 124
Width: 949
VWidth: 200
Flags: W
HStem: -0 249<102.27 224.154> 980 20G<839.14 939>
VStem: 225 107<245 665> 832 107<361 763>
LayerCount: 2
Fore
SplineSet
939 1000 m 1
 939 285 l 2
 939 214 892 145 810 123 c 0
 793 119 776 116 760 116 c 0
 694 116 633 149 620 198 c 0
 618 205 617 212 617 219 c 0
 617 276 674 337 747 357 c 0
 765 362 783 364 800 364 c 0
 811 364 822 363 832 361 c 2
 832 763 l 1
 332 665 l 1
 332 167 l 2
 332 102 284 28 202 6 c 0
 185 2 170 0 153 -0 c 0
 87 0 26 33 13 82 c 0
 11 89 10 96 10 103 c 0
 10 160 67 223 140 243 c 0
 155 247 171 249 186 249 c 0
 199 249 212 247 225 245 c 2
 225 857 l 1
 939 1000 l 1
EndSplineSet
Validated: 1
EndChar

StartChar: uni0081
Encoding: 129 129 125
Width: 949
VWidth: 200
Flags: W
HStem: -0 249<102.27 224.154> 980 20G<839.14 939>
VStem: 225 107<245 665> 832 107<361 763>
LayerCount: 2
Fore
SplineSet
939 1000 m 1
 939 285 l 2
 939 214 892 145 810 123 c 0
 793 119 776 116 760 116 c 0
 694 116 633 149 620 198 c 0
 618 205 617 212 617 219 c 0
 617 276 674 337 747 357 c 0
 765 362 783 364 800 364 c 0
 811 364 822 363 832 361 c 2
 832 763 l 1
 332 665 l 1
 332 167 l 2
 332 102 284 28 202 6 c 0
 185 2 170 0 153 -0 c 0
 87 0 26 33 13 82 c 0
 11 89 10 96 10 103 c 0
 10 160 67 223 140 243 c 0
 155 247 171 249 186 249 c 0
 199 249 212 247 225 245 c 2
 225 857 l 1
 939 1000 l 1
EndSplineSet
Validated: 1
EndChar

StartChar: uni0084
Encoding: 132 132 126
Width: 943
VWidth: -102
Flags: W
HStem: 3 103<183.924 276.055 673.16 764.905> 307 103<183.918 276.061 672.489 766.739>
VStem: 10 153<126.359 285.841> 297 152<126.359 285.841> 500 153<123.878 288.858>
LayerCount: 2
Fore
SplineSet
230 3 m 0
 106 3 10 73 10 203 c 0
 10 334 103 410 230 410 c 0
 357 410 449 334 449 203 c 0
 449 73 354 3 230 3 c 0
230 106 m 0
 275 106 297 144 297 202 c 0
 297 248 287 307 230 307 c 0
 173 307 163 248 163 202 c 0
 163 144 185 106 230 106 c 0
775 257 m 1
 774 277 769 284 759 294 c 0
 749 304 736 308 719 308 c 0
 662 308 653 249 653 203 c 0
 653 145 674 103 719 103 c 0
 759 103 775 137 779 157 c 2
 933 157 l 1
 920 37 826 0 719 0 c 0
 595 0 500 71 500 201 c 0
 500 332 592 412 719 412 c 0
 822 412 919 357 930 257 c 1
 775 257 l 1
EndSplineSet
Validated: 1
EndChar

StartChar: uni0085
Encoding: 133 133 127
Width: 1020
VWidth: -14
Flags: W
HStem: 0 89<135 331 689 885> 268 89<153 367 456.844 563.156 653 867> 554 20G<373.5 382 634 643>
LayerCount: 2
Fore
SplineSet
367 571 m 2
 370 572 372 574 375 574 c 0
 389 574 403 556 403 535 c 0
 403 518 394 497 367 482 c 2
 153 357 l 1
 867 357 l 1
 653 482 l 2
 626 498 616 520 616 539 c 0
 616 559 627 575 641 575 c 0
 645 575 649 573 653 571 c 2
 1010 357 l 2
 1010 214 992 0 921 0 c 2
 653 0 l 2
 582 0 564 250 564 250 c 2
 546 259 528 263 510 263 c 0
 492 263 474 259 456 250 c 2
 456 250 438 0 367 0 c 2
 99 0 l 2
 28 0 10 214 10 357 c 2
 367 571 l 2
99 268 m 1
 135 89 l 1
 331 89 l 1
 367 268 l 1
 99 268 l 1
653 268 m 1
 689 89 l 1
 885 89 l 1
 921 268 l 1
 653 268 l 1
EndSplineSet
Validated: 1
EndChar

StartChar: uni0086
Encoding: 134 134 128
Width: 877
VWidth: 200
Flags: W
HStem: 0 21G<10 81 296 442.245 574.706 724> 0 21G<10 81 296 442.245 574.706 724> 500 337G<10 70.2817 469.718 518.011 612.718 663> 713 214<267.021 395.34>
VStem: 10 71<0 357> 224 215<756.021 883.979>
LayerCount: 2
Fore
SplineSet
331 927 m 0x1c
 390 927 439 879 439 820 c 0
 439 761 390 713 331 713 c 0
 272 713 224 761 224 820 c 0
 224 879 272 927 331 927 c 0x1c
653 857 m 1
 867 429 l 1
 724 357 l 1
 510 786 l 1
 653 857 l 1
510 714 m 1
 653 357 l 1
 439 286 l 1
 413 412 l 1
 224 286 l 1
 10 429 l 1
 10 500 l 1x2c
 224 429 l 1
 388 538 l 1
 367 643 l 1
 510 714 l 1
10 357 m 1
 81 357 l 1
 81 0 l 1
 10 0 l 1x8c
 10 357 l 1
653 286 m 1
 724 0 l 1
 581 0 l 1
 536 143 l 1
 427 0 l 1
 296 0 l 1
 439 214 l 1
 653 286 l 1
EndSplineSet
Validated: 1
EndChar

StartChar: uni0087
Encoding: 135 135 129
Width: 860
VWidth: 180
Flags: W
HStem: 0 21G<164 696> 0 21G<164 696> 847 113<136 724>
LayerCount: 2
Fore
SplineSet
10 960 m 1xa0
 850 960 l 1
 738 56 l 2
 735 28 710 0 682 0 c 2
 178 0 l 2
 150 0 126 28 122 56 c 2
 10 960 l 1xa0
136 847 m 1
 162 621 l 1
 698 621 l 1
 724 847 l 1
 136 847 l 1
EndSplineSet
Validated: 1
EndChar

StartChar: uni0088
Encoding: 136 136 130
Width: 980
VWidth: 180
Flags: W
HStem: 0 65<438.005 484.998> 681 280<81.8506 786.307> 806 34<862 927>
VStem: 390 48<65 94.8132> 443 30<362.338 458> 485 45<65 106.998> 929 41<598 803>
LayerCount: 2
Fore
SplineSet
965 815 m 0xbe
 968 803 970 743 970 684 c 2
 970 578 l 1
 859 551 l 2
 798 536 703 513 648 500 c 0
 593 487 531 472 512 467 c 2
 477 458 l 1
 474 418 l 2
 473 409 473 402 473 396 c 0
 473 376 477 371 501 351 c 2
 530 325 l 1
 530 0 l 1
 390 0 l 1
 390 325 l 1
 416 351 l 2
 440 371 443 376 443 401 c 0
 443 408 443 417 443 429 c 2
 443 480 l 1
 541 504 l 2
 595 517 663 533 691 540 c 0
 719 547 784 564 836 576 c 2
 932 598 l 1
 929 701 l 1
 927 803 l 1
 895 805 l 2
 888 805 883 806 879 806 c 0xbe
 862 806 860 801 852 777 c 0
 839 737 796 699 752 688 c 0
 733 683 675 681 548 681 c 0
 511 681 468 682 419 682 c 0
 144 684 118 685 91 697 c 0
 54 714 28 746 15 788 c 0
 12 799 10 810 10 821 c 0
 10 872 41 922 91 944 c 0
 118 956 144 958 419 960 c 0
 475 960 524 961 564 961 c 0xde
 680 961 733 959 752 954 c 0
 795 943 839 906 852 867 c 2
 862 840 l 1
 911 840 l 2
 960 840 960 837 965 815 c 0xbe
485 87 m 0
 485 105 483 107 463 107 c 0
 448 107 441 103 439 95 c 0
 438 91 438 88 438 85 c 0
 438 72 445 65 460 65 c 0
 462 65 463 65 465 65 c 0
 482 67 485 70 485 87 c 0
EndSplineSet
Validated: 1
EndChar

StartChar: uni0089
Encoding: 137 137 131
Width: 1020
VWidth: 80
Flags: W
HStem: 0 21G<100 220.143 802.786 922> 0 21G<100 220.143 802.786 922> 280 80<10 214 352 649 807 1010> 620 80<190 349 450 552 673 830>
LayerCount: 2
Fore
SplineSet
352 360 m 1x30
 649 360 l 1
 552 620 l 1
 450 620 l 1
 352 360 l 1x30
190 620 m 1
 190 700 l 1
 830 700 l 1
 830 620 l 1
 673 620 l 1
 771 360 l 1
 1010 360 l 1
 1010 280 l 1
 807 280 l 1
 922 0 l 1
 811 0 l 1
 696 280 l 1
 326 280 l 1
 212 0 l 1
 100 0 l 1xb0
 214 280 l 1
 10 280 l 1
 10 360 l 1
 251 360 l 1
 349 620 l 1
 190 620 l 1
EndSplineSet
Validated: 1
EndChar

StartChar: uni008A
Encoding: 138 138 132
Width: 944
VWidth: 200
Flags: W
HStem: 0 71<316.997 416.952 745.77 845.656> 179 53<503 539> 214 72<316.997 402.828 758.956 845.656> 321 54<474 624> 393 36<376.059 439 474 534.941> 480 20G<653 677.912> 536 143<153 400.476> 857 143<153 405.289>
VStem: 10 143<286 536 679 857> 224 72<93.4207 192.306> 439 142<715.952 824.994> 439 67<93.4758 178.304> 439 35<375 393> 653 71<93.4207 193.15> 689 35<375 429> 867 67<93.4758 192.396>
LayerCount: 2
Fore
SplineSet
10 1000 m 1xbfe1
 365 1000 l 2
 473 1000 581 929 581 768 c 0
 581 607 472 536 331 536 c 2
 153 536 l 1
 153 286 l 1
 10 286 l 1
 10 1000 l 1xbfe1
153 857 m 1
 153 679 l 1
 331 679 l 2
 393 679 439 716 439 768 c 0
 439 820 400 857 331 857 c 2
 153 857 l 1
653 500 m 1xbfc5
 724 443 l 1
 724 375 l 1
 764 281 l 2
 774 283 785 286 796 286 c 0xbfc3
 869 286 934 233 934 147 c 0
 934 61 869 0 796 0 c 0
 723 0 653 57 653 143 c 0
 653 198 680 242 720 266 c 2
 694 321 l 1
 564 179 l 1
 503 179 l 2
 505 169 506 158 506 147 c 0xdfd5
 506 61 440 0 367 0 c 0
 294 0 224 57 224 143 c 0
 224 229 294 286 367 286 c 0
 378 286 388 285 398 283 c 2
 439 375 l 1
 439 393 l 1
 403 393 l 2
 385 395 376 403 376 412 c 0
 376 421 385 429 403 429 c 2
 510 429 l 2
 526 429 535 419 535 410 c 0
 535 401 527 393 510 393 c 2
 474 393 l 1
 474 375 l 1
 689 375 l 1
 689 429 l 1xbfcb
 653 458 l 1
 653 500 l 1xbfc5
468 321 m 1
 443 266 l 2
 457 257 469 245 479 232 c 2
 539 232 l 1xdfc1
 624 321 l 1
 468 321 l 1
367 214 m 0xbfd1
 322 214 296 175 296 143 c 0
 296 111 322 71 367 71 c 0
 412 71 439 111 439 143 c 0
 439 175 412 214 367 214 c 0xbfd1
796 214 m 0
 751 214 724 175 724 143 c 0xbfc5
 724 111 751 71 796 71 c 0
 841 71 867 111 867 143 c 0
 867 175 841 214 796 214 c 0
EndSplineSet
Validated: 1
EndChar

StartChar: uni008B
Encoding: 139 139 133
Width: 734
VWidth: 128
Flags: W
HStem: 0 21G<10 188.07> 0 21G<10 188.07> 287 178<189 498.625> 679 180<188 499.188>
VStem: 10 178<0 286 463 678> 546 178<511.646 637.517>
LayerCount: 2
Fore
SplineSet
10 857 m 1xbc
 437 859 l 2
 438 859 438 859 439 859 c 0
 583 859 724 784 724 571 c 0
 724 357 582 288 439 287 c 2
 189 286 l 1
 188 0 l 1
 10 0 l 1
 10 857 l 1xbc
188 678 m 1
 189 463 l 1
 404 465 l 2
 467 465 546 483 546 575 c 0
 546 660 470 679 402 679 c 2
 188 678 l 1
EndSplineSet
Validated: 1
EndChar

StartChar: uni008C
Encoding: 140 140 134
Width: 877
VWidth: 200
Flags: W
HStem: 0 21G<153 296> 0 21G<153 296> 214 143<296 529.114> 571 143<296 530.315> 714 21G<10 70 807.14 867> 980 20G<379 498.86>
VStem: 153 143<0 214 357 571> 581 143<401.99 526.01>
LayerCount: 2
Fore
SplineSet
439 1000 m 1x2f
 867 857 l 1
 867 714 l 1
 439 857 l 1
 10 714 l 1
 10 857 l 1
 439 1000 l 1x2f
439 714 m 2xb7
 440 714 440 714 441 714 c 0
 653 714 724 571 724 464 c 1
 724 357 653 214 439 214 c 2
 296 214 l 1
 296 0 l 1
 153 0 l 1
 153 712 l 1
 439 714 l 2xb7
296 571 m 1
 296 357 l 1
 439 357 l 2
 510 357 581 387 581 464 c 0
 581 541 510 571 439 571 c 2
 296 571 l 1
EndSplineSet
Validated: 1
EndChar

StartChar: uni008D
Encoding: 141 141 135
Width: 770
VWidth: 200
Flags: W
HStem: 0 21G<10 156> 0 21G<10 156> 417 145<156 535.549> 854 146<156 535.549>
VStem: 10 146<0 417 562 854> 600 160<628.911 787.128>
LayerCount: 2
Fore
SplineSet
10 1000 m 1xbc
 510 1000 l 2
 648 1000 760 869 760 708 c 0
 760 547 648 417 510 417 c 2
 156 417 l 1
 156 0 l 1
 10 0 l 1
 10 1000 l 1xbc
156 854 m 1
 156 562 l 1
 468 562 l 2
 541 562 600 628 600 708 c 0
 600 788 541 854 468 854 c 2
 156 854 l 1
EndSplineSet
Validated: 1
EndChar

StartChar: uni008E
Encoding: 142 142 136
Width: 734
VWidth: -14
Flags: W
HStem: 0 21G<10 724> 0 21G<10 724> 551 20G<147.991 168.018>
LayerCount: 2
Fore
SplineSet
10 0 m 1xa0
 153 571 l 1
 367 286 l 1
 581 429 l 1
 724 0 l 1
 10 0 l 1xa0
EndSplineSet
Validated: 1
EndChar

StartChar: uni0090
Encoding: 144 144 137
Width: 1020
VWidth: 200
Flags: W
HStem: 0 21G<331.5 688.5> 0 21G<331.5 688.5> 571 338G<295.5 724.5> 613 21G<439 581> 643 71<81 153 224 296> 671 301<738.393 923.881> 786 71<10 81 153 224 296 367 581 724> 929 71<81 153 224 296>
VStem: 10 71<786 857> 81 72<643 714 929 1000> 115 782<163.624 337.64> 153 71<786 857> 224 72<643 714 929 1000> 296 71<786 857> 439 142<614 786 857 925.399> 653 71<786 857>
LayerCount: 2
Fore
SplineSet
1010 821 m 0x0401
 1010 738 930 671 831 671 c 0
 732 671 653 738 653 821 c 0
 653 904 732 972 831 972 c 0
 930 972 1010 904 1010 821 c 0x0401
581 857 m 1x0203
 724 857 l 1
 724 786 l 1
 581 786 l 1
 581 857 l 1x0203
224 1000 m 1x0108
 296 1000 l 1
 296 929 l 1
 224 929 l 1
 224 1000 l 1x0108
81 1000 m 1x0140
 153 1000 l 1
 153 929 l 1
 81 929 l 1
 81 1000 l 1x0140
81 714 m 1x0840
 153 714 l 1
 153 643 l 1
 81 643 l 1
 81 714 l 1x0840
224 714 m 1x0808
 296 714 l 1
 296 643 l 1
 224 643 l 1
 224 714 l 1x0808
296 857 m 1x0204
 367 857 l 1
 367 786 l 1
 296 786 l 1
 296 857 l 1x0204
153 857 m 1x0210
 224 857 l 1
 224 786 l 1
 153 786 l 1
 153 857 l 1x0210
10 857 m 1x0280
 81 857 l 1
 81 786 l 1
 10 786 l 1
 10 857 l 1x0280
439 613 m 1x1302
 439 857 l 2
 439 928 441 928 510 929 c 0
 581 929 581 928 581 857 c 2
 581 614 l 1
 439 613 l 1x1302
367 571 m 2xa004
 653 571 l 2xa005
 796 571 897 357 897 214 c 0xa020
 897 143 724 0 653 0 c 2
 367 0 l 2xa005
 296 0 115 143 115 214 c 0xa020
 115 357 224 571 367 571 c 2xa004
EndSplineSet
Validated: 5
EndChar

StartChar: uni0091
Encoding: 145 145 138
Width: 1020
VWidth: 200
Flags: W
HStem: 0 21G<273 302 730 798> 0 21G<273 302 730 798> 63 418<443.058 610.956> 619 21G<365.5 398.5 603.5 679> 980 20G<77.445 112.5 285.5 324 637.5 695.5 864.5 944>
VStem: 535 265<727.929 889.934>
LayerCount: 2
Fore
SplineSet
682 1000 m 0x3c
 683 1000 683 1000 684 1000 c 0
 707 1000 729 991 746 976 c 0
 785 941 800 889 800 837 c 0
 800 803 793 769 783 739 c 0
 762 680 711 619 647 619 c 0
 644 619 641 619 638 619 c 0
 569 634 535 711 535 780 c 0
 535 790 536 799 537 808 c 0
 543 893 593 990 682 1000 c 0x3c
320 996 m 2
 328 996 335 995 343 993 c 0
 433 966 477 864 477 772 c 0
 477 764 477 755 476 747 c 0
 472 686 430 617 367 617 c 0
 364 617 360 618 357 618 c 0
 265 640 214 744 213 836 c 0
 213 840 213 844 213 848 c 0
 213 914 251 991 320 996 c 2
914 700 m 0
 974 698 1009 633 1010 577 c 0
 1010 575 1010 573 1010 571 c 0
 1010 474 949 366 850 355 c 0
 848 355 847 355 845 355 c 0
 784 355 747 422 747 480 c 0
 747 484 748 487 748 491 c 0
 752 587 815 693 914 700 c 0
11 571 m 0
 10.986092306 571.709292394 10.9791478743 572.41819794 10.9791478743 573.126590204 c 0
 10.9791478743 623.353476238 45.8900924157 671 109 671 c 0
 116 671 123 670 130 669 c 0
 207 657 266 567 272 479 c 0
 273 473 273 467 273 461 c 0
 273 405 242 343 183 339 c 0
 81 345 10 452 10 553 c 0
 10 559 10 565 11 571 c 0
521 481 m 0
 523 481 525 481 527 481 c 0
 598 481 659 436 706 385 c 0
 767 314 824 234 853 143 c 0
 859 130 861 115 861 101 c 0
 861 50 825 0 771 -0 c 0
 770 0 769 0 768 0 c 0
 767 0 767 0 766 0 c 0xbc
 694 0 634 55 562 61 c 0
 555 62 547 63 540 63 c 0
 462 63 393 13 316 3 c 0
 310 2 305 1 299 1 c 0
 247 1 199 48 198 103 c 0
 204 183 238 258 279 325 c 0
 328 414 420 481 521 481 c 0
EndSplineSet
Validated: 524293
EndChar

StartChar: uni0092
Encoding: 146 146 139
Width: 559
VWidth: 199
Flags: W
HStem: 1 20G<203.5 218 484.5 498.5> 1 20G<203.5 218 484.5 498.5> 564 21G<106 141.129 174.5 184> 700 34G<73 82.5 279 410> 728 150<308.25 405.75>
VStem: 250 200<377.856 600> 288 138<748.5 857.5> 444 105<12.0985 63.3548>
LayerCount: 2
Fore
SplineSet
357 728 m 0x2a
 319 728 288 761 288 803 c 0
 288 845 319 878 357 878 c 0
 395 878 426 845 426 803 c 0
 426 761 395 728 357 728 c 0x2a
548 70 m 2
 549 66 549 61 549 57 c 0
 549 32 532 9 509 2 c 0
 505 1 501 0 496 -0 c 0
 473 0 450 16 444 41 c 2xb1
 351 338 l 1
 260 42 l 2
 254 17 230 1 206 1 c 0
 201 1 196 2 192 3 c 0
 168 10 145 34 145 60 c 0
 145 64 145 67 146 71 c 2
 250 400 l 1
 250 600 l 1
 182 571 l 2
 176 566 188 564 180 564 c 0
 169 564 160 569 153 577 c 2
 51 688 l 2
 45 696 42 705 42 715 c 0
 42 726 46 737 54 745 c 0
 61 751 69 754 77 754 c 0
 88 754 99 749 106 739 c 2
 185 650 l 1
 250 680 l 2
 261 690 279 700 279 700 c 1
 410 700 l 1
 410 700 450 695 450 660 c 2
 450 400 l 1xb4
 548 70 l 2
33 651 m 0
 13 673 l 2
 9 677 9 683 13 687 c 2
 14 688 l 2
 18 692 23 692 27 688 c 2
 47 666 l 2
 51 662 50 656 47 652 c 2
 46 651 l 2
 42 647 36 647 33 651 c 0
223 903 m 1
 307 994 l 2
 311 998 316 1000 322 1000 c 0
 334 1000 344 989 344 976 c 0
 344 970 341 964 338 960 c 2
 251 872 l 1
 120 748 l 1
 106 764 l 1
 223 903 l 1
EndSplineSet
Validated: 1
EndChar

StartChar: uni0093
Encoding: 147 147 140
Width: 820
VWidth: 150
Flags: W
HStem: 0 21G<273.5 306.5 513.5 546.5> 0 21G<273.5 306.5 513.5 546.5> 501 67G<50 66 309 333.5 382.5 438 486.5 511 754 770> 571 21G<225 262 558 595>
VStem: 10 184<368.228 477.274> 116 588<67.2064 217> 154 214<626.411 817.195> 452 214<626.411 817.195> 626 184<368.228 477.274>
LayerCount: 2
Fore
SplineSet
410 521 m 0xb4
 466 521 513 482 526 431 c 0
 543 367 540 297 614 260 c 0
 679 238 704 210 704 135 c 0
 704 75 653 12 587 4 c 0
 570 1 554 0 539 0 c 0
 488 0 446 14 410 34 c 0
 374 14 332 0 281 0 c 0
 266 0 250 1 233 4 c 0
 167 12 116 76 116 135 c 0
 116 208 142 239 207 260 c 0
 287 301 276 373 294 435 c 0
 308 485 355 521 410 521 c 0xb4
777 565 m 0
 800 545 810 509 810 470 c 0
 810 438 803 405 792 376 c 0
 779 340 748 314 712 314 c 0
 664 314 626 359 626 413 c 0x3080
 626 440 635 464 651 482 c 0
 674 512 740 568 768 568 c 0
 772 568 775 567 777 565 c 0
43 565 m 0
 45 567 48 568 52 568 c 0
 80 568 146 512 169 482 c 0
 185 464 194 440 194 413 c 0
 194 359 156 314 108 314 c 0
 72 314 41 340 28 376 c 0
 17 405 10 438 10 470 c 0x38
 10 509 20 545 43 565 c 0
517 919 m 0
 620 902 666 806 666 719 c 0
 666 641 629 571 561 571 c 0
 555 571 549 572 543 573 c 0
 496 581 461 623 456 674 c 0
 454 690 452 722 452 757 c 0x31
 452 831 463 920 510 920 c 0
 512 920 515 919 517 919 c 0
303 919 m 0
 305 919 308 920 310 920 c 0
 357 920 368 831 368 757 c 0
 368 722 366 690 364 674 c 0
 359 623 324 581 277 573 c 0
 271 572 265 571 259 571 c 0
 191 571 154 641 154 719 c 0x32
 154 806 200 902 303 919 c 0
EndSplineSet
Validated: 1
EndChar

StartChar: uni0094
Encoding: 148 148 141
Width: 734
VWidth: 200
Flags: W
HStem: 0 286<153 296 439 581> 0 143<296 439> 429 285<153 296 439 581> 571 143<296 439> 786 214<153 581>
VStem: 10 286<143 286 429 571> 10 143<286 429> 439 285<143 286 429 571> 581 143<286 429>
LayerCount: 2
Fore
SplineSet
153 714 m 1x2a
 581 714 l 1x2a80
 724 571 l 1x19
 724 0 l 1
 10 0 l 1x5a80
 10 571 l 1x5c
 153 714 l 1x2a
296 571 m 1x1d
 296 429 l 1x2d
 153 429 l 1
 153 286 l 1xaa
 296 286 l 1xac
 296 143 l 1
 439 143 l 1x4d
 439 286 l 1x8d
 581 286 l 1
 581 429 l 1xa880
 439 429 l 1xa9
 439 571 l 1
 296 571 l 1x1d
153 1000 m 1x0a80
 581 1000 l 1
 581 786 l 1
 153 786 l 1
 153 1000 l 1x0a80
EndSplineSet
Validated: 1
EndChar

StartChar: uni0095
Encoding: 149 149 142
Width: 975
VWidth: -120
Flags: W
HStem: 0 40<490 848.736> 300 40<490 848.736>
VStem: 10 480<91.2372 248.763> 916 49<102.508 237.492>
LayerCount: 2
Fore
SplineSet
777 340 m 2
 880 340 965 267 965 170 c 0
 965 73 880 0 777 0 c 2
 198 0 l 2
 95 0 10 73 10 170 c 0
 10 267 95 340 198 340 c 2
 777 340 l 2
777 40 m 2
 853 40 916 98 916 170 c 0
 916 242 853 300 777 300 c 2
 490 300 l 1
 490 40 l 1
 777 40 l 2
EndSplineSet
Validated: 1
EndChar

StartChar: uni0096
Encoding: 150 150 143
Width: 1024
VWidth: 202
Flags: W
HStem: 3 70<476.251 685.888> 178 357<496.615 667.153> 644 73<476.251 685.888> 746 41<734 942> 751 110<102.96 255.334> 930 72<732 940>
VStem: 11 285<254.112 463.749> 84 214<753 837.425> 403 357<271.615 442.153> 653 79<787 929> 867 147<254.112 463.749> 942 69<788 930>
LayerCount: 2
Fore
SplineSet
146 718 m 2xe620
 871 717 l 2
 1010 716 1009 717 1013 574 c 2
 1014 147 l 2
 1010 7 1010 3 882 3 c 0
 878 3 875 3 871 3 c 2
 148 0 l 2
 21 2 11 2 11 111 c 0
 11 121 11 131 11 143 c 2
 10 575 l 2
 10 578 10 580 10 583 c 0
 10 704 13 717 146 718 c 2xe620
581 644 m 0
 423 644 296 517 296 359 c 0
 296 201 423 73 581 73 c 0
 739 73 867 201 867 359 c 0
 867 517 739 644 581 644 c 0
152 861 m 2xed
 225 861 l 2
 295 860 296 788 298 753 c 2
 85 751 l 2
 84 758 84 765 84 774 c 0
 84 812 95 860 152 861 c 2xed
760 357 m 0xe480
 760 258 681 178 582 178 c 0
 483 178 403 258 403 357 c 0
 403 456 483 535 582 535 c 0
 681 535 760 456 760 357 c 0xe480
653 932 m 2xf450
 653 934 653 937 653 939 c 0
 653 996 654 1002 706 1002 c 0
 712 1002 720 1001 728 1001 c 2
 940 1002 l 2
 943 1002 946 1002 949 1002 c 0
 1010 1002 1010 1000 1012 941 c 2
 1011 747 l 1
 652 746 l 1
 653 932 l 2xf450
732 929 m 1
 734 787 l 1
 942 788 l 1
 940 930 l 1
 732 929 l 1
EndSplineSet
Validated: 1
EndChar

StartChar: uni0097
Encoding: 151 151 144
Width: 980
VWidth: 159
Flags: W
HStem: 0 21G<195.5 205.5 341.5 352> 0 21G<195.5 205.5 341.5 352> 147 89<159 180 367 389> 487 413G<194 352 445.5 454.5 930.5 939.5> 502 139<224.978 323.022> 751 139<642.978 741.384>
VStem: 180 187<236 386> 206 136<521.569 622.271> 601 76<40.7672 403> 624 136<770.206 870.908> 708 76<40.7672 403>
LayerCount: 2
Fore
SplineSet
692 751 m 0x2440
 655 751 624 782 624 821 c 0
 624 859 655 890 692 890 c 0
 730 890 760 859 760 821 c 0
 760 782 730 751 692 751 c 0x2440
743 735 m 1
 910 909 l 2
 917 916 926 920 935 920 c 0
 944 920 952 917 959 910 c 0
 966 903 970 893 970 884 c 0
 970 875 967 867 961 860 c 2
 784 678 l 1
 784 76 l 2
 784 54 767 37 746 37 c 0
 725 37 708 54 708 76 c 2
 708 403 l 1
 677 403 l 1
 677 76 l 2
 677 54 660 37 639 37 c 0
 618 37 601 54 601 76 c 2
 601 678 l 1x20a0
 424 860 l 2
 418 867 415 875 415 884 c 0
 415 893 419 903 426 910 c 0
 433 917 441 920 450 920 c 0
 459 920 468 916 475 909 c 2
 644 735 l 1
 743 735 l 1
384 470 m 1
 526 323 l 2
 532 316 536 307 536 298 c 0
 536 289 532 280 525 273 c 0
 518 266 510 263 501 263 c 0
 492 263 483 267 476 274 c 2
 367 386 l 1
 367 236 l 1
 491 236 l 2
 514 236 532 216 532 193 c 0
 532 181 528 170 520 162 c 2
 380 19 l 2
 372 7 359 0 345 -0 c 0
 338 0 331 2 324 6 c 0
 311 14 303 28 303 43 c 0
 303 50 305 58 309 65 c 2
 389 147 l 1
 160 147 l 1
 159 147 l 1
 238 65 l 2
 242 58 244 50 244 43 c 0
 244 28 237 14 223 6 c 0
 216 2 209 0 202 0 c 0
 189 0 175 7 167 19 c 2
 28 163 l 2
 20 171 15 181 15 193 c 0
 15 216 33 236 56 236 c 2
 180 236 l 1
 180 388 l 1
 70 274 l 2
 63 267 54 263 45 263 c 0
 36 263 28 266 21 273 c 0
 14 280 10 290 10 299 c 0
 10 308 14 316 20 323 c 2
 162 470 l 2
 172 481 186 487 202 487 c 2
 344 487 l 2xb2
 360 487 374 481 384 470 c 1
274 502 m 0x29
 237 502 206 534 206 572 c 0
 206 611 237 641 274 641 c 0
 311 641 342 611 342 572 c 0
 342 534 311 502 274 502 c 0x29
EndSplineSet
Validated: 1
EndChar

StartChar: uni0098
Encoding: 152 152 145
Width: 800
VWidth: 200
Flags: W
HStem: 0 143<505 719> 500 21G<101.017 172.282> 713 20G<34 48.5 462 497> 786 214<333.021 461.34>
VStem: 290 215<829.021 956.979>
LayerCount: 2
Fore
SplineSet
397 1000 m 0
 456 1000 505 952 505 893 c 0
 505 834 456 786 397 786 c 0
 338 786 290 834 290 893 c 0
 290 952 338 1000 397 1000 c 0
17 673 m 2
 12 681 10 690 10 697 c 0
 10 718 25 733 43 733 c 0
 54 733 66 727 76 714 c 2
 147 607 l 1
 362 714 l 1
 433 725 l 2
 445 727 457 728 467 728 c 0
 527 728 561 697 576 643 c 2
 634 357 l 2
 636 346 639 336 639 324 c 0
 639 297 626 264 576 214 c 2
 505 143 l 1
 719 143 l 1
 719 143 790 142 790 71 c 0
 790 0 719 0 719 0 c 1
 290 0 l 1
 290 0 219 0 219 71 c 0
 221 110 236 121 255 143 c 2
 397 286 l 1
 326 571 l 1
 112 500 l 1
 17 673 l 2
EndSplineSet
Validated: 1
EndChar

StartChar: uni0099
Encoding: 153 153 146
Width: 980
VWidth: 180
Flags: W
HStem: 0 117<189 778> 497 21G<10 39.6154 942.982 970> 507 49<280.068 302 408 431.465 560.228 580 686 700.822> 565 79<319.393 389.633 598.181 667.819> 940 20G<460.724 517.45> 940 20G<460.724 517.45>
VStem: 87 102<117 549> 253 26<367.003 506.354> 301 42<157.009 364> 315 79<569.181 639.607> 368 41<155.032 364> 432 26<367.003 506.437> 535 25<367.012 506.354> 579 45<157.059 364> 594 78<568.767 640.04> 637 48<155.282 364> 701 39<367.012 506.437> 778 115<117 554>
LayerCount: 2
Fore
SplineSet
856 702 m 1xdb18c0
 970 619 l 1
 970 497 l 1
 893 554 l 1
 893 0 l 1
 87 0 l 1
 87 549 l 1
 10 497 l 1
 10 619 l 1
 85 671 l 1
 408 901 l 1
 407 902 l 1
 489 960 l 1
 856 702 l 1xdb18c0
778 117 m 1
 778 633 l 1
 490 840 l 1
 189 623 l 1
 189 117 l 1
 778 117 l 1
355 565 m 0
 333 565 315 582 315 604 c 0
 315 626 333 644 355 644 c 0
 376 644 394 626 394 604 c 0x9358c0
 394 582 376 565 355 565 c 0
301 181 m 2xb3b8c0
 302 507 l 1
 279 507 l 1
 279 377 l 2
 279 371 272 367 266 367 c 0
 260 367 253 371 253 377 c 2
 253 505 l 2
 253 534 275 556 303 556 c 2
 407 556 l 2
 438 556 458 530 458 504 c 2
 458 377 l 2
 458 371 451 367 445 367 c 0
 439 367 432 371 432 377 c 2
 432 507 l 1
 408 507 l 1
 409 181 l 2
 409 169 400 155 388 155 c 0
 376 155 368 166 368 178 c 2
 368 364 l 1
 343 364 l 1
 343 178 l 2
 343 166 334 157 322 157 c 0
 310 157 301 169 301 181 c 2xb3b8c0
633 565 m 0
 611 565 594 582 594 604 c 0
 594 626 611 644 633 644 c 0
 655 644 672 626 672 604 c 0x931ac0
 672 582 655 565 633 565 c 0
579 181 m 1xb31dc0
 580 507 l 1
 560 507 l 1
 560 377 l 2
 560 371 554 367 548 367 c 0
 542 367 535 371 535 377 c 2
 535 505 l 2
 535 534 556 556 584 556 c 2
 687 556 l 2
 718 556 740 530 740 504 c 2
 740 377 l 2
 740 371 730 367 720 367 c 0
 710 367 701 371 701 377 c 2
 701 507 l 1
 686 507 l 1
 685 181 l 2
 685 169 674 155 662 155 c 0
 650 155 637 166 637 178 c 2
 637 364 l 1
 624 364 l 1
 624 178 l 2
 624 166 614 157 602 157 c 0
 590 157 579 169 579 181 c 1xb31dc0
EndSplineSet
Validated: 1
EndChar

StartChar: uni009A
Encoding: 154 154 147
Width: 1020
VWidth: 200
Flags: W
HStem: 0 21G<367 653> 0 21G<367 653> 500 214<770.406 891.933> 659 20G<10 64.8148 171.5 260> 714 215<199.645 319.933>
VStem: 153 214<761.067 882.594> 724 215<546.406 667.594>
LayerCount: 2
Fore
SplineSet
253 929 m 0x0e
 255 929 257 929 259 929 c 0
 315 929 367 878 367 822 c 0
 367 766 316 714 260 714 c 0
 204 714 153 766 153 822 c 0
 153 876 199 926 253 929 c 0x0e
825 714 m 0x26
 827 714 829 714 831 714 c 0
 887 714 939 663 939 607 c 0
 939 551 887 500 831 500 c 0
 775 500 724 551 724 607 c 0
 724 661 771 711 825 714 c 0x26
224 679 m 0x16
 296 679 314 600 314 521 c 0
 314 473 307 425 302 395 c 2
 727 243 l 2
 731 304 750 464 867 464 c 0
 939 464 957 385 957 307 c 0
 957 250 948 193 943 167 c 2
 1010 143 l 1
 1010 71 l 1
 586 223 l 1
 653 0 l 1
 367 0 l 1
 436 277 l 1
 10 429 l 1
 10 500 l 1xa6
 84 473 l 2
 91 545 119 679 224 679 c 0x16
EndSplineSet
Validated: 1
EndChar

StartChar: uni009B
Encoding: 155 155 148
Width: 940
VWidth: 159
Flags: W
HStem: 200 140<690 911.649> 337 215<51.9632 176.466> 503 21G<366.921 404.087> 900 20G<147 200.117 457 471>
VStem: 10 208<380.66 508.979>
LayerCount: 2
Fore
SplineSet
114 337 m 0x58
 57 337 10 386 10 445 c 0
 10 504 57 552 114 552 c 0
 172 552 218 504 218 445 c 0
 218 386 172 337 114 337 c 0x58
699 153 m 1
 704 156 710 156 714 151 c 2
 733 123 l 2
 736 118 736 112 731 108 c 2
 589 2 l 2
 584 -1 578 -1 574 4 c 2
 555 32 l 2
 552 37 552 43 557 47 c 2
 699 153 l 1
539 289 m 1
 509 267 l 1
 453 368 l 1
 482 390 l 1
 539 289 l 1
408 526 m 1
 378 503 l 1x38
 147 920 l 1
 189 920 l 1
 408 526 l 1
613 317 m 1
 625 326 654 340 670 340 c 2
 870 340 l 2
 909 340 930 300 930 260 c 0
 930 219 909 200 870 200 c 2
 690 200 l 1x98
 473 30 l 2
 449 12 428 6 411 6 c 0
 373 6 351 36 351 36 c 1
 181 210 l 2
 169 225 163 246 163 267 c 0
 163 295 174 324 193 341 c 2
 428 513 l 2
 438 522 451 527 463 527 c 0
 479 527 495 519 506 506 c 0
 515 495 518 483 518 470 c 0
 518 454 512 438 499 427 c 2
 348 313 l 1
 456 204 l 1
 613 317 l 1
EndSplineSet
Validated: 1
EndChar

StartChar: uni009C
Encoding: 156 156 149
Width: 980
VWidth: 160
Flags: W
HStem: 0 21G<816 856> 0 21G<816 856> 289 79<703 743 930 970> 513 184<237 383 597 743> 716 20G<383 463 517 597> 841 79<10 50 237 277>
VStem: 50 187<697 841> 383 80<473 513 697 736> 517 80<473 513 697 736> 743 187<368 513> 763 146<21 134.187>
LayerCount: 2
Fore
SplineSet
909 72 m 0xbfa0
 909 32 876 0 836 0 c 0
 796 0 763 32 763 72 c 0
 763 112 837 223 837 223 c 1
 837 223 909 112 909 72 c 0xbfa0
383 697 m 1
 383 736 l 1
 463 736 l 1
 463 473 l 1
 383 473 l 1
 383 513 l 1
 157 513 l 2
 98 513 50 560 50 618 c 2
 50 841 l 1
 10 841 l 1
 10 920 l 1
 277 920 l 1
 277 841 l 1
 237 841 l 1
 237 697 l 1
 383 697 l 1
930 368 m 1x3fc0
 970 368 l 1
 970 289 l 1
 703 289 l 1
 703 368 l 1
 743 368 l 1
 743 513 l 1
 597 513 l 1
 597 473 l 1
 517 473 l 1
 517 736 l 1
 597 736 l 1
 597 697 l 1
 823 697 l 2
 882 697 930 649 930 591 c 2
 930 368 l 1x3fc0
EndSplineSet
Validated: 1
EndChar

StartChar: uni009D
Encoding: 157 157 150
Width: 1020
VWidth: 57
Flags: W
HStem: 0 21G<221.972 236.368 500.498 517.059> 0 21G<221.972 236.368 500.498 517.059> 511 19G<129 207.5 938.5 952.5> 837 20G<331.5 504.97 845.92 890>
LayerCount: 2
Fore
SplineSet
367 857 m 0x30
 374 857 381 857 388 857 c 0
 581 824 l 0
 760 757 895 627 1010 509 c 1
 867 610 654 695 543 719 c 0
 524 721 508 722 493 722 c 0
 426 722 398 702 367 681 c 0
 291 605 262 511 153 511 c 0
 105 511 58 538 10 538 c 1
 10 609 82 681 153 752 c 0
 224 823 296 857 367 857 c 0x30
892 489 m 2
 888 476 882 462 876 449 c 2
 1010 214 l 1
 809 346 l 2
 805 342 802 337 798 333 c 2
 796 71 l 1
 655 241 l 2
 633 233 612 225 588 221 c 2
 510 0 l 1
 405 221 l 2
 390 223 378 226 365 228 c 2
 224 0 l 1xb0
 195 286 l 1
 10 143 l 1
 108 393 l 1
 108 395 l 1
 106 397 99 404 99 407 c 0
 99 407 99 407 100 407 c 0
 116 407 289 354 475 354 c 0
 518 354 562 357 604 364 c 2
 892 489 l 2
EndSplineSet
Validated: 1
EndChar

StartChar: uni009E
Encoding: 158 158 151
Width: 980
VWidth: 180
Flags: W
HStem: 0 120<511.467 708.963> 240 240<543.027 676.973> 600 360<511.037 708.963> 600 120<143.745 236.255>
VStem: 10 120<493.745 586.255> 250 120<360 540> 490 240<293.027 426.973> 850 120<261.037 458.963>
LayerCount: 2
Fore
SplineSet
610 480 m 0xcf
 676 480 730 426 730 360 c 0
 730 294 676 240 610 240 c 0
 544 240 490 294 490 360 c 0
 490 426 544 480 610 480 c 0xcf
850 720 m 2xdf
 916 720 970 666 970 600 c 2
 970 0 l 1
 10 0 l 1
 10 600 l 2
 10 666 64 720 130 720 c 2
 370 720 l 1xdf
 473 918 l 2
 481 942 503 960 530 960 c 2
 694 960 l 2xef
 720 960 743 943 751 919 c 2
 850 720 l 2xdf
190 480 m 0
 223 480 250 507 250 540 c 0
 250 573 223 600 190 600 c 0
 157 600 130 573 130 540 c 0
 130 507 157 480 190 480 c 0
610 120 m 0
 743 120 850 227 850 360 c 0
 850 493 743 600 610 600 c 0xef
 477 600 370 493 370 360 c 0
 370 227 478 120 610 120 c 0
EndSplineSet
Validated: 1
EndChar

StartChar: uni009F
Encoding: 159 159 152
Width: 734
VWidth: 200
Flags: W
HStem: 0 21G<10 134.64 227 724> 0 21G<10 134.64 227 724> 480 20G<102.5 510 601.4 661> 571 215<273.498 460.502> 857 143<224 510>
LayerCount: 2
Fore
SplineSet
224 1000 m 1x38
 510 1000 l 1
 581 929 l 1
 581 857 l 1
 153 857 l 1
 153 929 l 1
 224 1000 l 1x38
153 786 m 2
 581 786 l 1
 581 786 581 762 581 749 c 0
 581 647 466 571 367 571 c 0
 268 571 153 647 153 749 c 0
 153 758 152 766 152 774 c 0
 152 778 152 782 153 786 c 2
153 500 m 2
 510 500 l 1
 119 0 l 1
 10 0 l 1xb8
 10 286 l 2
 11 366 52 500 153 500 c 2
617 500 m 2
 705 500 724 366 724 286 c 2
 724 0 l 1
 227 0 l 1
 617 500 l 2
EndSplineSet
Validated: 1
EndChar

StartChar: uni00A0
Encoding: 160 160 153
Width: 860
VWidth: 179
Flags: W
HStem: 0 21G<423 432> 0 21G<423 432> 502 127<378 488.096> 701 198<286.312 410.485 443.147 539.038> 934 20G<125.851 166.5 407.5 446 695 736>
VStem: 10 276<282.18 485.512> 67 219<527.237 698.283> 378 124<517.161 617.406> 381 465<280.963 430.756> 598 191<520.868 642.451>
LayerCount: 2
Fore
SplineSet
502 569 m 0x39
 502 502 446 502 416 502 c 2
 378 502 l 1
 378 629 l 1
 425 629 l 2
 451 629 502 629 502 569 c 0x39
790 636 m 0
 790 632 789 629 789 625 c 0xba40
 789 596 798 557 814 510 c 0
 834 453 846 413 846 384 c 0
 846 329 830 280 797 236 c 0
 771 204 731 169 675 129 c 0
 660 119 635 108 602 96 c 0
 585 90 571 85 559 80 c 0
 547 75 538 71 531 67 c 0
 527 65 519 62 509 58 c 0
 499 53 487 47 473 41 c 0
 453 29 437 16 427 0 c 1
 419 14 404 28 383 41 c 0
 373 46 364 50 355 54 c 2
 327 67 l 2
 293 76 244 97 181 129 c 0
 124 169 82 204 57 237 c 0
 26 281 10 331 10 385 c 0xbc80
 10 401 14 416 19 439 c 0
 24 460 31 485 41 514 c 0
 58 562 67 600 67 629 c 0
 67 632 67 634 67 636 c 0xba
 63 700 44 762 11 820 c 2
 146 954 l 2
 187 922 234 905 285 900 c 0
 292 899 299 899 306 899 c 0
 348 899 388 908 427 928 c 0
 465 908 505 899 546 899 c 0
 554 899 562 899 570 900 c 0
 625 904 674 923 716 960 c 2
 850 826 l 2
 815 768 796 705 790 636 c 0
543 452 m 0
 577 475 598 519 598 570 c 0x3840
 598 593 594 624 571 652 c 0
 535 696 483 701 421 701 c 2
 286 701 l 1
 286 259 l 1
 381 259 l 1
 381 431 l 1x3a80
 444 431 l 2
 467 431 511 431 543 452 c 0
EndSplineSet
Validated: 1
EndChar

StartChar: exclamdown
Encoding: 161 161 154
Width: 980
VWidth: 40
Flags: W
HStem: 0 140<70 110 150 172 808 830 870 910> 0 60<270 710> 200 60<70 110 150 210 770 830 870 910> 320 60<70 110 150 210 770 830 870 910> 612 84<510.468 606.784 608.61 650> 620 83<539.985 649.298> 700 20G<486.5 493.5>
VStem: 10 60<140 200 260 320> 110 40<140 200 260 320> 210 60<140 200 260 320> 290 80<80 360> 450 80<80 360> 470 40<581 619 696.616 719.996> 610 80<80 360> 710 60<140 200 260 320> 830 40<140 200 260 320> 910 60<140 200 260 320>
LayerCount: 2
Fore
SplineSet
237 400 m 2x39f780
 222 400 214 415 214 428 c 0
 214 430 214 433 214 436 c 0
 214 442 216 448 230 451 c 2
 224 452 l 1
 219 452 l 1
 470 581 l 1
 470 708 l 2
 470 715 483 720 490 720 c 0x3bef80
 497 720 510 715 510 708 c 2
 510 703 l 2x35ef80
 520 698 529 696 539 696 c 0x39ef80
 560 696 582 703 608 703 c 0x35ef80
 621 703 635 701 650 696 c 2
 650 612 l 2x39ef80
 635 617 621 620 608 620 c 0x35ef80
 582 620 560 612 539 612 c 0
 529 612 520 614 510 619 c 2
 510 581 l 1x39ef80
 761 452 l 1
 759 451 l 1
 759 450 l 1
 759 449 l 2
 766 445 770 436 770 428 c 0
 770 415 758 400 743 400 c 2
 690 400 l 1
 690 80 l 1
 610 80 l 1
 610 360 l 1
 530 360 l 1
 530 80 l 1
 450 80 l 1
 450 360 l 1
 370 360 l 1
 370 80 l 1
 290 80 l 1
 290 400 l 1
 237 400 l 2x39f780
270 60 m 1x71e780
 710 60 l 1
 770 0 l 1
 210 0 l 1
 270 60 l 1x71e780
710 380 m 1
 970 380 l 1
 970 0 l 1x71e780
 808 0 l 1xb1e780
 789 19 l 1
 736 69 l 1
 728 80 l 1
 710 80 l 1
 710 380 l 1
830 140 m 1xb1e780
 830 200 l 1
 770 200 l 1
 770 140 l 1
 830 140 l 1xb1e780
830 260 m 1
 830 320 l 1
 770 320 l 1
 770 260 l 1
 830 260 l 1
910 140 m 1
 910 200 l 1
 870 200 l 1
 870 140 l 1
 910 140 l 1
910 260 m 1
 910 320 l 1
 870 320 l 1
 870 260 l 1
 910 260 l 1
252 80 m 1
 244 69 l 1
 191 17 l 1
 172 0 l 1xb1e780
 10 0 l 1x71e780
 10 380 l 1
 270 380 l 1
 270 80 l 1
 252 80 l 1
110 140 m 1
 110 200 l 1
 70 200 l 1
 70 140 l 1
 110 140 l 1
110 260 m 1
 110 320 l 1
 70 320 l 1
 70 260 l 1
 110 260 l 1
210 140 m 1
 210 200 l 1
 150 200 l 1
 150 140 l 1
 210 140 l 1
210 260 m 1
 210 320 l 1
 150 320 l 1
 150 260 l 1
 210 260 l 1
EndSplineSet
Validated: 5
EndChar

StartChar: cent
Encoding: 162 162 155
Width: 780
VWidth: 160
Flags: W
HStem: 0 21G<250 350 670 770> 0 21G<250 350 670 770> 200 670<407.781 612.219> 680 21G<144.75 177.5> 899 21<327.161 350>
VStem: 250 100<0 200> 670 100<0 200>
LayerCount: 2
Fore
SplineSet
510 870 m 0xae
 656 870 770 754 770 611 c 2
 770 0 l 1
 670 0 l 1
 670 200 l 1
 350 200 l 1
 350 0 l 1
 250 0 l 1
 250 611 l 2
 250 754 364 870 510 870 c 0xae
10 920 m 1
 350 920 l 1
 350 899 l 1
 250 862 182 780 173 680 c 1
 157 680 l 1x1e
 10 920 l 1
EndSplineSet
Validated: 1
EndChar

StartChar: sterling
Encoding: 163 163 156
Width: 1020
VWidth: 57
Flags: W
HStem: 0 21G<10 1010> 0 21G<10 1010> 694 20G<10 1010>
LayerCount: 2
Fore
SplineSet
10 714 m 1x20
 1010 714 l 1
 1010 643 l 1
 510 357 l 1
 10 643 l 1
 10 714 l 1x20
10 500 m 1
 510 214 l 1
 1010 500 l 1
 1010 0 l 1
 10 0 l 1xa0
 10 500 l 1
EndSplineSet
Validated: 1
EndChar

StartChar: currency
Encoding: 164 164 157
Width: 1020
VWidth: 0
Flags: W
HStem: 0 21G<51 969> 0 21G<51 969> 620 20G<10 36.2467 56.5 963.5 983.753 1010>
LayerCount: 2
Fore
SplineSet
69 640 m 1x20
 951 640 l 2
 976 640 985 637 985 632 c 0
 985 625 968 613 951 599 c 2
 510 265 l 1
 69 601 l 2
 52 615 35 625 35 632 c 0
 35 637 44 640 69 640 c 1x20
10 561 m 1
 510 180 l 1
 1010 561 l 1
 1010 67 l 2
 1010 38 981 0 957 0 c 2
 63 0 l 2xa0
 39 0 10 38 10 67 c 2
 10 561 l 1
EndSplineSet
Validated: 1
EndChar

StartChar: yen
Encoding: 165 165 158
Width: 1020
VWidth: 57
Flags: W
HStem: 0 21G<10 1010> 0 21G<10 1010> 694 20G<10 1010>
LayerCount: 2
Fore
SplineSet
10 714 m 1x20
 1010 714 l 1
 1010 643 l 1
 510 357 l 1
 10 643 l 1
 10 714 l 1x20
10 500 m 1
 510 214 l 1
 1010 500 l 1
 1010 0 l 1
 10 0 l 1xa0
 10 500 l 1
EndSplineSet
Validated: 1
EndChar

StartChar: brokenbar
Encoding: 166 166 159
Width: 620
VWidth: 200
Flags: W
HStem: 0 21G<310 310> 0 21G<310 310> 797 203<248.868 366.451>
VStem: 10 206<647.571 763.52> 402 208<647.571 763.52>
LayerCount: 2
Fore
SplineSet
310 1000 m 0xb8
 476 1000 610 867 610 703 c 0
 610 539 310 0 310 0 c 1
 310 0 10 539 10 703 c 0
 10 867 144 1000 310 1000 c 0xb8
309 614 m 0
 360 614 402 655 402 706 c 0
 402 757 360 797 309 797 c 0
 258 797 216 757 216 706 c 0
 216 655 258 614 309 614 c 0
EndSplineSet
Validated: 1
EndChar

StartChar: section
Encoding: 167 167 160
Width: 620
VWidth: 200
Flags: W
HStem: 0 21G<310 310> 0 21G<310 310> 797 203<248.868 366.451>
VStem: 10 206<647.571 763.52> 402 208<647.571 763.52>
LayerCount: 2
Fore
SplineSet
310 1000 m 0xb8
 476 1000 610 867 610 703 c 0
 610 539 310 0 310 0 c 1
 310 0 10 539 10 703 c 0
 10 867 144 1000 310 1000 c 0xb8
309 614 m 0
 360 614 402 655 402 706 c 0
 402 757 360 797 309 797 c 0
 258 797 216 757 216 706 c 0
 216 655 258 614 309 614 c 0
EndSplineSet
Validated: 1
EndChar

StartChar: dieresis
Encoding: 168 168 161
Width: 685
VWidth: 179
Flags: W
HStem: -0 21G<371 380.5> -0 21G<371 380.5> 100 52<73.9083 156.003 296.97 328> 254 52<74.1786 154.306 295.649 377.913> 415 38<433.004 590> 471 38<433.004 590> 528 37<433.018 590> 584 37<433.018 590> 640 37<433.018 590> 696 37<433.018 590> 753 37<433.018 590> 809 38<433.004 590> 866 37<433.018 590> 922 38<433.004 590>
VStem: 10 54<162.158 244.599> 155 60<292 460> 165 50<160.911 245.246> 235 60<292 460> 235 51<161.456 244.544> 327.937 52.0628<24.1421 104.513> 387 55<161.239 244.95> 433 242<415 453 471 509 528 565 584 621 640 677 696 733 753 790 809 847 866 903 922 947.338> 590 85<16.1297 415 453 471 509 528 565 584 621 640 677 696 733 753 790 809 847 866 903 921.609>
LayerCount: 2
Fore
SplineSet
590 847 m 1x3ffe12
 590 866 l 1x3ffe12
 451 866 l 2
 439 866 433 876 433 885 c 0x3ffe14
 433 894 439 903 451 903 c 2
 590 903 l 1
 590 922 l 1x3ffe12
 451 922 l 2
 439 922 433 932 433 941 c 0
 433 950 439 960 451 960 c 2
 620 960 l 2
 654 960 675 927 675 902 c 2x3ffe14
 675 52 l 2
 675 25 653 11 632 11 c 0
 611 11 590 24 590 52 c 2
 590 415 l 1x3ffe12
 451 415 l 2
 439 415 433 424.5 433 434 c 0x3ffe14
 433 443.5 439 453 451 453 c 2
 590 453 l 1
 590 471 l 1x3ffe12
 451 471 l 2
 439 471 433 481 433 490 c 0x3ffe14
 433 499 439 509 451 509 c 2
 590 509 l 1
 590 528 l 1x3ffe12
 451 528 l 2
 439 528 433 537 433 546 c 0x3ffe14
 433 555 439 565 451 565 c 2
 590 565 l 1
 590 584 l 1x3ffe12
 451 584 l 2
 439 584 433 593 433 602 c 0x3ffe14
 433 611 439 621 451 621 c 2
 590 621 l 1
 590 640 l 1x3ffe12
 451 640 l 2
 439 640 433 650 433 659 c 0x3ffe14
 433 668 439 677 451 677 c 2
 590 677 l 1
 590 696 l 1x3ffe12
 451 696 l 2
 439 696 433 706 433 715 c 0x3ffe14
 433 724 439 733 451 733 c 2
 590 733 l 1
 590 753 l 1x3ffe12
 451 753 l 2
 439 753 433 763 433 772 c 0x3ffe14
 433 781 439 790 451 790 c 2
 590 790 l 1
 590 809 l 1x3ffe12
 451 809 l 2
 439 809 433 819 433 828 c 0x3ffe14
 433 837 439 847 451 847 c 2
 590 847 l 1x3ffe12
442 203 m 0xbfff58
 442 162 418 127 383 111 c 0
 381 100 380 91 380 83 c 0
 380 61 387 50 395 35 c 0
 397 32 398 27 398 24 c 0
 398 11 387 0 374 -0 c 0
 368 0 363 3 357 8 c 0
 338.797242061 25.2447180479 327.937207592 66.3532873746 327.937207592 97.0319257435 c 0
 327.937207592 98.375584817 327.958039892 99.699236638 328 101 c 0
 279 104 235 146 235 203 c 2xbffe38
 235 460 l 1
 215 460 l 1xbfff50
 215 203 l 2xbffe90
 215 152 172 100 113 100 c 0
 54 100 10 146 10 203 c 0
 10 253 49 306 104 306 c 0
 120 306 137 302 155 292 c 1
 155 539 l 1
 206 946 l 2
 207 957 221 960 227 960 c 0
 233 960 242 957 243 946 c 2
 295 539 l 1
 295 292 l 1
 313 302 330 306 346 306 c 0
 402 306 442 253 442 203 c 0xbfff58
115 152 m 0
 143 152 165 175 165 203 c 0x3ffe90
 165 231 143 254 115 254 c 0
 87 254 64 231 64 203 c 0
 64 175 87 152 115 152 c 0
286 203 m 0x3ffe38
 286 175 309 152 337 152 c 0
 365 152 387 175 387 203 c 0
 387 231 365 254 337 254 c 0
 309 254 286 231 286 203 c 0x3ffe38
EndSplineSet
Validated: 524289
EndChar

StartChar: copyright
Encoding: 169 169 162
Width: 810
VWidth: 200
Flags: W
HStem: 0 71<249 392 535 677> 589 73G<271.5 372 564 638.5> 607 72<429.812 496.188> 768 177G<80 156 430 467 551.5 589 765.5 795.5>
VStem: 427 72<609.812 676.188>
LayerCount: 2
Fore
SplineSet
800 959 m 0x98
 800 903 713 783 564 641 c 1
 564 643 564 645 564 647 c 0
 564 693 514 740 465 743 c 1
 614 885 738 965 793 965 c 0
 798 965 800 965 800 959 c 0x98
102 768 m 0
 108 768 114 768 120 768 c 0
 192 768 292 755 410 728 c 1
 381 713 364 675 364 638 c 0
 364 621 368 603 376 589 c 1xd8
 167 637 32 702 10 748 c 0
 26 761 58 766 102 768 c 0
463 679 m 0xb8
 483 679 499 663 499 643 c 0
 499 623 483 607 463 607 c 0
 443 607 427 623 427 643 c 0
 427 663 443 679 463 679 c 0xb8
557 605 m 1
 621 454 655 332 655 263 c 0
 655 243 652 228 646 217 c 0
 597 230 509 351 425 549 c 1
 435 545 446 544 457 544 c 0
 500 544 546 569 557 605 c 1
421 446 m 2
 455 380 487 322 519 270 c 2
 535 71 l 1
 677 71 l 1
 677 0 l 1
 249 0 l 1
 249 71 l 1
 392 71 l 1
 421 446 l 2
EndSplineSet
Validated: 1
EndChar

StartChar: logicalnot
Encoding: 172 172 163
Width: 1020
VWidth: 200
Flags: W
HStem: 0 71<81 224 260 296 367 403 617 653 724 760 796 939> 500 286<435.356 584.644> 929 71<81 296 367 653 724 939>
VStem: 10 71<71 929> 224 36<71 323.379> 296 71<71 929> 403 214<71 429 528.688 757.312> 653 71<71 929> 760 36<71 323.379> 939 71<71 929>
LayerCount: 2
Fore
SplineSet
10 1000 m 1
 1010 1000 l 1
 1010 0 l 1
 10 0 l 1
 10 1000 l 1
81 929 m 1
 81 71 l 1
 224 71 l 1
 224 286 l 2
 224 317 239 348 260 373 c 2
 260 71 l 1
 296 71 l 1
 296 929 l 1
 81 929 l 1
367 929 m 1
 367 71 l 1
 403 71 l 1
 403 429 l 1
 617 429 l 1
 617 71 l 1
 653 71 l 1
 653 929 l 1
 367 929 l 1
724 929 m 1
 724 71 l 1
 760 71 l 1
 760 373 l 2
 781 348 796 317 796 286 c 2
 796 71 l 1
 939 71 l 1
 939 929 l 1
 724 929 l 1
510 786 m 0
 553 786 591 767 617 737 c 2
 617 549 l 2
 591 519 553 500 510 500 c 0
 467 500 429 519 403 549 c 2
 403 737 l 2
 429 767 467 786 510 786 c 0
EndSplineSet
Validated: 1
EndChar

StartChar: uni00AD
Encoding: 173 173 164
Width: 734
VWidth: 128
Flags: W
HStem: 0 21G<149.663 584.337> 0 21G<149.663 584.337> 786 71<99 635>
LayerCount: 2
Fore
SplineSet
10 857 m 1xa0
 724 857 l 1
 581 0 l 1
 153 0 l 1
 10 857 l 1xa0
99 786 m 1
 121 643 l 1
 611 643 l 1
 635 786 l 1
 99 786 l 1
EndSplineSet
Validated: 1
EndChar

StartChar: registered
Encoding: 174 174 165
Width: 980
VWidth: 100
Flags: W
HStem: 0 87<10 94.6076 162.533 331.038 399.224 568.038 636.533 775.064 870.832 950> 26 87<45.226 212.39 281.61 449.39 518.61 686.39 770.543 918.164> 162 98<10 89.6023 165.625 327.079 403.874 564.602 641.398 727> 188 72<37.857 216.509 275.136 453.065 512.797 691.469 757.156 837.691> 280 80<10 249 417 659.469> 434 83<465 589.5> 444 82<503.5 632> 633 20G<623.5 634.5> 664 36<380.429 407.233> 760 77<396.079 443.859>
LayerCount: 2
Fore
SplineSet
420 740 m 2x09c0
 420 742 422 740 424 740 c 2
 490 740 l 1
 490 741 l 2
 490 697 454 664 410 664 c 0
 383 664 360 680 345 700 c 2
 371 700 l 2
 388 700 402 707 409 721 c 2
 420 740 l 2x09c0
371 720 m 0
 316 720 l 2
 314 720 312 733 312 742 c 0
 312 797 357 837 411 837 c 0
 457 837 496 800 507 760 c 2
 424 760 l 2
 414 760 405 759 401 750 c 2
 391 731 l 2
 387 723 380 720 371 720 c 0
644 280 m 1
 10 280 l 1
 10 360 l 1
 249 360 l 1
 299 523 l 1
 299 523 319 620 376 635 c 0
 433 650 616 652 616 652 c 2
 619 653 622 653 625 653 c 0
 644 653 662 639 666 620 c 0
 667 617 667 614 667 611 c 0
 667 598 661 586 651 578 c 2
 664 528 l 2
 665 528 664 528 665 528 c 0
 688 528 707 509 707 485 c 0
 707 469 698 456 684 449 c 2
 702 380 l 2
 725 384 744 389 759 395 c 0
 793 410 828 418 859 418 c 0
 908 418 949 399 964 354 c 0
 911 303 718 280 644 280 c 1
479 564 m 1
 465 517 l 2x0dc0
 526 520 594 524 632 526 c 2x0bc0
 621 570 l 1
 479 564 l 1
439 434 m 1
 417 361 l 2
 471 361 584 362 672 375 c 1
 654 444 l 1x0bc0
 439 434 l 1
840 188 m 2x19c0
 815 188 790 183 767 172 c 2
 757 168 l 1
 775 98 l 1
 778 100 l 2
 796 108 817 113 838 113 c 0x59c0
 859 113 878 108 896 100 c 0
 914 92 930 87 950 87 c 2
 950 0 l 2x89c0
 930 0 914 4 896 12 c 0
 878 20 861 26 840 26 c 0x49c0
 819 26 797 20 779 12 c 0
 761 4 741 0 721 0 c 0x89c0
 700 0 681 4 663 12 c 0
 645 20 623 26 602 26 c 0x49c0
 581 26 560 20 542 12 c 0
 524 4 505 0 484 0 c 0x89c0
 463 0 444 4 426 12 c 0
 408 20 387 26 365 26 c 0x49c0
 344 26 323 20 305 12 c 0
 287 4 268 0 247 0 c 0x89c0
 226 0 207 4 189 12 c 0
 171 20 149 26 128 26 c 0x49c0
 107 26 87 20 69 12 c 0
 51 4 31 0 10 0 c 2
 10 87 l 2x89c0
 31 87 51 92 69 100 c 0
 87 108 107 113 128 113 c 0x49c0
 149 113 171 108 189 100 c 0
 207 92 226 87 247 87 c 0x89c0
 268 87 287 92 305 100 c 0
 323 108 344 113 365 113 c 0x49c0
 386 113 408 108 426 100 c 0
 444 92 463 87 484 87 c 0x89c0
 505 87 524 92 542 100 c 0
 560 108 581 113 602 113 c 0x49c0
 623 113 645 108 663 100 c 0
 681 92 700 87 721 87 c 0
 729 87 738 89 746 90 c 2
 727 162 l 1
 721 162 l 2xa9c0
 706 162 691 165 676 172 c 0
 653 183 628 188 603 188 c 0x19c0
 578 188 553 183 530 172 c 0
 516 166 500 162 484 162 c 0x29c0
 468 162 452 165 438 172 c 0
 415 183 391 188 366 188 c 0x19c0
 341 188 315 183 292 172 c 0
 278 166 263 162 247 162 c 0x29c0
 231 162 216 165 201 172 c 0
 179 182 153 188 128 188 c 0x19c0
 103 188 78 183 55 172 c 0
 41 166 25 162 10 162 c 2
 10 260 l 1
 644 260 l 2x29c0
 671 260 888 271 969 330 c 1
 969 325 970 321 970 316 c 0
 970 189 840 188 840 188 c 2x19c0
EndSplineSet
Validated: 5
EndChar

StartChar: macron
Encoding: 175 175 166
Width: 877
VWidth: 200
Flags: W
HStem: 0 143<82 224 653 796> 214 72<174.25 274.25 603.25 702.75> 429 71<173.057 273.375 602.79 701.375> 786 71<298 582> 929 71<298 582>
VStem: 10 145<305.322 410.491 500 786> 296 286<307.75 406.517> 724 143<307.75 406.517 500 786>
LayerCount: 2
Fore
SplineSet
222 1000 m 1
 653 1000 l 1
 867 786 l 1
 867 286 l 2
 867 243 836 214 796 214 c 2
 84 214 l 2
 45.526959175 214 9.8292462318 242.678388113 9.8292462318 281.34948633 c 0
 9.8292462318 282.884306218 9.88547806188 284.434866846 10 286 c 2
 10 786 l 1
 222 1000 l 1
298 929 m 1
 298 857 l 1
 582 857 l 1
 582 929 l 1
 298 929 l 1
155 786 m 1
 155 500 l 1
 724 500 l 1
 724 786 l 1
 155 786 l 1
211 429 m 0
 179 423 153 391 153 358 c 0
 153 320 186 286 224 286 c 0
 262 286 296 320 296 358 c 0
 296 396 260 429 223 429 c 0
 220 429 216 430 213 429 c 0
 212 429 212 429 211 429 c 0
642 429 m 0
 609 424 582 392 582 358 c 0
 582 320 615 286 653 286 c 0
 691 286 724 320 724 358 c 0
 724 396 688 429 651 429 c 0
 648 429 645 430 642 429 c 0
82 143 m 1
 296 143 l 1
 224 0 l 1
 10 0 l 1
 82 143 l 1
582 143 m 1
 796 143 l 1
 867 0 l 1
 653 0 l 1
 582 143 l 1
EndSplineSet
Validated: 524289
EndChar

StartChar: degree
Encoding: 176 176 167
Width: 877
VWidth: 200
Flags: W
HStem: 0 143<81 224 653 796> 214 143<153 367 510 724> 429 142<155 367 510 724> 786 214<224 653>
VStem: 10 143<357 429 571 683.662> 367 143<357 429> 724 143<357 429 571 684.231>
CounterMasks: 1 0e
LayerCount: 2
Fore
SplineSet
296 1000 m 2
 581 1000 l 2
 724 1000 867 786 867 500 c 2
 867 357 l 2
 867 286 795 214 724 214 c 2
 153 214 l 2
 82 214 10 286 10 357 c 2
 10 500 l 2
 10 785 154 1000 295 1000 c 0
 296 1000 l 2
224 786 m 1
 224 786 155 717 155 579 c 0
 155 576 155 574 155 571 c 2
 724 571 l 2
 724 714 653 786 653 786 c 1
 224 786 l 1
153 429 m 1
 153 357 l 1
 367 357 l 1
 367 429 l 1
 153 429 l 1
510 429 m 1
 510 357 l 1
 724 357 l 1
 724 429 l 1
 510 429 l 1
81 143 m 1
 296 143 l 1
 224 0 l 1
 10 0 l 1
 81 143 l 1
581 143 m 1
 796 143 l 1
 867 0 l 1
 653 0 l 1
 581 143 l 1
EndSplineSet
Validated: 1
EndChar

StartChar: plusminus
Encoding: 177 177 168
Width: 860
VWidth: 200
Flags: W
HStem: 0 21G<10 145> 0 21G<10 145> 210 47<355 477 559 687> 712 20G<10 145 213 823> 799 61<145 850>
VStem: 10 135<0 799 860 980> 213 142<257 488> 477 82<257 420> 687 136<257 488>
LayerCount: 2
Fore
SplineSet
213 210 m 1x3f80
 213 732 l 1
 823 732 l 1
 823 210 l 1
 213 210 l 1x3f80
523 680 m 1
 299 488 l 1
 355 488 l 1
 355 257 l 1
 477 257 l 1
 477 420 l 1
 559 420 l 1
 559 257 l 1
 687 257 l 1
 687 488 l 1
 743 488 l 1
 523 680 l 1
145 860 m 1
 850 860 l 1
 850 799 l 1
 145 799 l 1
 145 0 l 1
 10 0 l 1xbf80
 10 980 l 1
 145 980 l 1
 145 860 l 1
EndSplineSet
Validated: 1
EndChar

StartChar: uni00B2
Encoding: 178 178 169
Width: 973
VWidth: 200
Flags: W
HStem: 0 21G<658.878 670> 0 21G<658.878 670> 108 190<217.927 468 670 828.094> 565 20G<10 251.068 364 390 451 643 798.786 820.889 838 851.078> 683 21G<331 380.5 489 728.111>
VStem: 173 295<127.077 235.516>
LayerCount: 2
Fore
SplineSet
354 379 m 1x3c
 262 435 l 1
 149 234 l 2
 145 226 140 216 136 204 c 2
 46 368 l 2
 41 377 38 387 38 397 c 0
 38 407 41 417 46 426 c 2
 103 529 l 1
 10 585 l 1
 240 585 l 1
 354 379 l 1x3c
183 214 m 0
 211 265 l 2
 222 284 228 295 230 298 c 2
 468 298 l 1
 468 108 l 1
 242 108 l 2
 223 108 207 115 193 129 c 0
 179 143 173 158 173 178 c 0
 173 191 176 203 183 214 c 0
489 683 m 1
 562 728 l 1
 581 739 l 1
 469 940 l 2
 464 948 458 958 451 966 c 2
 632 966 l 2
 654 966 670 956 681 937 c 2
 739 834 l 1
 832 890 l 1
 717 683 l 1
 489 683 l 1
377 956 m 1
 403 956 423 944 436 920 c 2
 481 836 l 2
 438 759 399 687 362 622 c 1
 300 658 247 690 204 716 c 2
 318 920 l 2
 331 944 351 956 377 956 c 1
670 300 m 1
 895 299 l 2
 903 299 914 301 926 304 c 2
 835 140 l 2
 824 120 806 111 784 111 c 2
 670 111 l 1
 670 0 l 1xbc
 556 205 l 1
 670 411 l 1
 670 323 l 1
 670 300 l 1
840 649 m 0
 953 445 l 2
 960 433 963 421 963 409 c 0
 963 398 960 386 954 375 c 0
 941 351 921 340 894 340 c 2
 802 340 l 2
 773 393 732 464 681 555 c 0
 782 615 836 646 840 649 c 0
EndSplineSet
Validated: 5
EndChar

StartChar: uni00B3
Encoding: 179 179 170
Width: 984
VWidth: -85
Flags: W
HStem: 0 214<135 242 742 849> 250 107<19.6108 964.773>
VStem: 135 107<0 214> 742 107<0 214>
LayerCount: 2
Fore
SplineSet
64 357 m 2
 921 357 l 2
 957 357 974 331 974 304 c 0
 974 277 957 250 921 250 c 2
 64 250 l 2
 28 250 10 277 10 304 c 0
 10 331 28 357 64 357 c 2
135 214 m 1
 242 214 l 1
 242 0 l 1
 135 0 l 1
 135 214 l 1
742 214 m 1
 849 214 l 1
 849 0 l 1
 742 0 l 1
 742 214 l 1
EndSplineSet
Validated: 1
EndChar

StartChar: acute
Encoding: 180 180 171
Width: 879
VWidth: 200
Flags: W
HStem: 0 80<118.835 231.165 648.17 758.288> 214 54<331 414> 250 80<119.351 184 693 757.649> 357 72<296 507> 500 71<138.81 224 296 381.19> 592 20G<510.556 543.647> 643 143<103.276 222> 732 179<328.427 439 724 760> 857 143<103.276 222>
VStem: 10 80<108.835 221.165> 10 71<788.983 853.455> 224 72<429 500> 260 80<108.835 212.899> 537 82<108.072 222.242> 581 72<429 500> 787 82<108.835 221.165>
LayerCount: 2
Fore
SplineSet
189 1000 m 0x9ea3
 255 1000 312 964 343 911 c 2
 760 911 l 1
 867 821 l 1
 760 732 l 1
 724 732 l 1
 653 804 l 1
 581 732 l 1
 510 804 l 1
 439 732 l 1
 343 732 l 2x9d23
 312 679 255 643 189 643 c 0
 90 643 10 722 10 821 c 0
 10 920 90 1000 189 1000 c 0x9ea3
117 857 m 0x9ea1
 97 857 81 841 81 821 c 0
 81 801 97 786 117 786 c 0
 137 786 153 801 153 821 c 0
 153 841 137 857 117 857 c 0x9ea1
510 612 m 1
 653 527 l 1
 653 429 l 1
 693 330 l 2
 696 330 699 330 702 330 c 0xbc53
 793 330 869 256 869 165 c 0
 869 74 793 0 702 0 c 0
 611 0 537 74 537 165 c 0
 537 223 567 276 613 306 c 2
 593 357 l 1
 439 214 l 1
 367 214 l 1
 331 214 l 2
 336 198 340 182 340 165 c 0xdc0d
 340 74 266 0 175 0 c 0
 84 0 10 74 10 165 c 0
 10 256 84 330 175 330 c 0
 178 330 181 330 184 330 c 2
 224 429 l 1
 224 500 l 1
 189 500 l 2
 153 500 135 518 135 536 c 0
 135 554 153 571 189 571 c 2
 331 571 l 2
 367 571 385 554 385 536 c 0
 385 518 367 500 331 500 c 2
 296 500 l 1
 296 429 l 1
 314 429 l 1
 581 429 l 1
 581 500 l 1xbc53
 512 540 l 1
 510 612 l 1
285 357 m 1
 264 306 l 2
 279 297 291 281 302 268 c 2
 414 268 l 1xdc01
 507 357 l 1
 285 357 l 1
175 250 m 0xbc49
 128 250 90 212 90 165 c 0
 90 118 128 80 175 80 c 0
 222 80 260 118 260 165 c 0
 260 212 222 250 175 250 c 0xbc49
702 250 m 0
 655 250 619 212 619 165 c 0xbc05
 619 118 655 80 702 80 c 0
 749 80 787 118 787 165 c 0
 787 212 749 250 702 250 c 0
EndSplineSet
Validated: 5
EndChar

StartChar: mu
Encoding: 181 181 172
Width: 877
VWidth: 200
Flags: W
HStem: 0 161<181.217 267.189 609.811 695.783> 71 286<101.723 153 296 581 724 774.625> 268 89<251 267.324 609.676 626> 500 71<296 581> 643 143<103.276 222> 732 179<328.427 439 724 760> 857 143<103.276 222>
VStem: 10 71<788.983 853.455> 81 90<171.315 257.324> 278 321<171.315 257.324> 706 90<171.315 257.324>
LayerCount: 2
Fore
SplineSet
189 1000 m 0x1b60
 255 1000 312 964 343 911 c 2
 760 911 l 1
 867 821 l 1
 760 732 l 1
 724 732 l 1
 653 804 l 1
 581 732 l 1
 510 804 l 1
 439 732 l 1
 343 732 l 2x1560
 312 679 255 643 189 643 c 0
 90 643 10 722 10 821 c 0
 10 920 90 1000 189 1000 c 0x1b60
117 857 m 0x1b60
 97 857 81 841 81 821 c 0
 81 801 97 786 117 786 c 0
 137 786 153 801 153 821 c 0
 153 841 137 857 117 857 c 0x1b60
224 571 m 1
 653 571 l 1
 724 357 l 2
 763 357 796 323 796 286 c 2
 796 71 l 1
 724 71 l 1x50e0
 724 71 724 0 653 0 c 0x90e0
 582 0 581 71 581 71 c 1
 296 71 l 1x50e0
 296 71 295 0 224 0 c 0x90e0
 153 0 153 71 153 71 c 1
 81 71 l 1
 81 286 l 2
 81 330 119 357 153 357 c 2x50e0
 224 571 l 1
296 500 m 1
 251 357 l 1
 626 357 l 1x3060
 581 500 l 1
 296 500 l 1
224 268 m 0
 194 268 171 244 171 214 c 0
 171 184 194 161 224 161 c 0xb0e0
 254 161 278 184 278 214 c 0
 278 244 254 268 224 268 c 0
653 268 m 0
 623 268 599 244 599 214 c 0
 599 184 623 161 653 161 c 0
 683 161 706 184 706 214 c 0
 706 244 683 268 653 268 c 0
EndSplineSet
Validated: 1
EndChar

StartChar: paragraph
Encoding: 182 182 173
Width: 879
VWidth: 200
Flags: W
HStem: 0 80<118.835 231.165 648.17 758.288> 214 54<331 414> 250 80<119.351 184 693 757.649> 357 72<296 508> 500 71<138.81 224 296 381.19> 592 20G<510.556 543.647> 732 54<85.9728 150.518> 857 54<86.3264 150.188>
VStem: 10 80<108.835 221.165> 10 71<788.957 853.526> 224 72<429 500> 260 80<108.835 212.899> 537 82<108.072 222.242> 581 72<429 500> 787 82<108.835 221.165>
LayerCount: 2
Fore
SplineSet
689 1000 m 0x9f42
 755 1000 812 964 843 911 c 2
 724 911 l 1
 617 821 l 1
 724 732 l 1
 843 732 l 2
 812 679 755 643 689 643 c 0
 623 643 566 679 535 732 c 2
 117 732 l 2
 53 732 10 769 10 821 c 0
 10 873 54 911 117 911 c 2
 535 911 l 2
 566 964 623 1000 689 1000 c 0x9f42
117 857 m 0
 97 857 81 841 81 821 c 0
 81 801 97 786 117 786 c 0
 137 786 153 801 153 821 c 0
 153 841 137 857 117 857 c 0
510 612 m 1
 653 527 l 1
 653 429 l 1
 693 330 l 2
 696 330 699 330 702 330 c 0xbfa6
 793 330 869 256 869 165 c 0
 869 74 793 0 702 0 c 0
 611 0 537 74 537 165 c 0
 537 223 567 276 613 306 c 2
 593 357 l 1
 439 214 l 1
 367 214 l 1
 331 214 l 2
 336 198 340 182 340 165 c 0xdf1a
 340 74 266 0 175 0 c 0
 84 0 10 74 10 165 c 0
 10 256 84 330 175 330 c 0
 178 330 181 330 184 330 c 2
 224 429 l 1
 224 500 l 1
 189 500 l 2
 153 500 135 518 135 536 c 0
 135 554 153 571 189 571 c 2
 331 571 l 2
 367 571 385 554 385 536 c 0
 385 518 367 500 331 500 c 2
 296 500 l 1
 296 429 l 1
 314 429 l 1
 581 429 l 1
 581 500 l 1xbfa6
 512 540 l 1
 510 612 l 1
285 357 m 1
 264 306 l 2
 279 297 291 281 302 268 c 2
 414 268 l 1xdf02
 508 357 l 1
 285 357 l 1
175 250 m 0xbf92
 128 250 90 212 90 165 c 0
 90 118 128 80 175 80 c 0
 222 80 260 118 260 165 c 0
 260 212 222 250 175 250 c 0xbf92
702 250 m 0
 655 250 619 212 619 165 c 0xbf0a
 619 118 655 80 702 80 c 0
 749 80 787 118 787 165 c 0
 787 212 749 250 702 250 c 0
EndSplineSet
Validated: 1
EndChar

StartChar: periodcentered
Encoding: 183 183 174
Width: 853
VWidth: 200
Flags: W
HStem: 0 161<181.217 267.189 609.811 695.783> 71 286<101.723 153 296 581 724 774.625> 268 89<251 267.324 609.676 626> 500 71<296 581> 732 54<85.9728 150.518> 857 54<86.3264 150.188>
VStem: 10 71<788.957 853.526> 81 90<171.315 257.324> 278 321<171.315 257.324> 706 90<171.315 257.324>
LayerCount: 2
Fore
SplineSet
689 1000 m 0x1ec0
 755 1000 812 964 843 911 c 2
 724 911 l 1
 617 821 l 1
 724 732 l 1
 843 732 l 2
 812 679 755 643 689 643 c 0
 623 643 566 679 535 732 c 2
 117 732 l 2
 53 732 10 769 10 821 c 0
 10 873 54 911 117 911 c 2
 535 911 l 2
 566 964 623 1000 689 1000 c 0x1ec0
117 857 m 0
 97 857 81 841 81 821 c 0
 81 801 97 786 117 786 c 0
 137 786 153 801 153 821 c 0
 153 841 137 857 117 857 c 0
224 571 m 1
 653 571 l 1
 724 357 l 2
 763 357 796 323 796 286 c 2
 796 71 l 1
 724 71 l 1x5dc0
 724 71 724 0 653 0 c 0x9dc0
 582 0 581 71 581 71 c 1
 296 71 l 1x5dc0
 296 71 295 0 224 0 c 0x9dc0
 153 0 153 71 153 71 c 1
 81 71 l 1
 81 286 l 2
 81 330 119 357 153 357 c 2x5dc0
 224 571 l 1
296 500 m 1
 251 357 l 1
 626 357 l 1x3cc0
 581 500 l 1
 296 500 l 1
224 268 m 0
 194 268 171 244 171 214 c 0
 171 184 194 161 224 161 c 0xbdc0
 254 161 278 184 278 214 c 0
 278 244 254 268 224 268 c 0
653 268 m 0
 623 268 599 244 599 214 c 0
 599 184 623 161 653 161 c 0
 683 161 706 184 706 214 c 0
 706 244 683 268 653 268 c 0
EndSplineSet
Validated: 1
EndChar

StartChar: cedilla
Encoding: 184 184 175
Width: 877
VWidth: 200
Flags: W
HStem: 0 21G<135 314 599 778> 0 21G<135 314 599 778> 980 20G<188.5 259.5 537 555 680 698 822 840>
VStem: 10 429<522.215 780.841> 510 71<544.924 996.19> 635 107<287.583 401.385> 653 71<545.219 996.19> 796 71<543.117 996.19>
LayerCount: 2
Fore
SplineSet
224 1000 m 0xb9
 295 1000 439 857 439 643 c 0
 439 429 278 357 278 357 c 1
 314 0 l 1
 135 0 l 1
 171 357 l 1
 171 357 10 429 10 643 c 0
 10 857 153 1000 224 1000 c 0xb9
510 946 m 2
 510 982 528 1000 546 1000 c 0
 564 1000 581 982 581 946 c 2
 581 571 l 2
 581 552 599 543 617 543 c 0
 635 543 653 552 653 571 c 2
 653 946 l 2
 653 982 671 1000 689 1000 c 0
 707 1000 724 982 724 946 c 2
 724 571 l 2xbb
 724 551 742 541 760 541 c 0
 778 541 796 551 796 571 c 2
 796 946 l 2
 796 982 813 1000 831 1000 c 0
 849 1000 867 982 867 946 c 2
 867 500 l 2
 867 429 742 428 742 357 c 2
 778 0 l 1
 599 0 l 1
 635 357 l 2xbd
 635 428 510 429 510 500 c 2
 510 946 l 2
EndSplineSet
Validated: 1
EndChar

StartChar: uni00B9
Encoding: 185 185 176
Width: 620
VWidth: 180
Flags: W
HStem: 0 21G<135 165 522.5 557.5> 0 21G<135 165 522.5 557.5> 582 138<50.3748 90 210 249.625> 940 20G<25 35 105 115 184.5 195.5 265 275> 940 20G<25 35 105 115 184.5 195.5 265 275 497.5 542.5>
VStem: 10 40<720 959.996> 90 40<720 959.995> 170 40<720 959.993> 250 40<720 959.995> 430 180<380 929.933> 470 140<15 380>
LayerCount: 2
Fore
SplineSet
250 941 m 2x2f80
 250 953 260 960 270 960 c 0
 280 960 290 954 290 941 c 2
 290 647 l 2
 290 616 250 582 210 582 c 2
 210 60 l 2
 210 20 180 0 150 0 c 0
 120 0 90 20 90 60 c 2
 90 582 l 2
 50 582 10 609 10 651 c 2
 10 941 l 2
 10 954 20 960 30 960 c 0xb780
 40 960 50 954 50 940 c 2x2f80
 50 720 l 1
 90 720 l 1
 90 941 l 2
 90 953 100 960 110 960 c 0x3780
 120 960 130 954 130 941 c 2
 130 720 l 1
 170 720 l 1
 170 940 l 2x2f80
 170 951 179 960 190 960 c 0x3780
 201 960 210 951 210 940 c 2
 210 720 l 1
 250 720 l 1
 250 941 l 2x2f80
430 880 m 2xa7c0
 430 930 475 955 520 955 c 0
 565 955 610 930 610 880 c 2xa7c0
 610 60 l 2
 610 20 575 0 540 0 c 0
 505 0 470 20 470 60 c 2
 470 380 l 1xa7a0
 430 380 l 1
 430 880 l 2xa7c0
EndSplineSet
Validated: 1
EndChar

StartChar: ordmasculine
Encoding: 186 186 177
Width: 980
VWidth: -40
Flags: W
HStem: 0 21G<42.4561 82.6913 897.309 937.544> 0 21G<42.4561 82.6913 897.309 937.544> 460 20G<488 492>
VStem: 153 120<367 439>
LayerCount: 2
Fore
SplineSet
153 439 m 1x30
 274 439 l 1
 273 367 l 1
 153 259 l 1
 153 439 l 1x30
488 478 m 1
 490 480 l 1
 492 478 l 1
 970 57 l 1
 920 0 l 1
 490 379 l 1
 60 0 l 1xb0
 10 57 l 1
 488 478 l 1
EndSplineSet
Validated: 1
EndChar

StartChar: guillemotright
Encoding: 187 187 178
Width: 900
VWidth: 150
Flags: W
HStem: 0 21G<260.5 652.5> 0 21G<260.5 652.5> 857 20G<161 205 425 474 695 739>
VStem: 10 880<423.438 663.025>
LayerCount: 2
Fore
SplineSet
890 515 m 0xb0
 890 468 855 118 450 0 c 1
 71 110 10 487 10 518 c 0
 10 520 l 0
 15 755 146 852 161 862 c 2
 183 877 l 1
 205 862 l 2
 242 837 280 825 318 825 c 0
 381 825 423 859 425 860 c 2
 450 880 l 1
 474 860 l 2
 476 859 519 825 582 825 c 0
 620 825 658 837 695 862 c 2
 717 877 l 1
 739 862 l 2
 743 859 890 758 890 515 c 0xb0
EndSplineSet
Validated: 1
EndChar

StartChar: onequarter
Encoding: 188 188 179
Width: 930
VWidth: 150
Flags: W
HStem: 0 21G<269 674.5> 0 21G<269 674.5> 528 21G<90 90.5> 650 207<240.672 416.236 513.764 689.328> 892 20G<166 212 441.19 488.81 718 764>
VStem: 10 80<442.409 644.104> 840.133 79.8673<418.568 642.596>
LayerCount: 2
Fore
SplineSet
920 535 m 0xbe
 920 487 884 123 465 0 c 1
 73 115 10 506 10 539 c 0
 10 540 10 540 10 540 c 0
 15 784 150 885 166 896 c 2
 189 912 l 1
 212 896 l 2
 250 870 289 857 328 857 c 0
 393 857 438 892 440 894 c 2
 465 915 l 1
 490 894 l 2
 492 892 537 857 602 857 c 0
 641 857 680 870 718 896 c 2
 741 912 l 1
 764 896 l 2
 768 893 920 787 920 535 c 0xbe
90 534 m 2
 89.9909061374 533.890873649 89.986277985 533.752058595 89.986277985 533.584050437 c 0
 89.986277985 515.277163462 144.937317615 150.354335756 465 80 c 1
 811.346942059 150.036916261 840.132704612 486.088849558 840.132704612 524.734649994 c 0
 840.132704612 526.369655488 840.081180376 527.472327553 840 528 c 2
 839 574 833 630 820 650 c 2
 110 650 l 2
 98 630 91 574 90 528 c 2
 90 534 l 2
EndSplineSet
Validated: 524293
EndChar

StartChar: onehalf
Encoding: 189 189 180
Width: 980
VWidth: -19
Flags: W
HStem: 0 39<514.388 585.185> 80 240<230 390.996 651 870> 80 40<10 126> 127 38<514.388 585.185> 440 120<263.916 390 550 834.782>
VStem: 110 120<320 436.862> 390 160<320 440> 468 38<47.9876 118.83> 593 38<46.77 119.134> 870 100<320 438.85>
LayerCount: 2
Fore
SplineSet
550 165 m 0x9ec0
 595 165 631 129 631 83 c 0
 631 37 595 0 550 0 c 0x9ec0
 505 0 468 37 468 83 c 0x9dc0
 468 129 505 165 550 165 c 0x9ec0
550 39 m 0
 574 39 593 59 593 83 c 0
 593 107 574 127 550 127 c 0x9ec0
 526 127 506 107 506 83 c 0x9dc0
 506 59 526 39 550 39 c 0
887 530 m 0
 939 512 970 467 970 425 c 2
 970 159 l 2
 970 118 937 80 896 80 c 2xaec0
 651 80 l 2xcec0
 651 140 606 182 550 182 c 0
 494 182 449 140 449 80 c 2
 10 80 l 1
 10 120 l 1
 126 120 l 2xaec0
 117 120 110 142 110 159 c 2
 110 412 l 2
 110 507 197 530 200 531 c 0
 229 540 426 560 549 560 c 0
 672 560 858 540 887 530 c 0
391 333 m 0
 390 331 l 1
 390 424 l 2
 390 432 385 440 377 440 c 2
 246 440 l 2
 238 440 230 432 230 424 c 2
 230 331 l 2
 230 323 238 320 246 320 c 2
 377 320 l 2xcec0
 385 320 391 325 391 333 c 0
870 331 m 2
 870 424 l 2
 870 432 864 440 856 440 c 2
 565 440 l 2
 557 440 550 432 550 424 c 2
 550 331 l 2
 550 323 557 320 565 320 c 2
 856 320 l 2
 864 320 870 323 870 331 c 2
EndSplineSet
Validated: 1
EndChar

StartChar: threequarters
Encoding: 190 190 181
Width: 1020
VWidth: 200
Flags: W
HStem: 0 21G<62 388.5 617.5 831.5> 0 21G<62 388.5 617.5 831.5> 571 409G<188.5 259.5 510 939> 643 21G<715 800.953> 857 72<849 1010>
VStem: 10 429<20.5509 508.817> 153 143<777.183 986.282>
LayerCount: 2
Fore
SplineSet
224 1000 m 0x8a
 295 1000 296 966 296 857 c 0x8a
 296 786 439 500 439 429 c 2
 439 71 l 2
 439 28 410 0 367 0 c 2
 81 0 l 2
 43 0 10 31 10 71 c 2
 10 429 l 2x8c
 10 500 153 786 153 857 c 0
 153 964 153 1000 224 1000 c 0x8a
787 929 m 1
 1010 929 l 1
 1010 857 l 1
 849 857 l 1
 796 643 l 1
 715 643 l 1x18
 787 929 l 1
510 571 m 1xa0
 939 571 l 1
 867 71 l 1
 867 71 867 0 796 0 c 2
 653 0 l 2
 582 0 581 71 581 71 c 1
 510 571 l 1xa0
EndSplineSet
Validated: 1
EndChar

StartChar: questiondown
Encoding: 191 191 182
Width: 734
VWidth: -85
Flags: W
HStem: 0 21G<10 724> 0 21G<10 724>
LayerCount: 2
Fore
SplineSet
10 0 m 1x80
 10 429 l 1
 367 214 l 1
 724 429 l 1
 724 0 l 1
 10 0 l 1x80
EndSplineSet
Validated: 1
EndChar

